999
dxfrw 0.6.3
  0
SECTION
  2
HEADER
  9
$ACADVER
  1
AC1021
  9
$DWGCODEPAGE
  3
ANSI_1252
  9
$INSBASE
 10
0
 20
0
 30
0
  9
$EXTMIN
 10
-43.381197846462
 20
-38.1051177665
 30
0
  9
$EXTMAX
 10
406.5854811566465
 20
116.717277088
 30
0
  9
$LIMMIN
 10
0
 20
0
  9
$LIMMAX
 10
420
 20
297
  9
$ORTHOMODE
 70
    0
  9
$REGENMODE
 70
    1
  9
$FILLMODE
 70
    1
  9
$QTEXTMODE
 70
    0
  9
$MIRRTEXT
 70
    0
  9
$LTSCALE
 40
1
  9
$ATTMODE
 70
    0
  9
$TEXTSIZE
 40
2.5
  9
$TRACEWID
 40
15.68
  9
$TEXTSTYLE
  7
STANDARD
  9
$CLAYER
  8
0
  9
$CELTYPE
  6
BYLAYER
  9
$CECOLOR
 62
  256
  9
$CELTSCALE
 40
1
  9
$DISPSILH
 70
    0
  9
$DIMSCALE
 40
2.5
  9
$DIMASZ
 40
2.5
  9
$DIMEXO
 40
0.625
  9
$DIMDLI
 40
3.75
  9
$DIMRND
 40
0
  9
$DIMDLE
 40
0
  9
$DIMEXE
 40
1.25
  9
$DIMTP
 40
0
  9
$DIMTM
 40
0
  9
$DIMTXT
 40
2.5
  9
$DIMCEN
 40
2.5
  9
$DIMTSZ
 40
0
  9
$DIMTOL
 70
    0
  9
$DIMLIM
 70
    0
  9
$DIMTIH
 70
    0
  9
$DIMTOH
 70
    0
  9
$DIMSE1
 70
    0
  9
$DIMSE2
 70
    0
  9
$DIMTAD
 70
    1
  9
$DIMZIN
 70
    8
  9
$DIMBLK
  1

  9
$DIMASO
 70
    1
  9
$DIMSHO
 70
    1
  9
$DIMPOST
  1

  9
$DIMAPOST
  1

  9
$DIMALT
 70
    0
  9
$DIMALTD
 70
    3
  9
$DIMALTF
 40
0.03937
  9
$DIMLFAC
 40
1
  9
$DIMTOFL
 70
    1
  9
$DIMTVP
 40
0
  9
$DIMTIX
 70
    0
  9
$DIMSOXD
 70
    0
  9
$DIMSAH
 70
    0
  9
$DIMBLK1
  1

  9
$DIMBLK2
  1

  9
$DIMSTYLE
  2
Standard
  9
$DIMCLRD
 70
    0
  9
$DIMCLRE
 70
    0
  9
$DIMCLRT
 70
    0
  9
$DIMTFAC
 40
1
  9
$DIMGAP
 40
0.625
  9
$DIMJUST
 70
    0
  9
$DIMSD1
 70
    0
  9
$DIMSD2
 70
    0
  9
$DIMTOLJ
 70
    0
  9
$DIMTZIN
 70
    8
  9
$DIMALTZ
 70
    0
  9
$DIMALTTZ
 70
    0
  9
$DIMUPT
 70
    0
  9
$DIMDEC
 70
    2
  9
$DIMTDEC
 70
    2
  9
$DIMALTU
 70
    2
  9
$DIMALTTD
 70
    3
  9
$DIMTXSTY
  7
STANDARD
  9
$DIMAUNIT
 70
    0
  9
$DIMADEC
 70
    0
  9
$DIMALTRND
 40
0
  9
$DIMAZIN
 70
    0
  9
$DIMDSEP
 70
   44
  9
$DIMATFIT
 70
    3
  9
$DIMFRAC
 70
    0
  9
$DIMLDRBLK
  1
STANDARD
  9
$DIMLUNIT
 70
    2
  9
$DIMLWD
 70
   -2
  9
$DIMLWE
 70
   -2
  9
$DIMTMOVE
 70
    0
  9
$DIMFXL
 40
1
  9
$DIMFXLON
 70
    0
  9
$DIMJOGANG
 40
0.7854
  9
$DIMTFILL
 70
    0
  9
$DIMTFILLCLR
 70
    0
  9
$DIMARCSYM
 70
    0
  9
$DIMLTYPE
  6

  9
$DIMLTEX1
  6

  9
$DIMLTEX2
  6

  9
$LUNITS
 70
    2
  9
$LUPREC
 70
    4
  9
$SKETCHINC
 40
1
  9
$FILLETRAD
 40
0
  9
$AUNITS
 70
    0
  9
$AUPREC
 70
    2
  9
$MENU
  1
.
  9
$ELEVATION
 40
0
  9
$PELEVATION
 40
0
  9
$THICKNESS
 40
0
  9
$LIMCHECK
 70
    0
  9
$CHAMFERA
 40
0
  9
$CHAMFERB
 40
0
  9
$CHAMFERC
 40
0
  9
$CHAMFERD
 40
0
  9
$SKPOLY
 70
    0
  9
$USRTIMER
 70
    1
  9
$ANGBASE
 50
0
  9
$ANGDIR
 70
    0
  9
$PDMODE
 70
   34
  9
$PDSIZE
 40
0
  9
$PLINEWID
 40
0
  9
$SPLFRAME
 70
    0
  9
$SPLINETYPE
 70
    2
  9
$SPLINESEGS
 70
    8
  9
$HANDSEED
  5
20000
  9
$SURFTAB1
 70
    6
  9
$SURFTAB2
 70
    6
  9
$SURFTYPE
 70
    6
  9
$SURFU
 70
    6
  9
$SURFV
 70
    6
  9
$UCSBASE
  2

  9
$UCSNAME
  2

  9
$UCSORG
 10
0
 20
0
 30
0
  9
$UCSXDIR
 10
1
 20
0
 30
0
  9
$UCSYDIR
 10
0
 20
1
 30
0
  9
$UCSORTHOREF
  2

  9
$UCSORTHOVIEW
 70
    0
  9
$UCSORGTOP
 10
0
 20
0
 30
0
  9
$UCSORGBOTTOM
 10
0
 20
0
 30
0
  9
$UCSORGLEFT
 10
0
 20
0
 30
0
  9
$UCSORGRIGHT
 10
0
 20
0
 30
0
  9
$UCSORGFRONT
 10
0
 20
0
 30
0
  9
$UCSORGBACK
 10
0
 20
0
 30
0
  9
$PUCSBASE
  2

  9
$PUCSNAME
  2

  9
$PUCSORG
 10
0
 20
0
 30
0
  9
$PUCSXDIR
 10
1
 20
0
 30
0
  9
$PUCSYDIR
 10
0
 20
1
 30
0
  9
$PUCSORTHOREF
  2

  9
$PUCSORTHOVIEW
 70
    0
  9
$PUCSORGTOP
 10
0
 20
0
 30
0
  9
$PUCSORGBOTTOM
 10
0
 20
0
 30
0
  9
$PUCSORGLEFT
 10
0
 20
0
 30
0
  9
$PUCSORGRIGHT
 10
0
 20
0
 30
0
  9
$PUCSORGFRONT
 10
0
 20
0
 30
0
  9
$PUCSORGBACK
 10
0
 20
0
 30
0
  9
$USERI1
 70
    0
  9
$USERI2
 70
    0
  9
$USERI3
 70
    0
  9
$USERI4
 70
    0
  9
$USERI5
 70
    0
  9
$USERR1
 40
0
  9
$USERR2
 40
0
  9
$USERR3
 40
0
  9
$USERR4
 40
0
  9
$USERR5
 40
0
  9
$WORLDVIEW
 70
    1
  9
$SHADEDGE
 70
    3
  9
$SHADEDIF
 70
   70
  9
$TILEMODE
 70
    1
  9
$MAXACTVP
 70
   64
  9
$PINSBASE
 10
0
 20
0
 30
0
  9
$PLIMCHECK
 70
    0
  9
$PEXTMIN
 10
0
 20
0
 30
0
  9
$PEXTMAX
 10
0
 20
0
 30
0
  9
$PLIMMIN
 10
0
 20
0
  9
$PLIMMAX
 10
210
 20
297
  9
$UNITMODE
 70
    0
  9
$VISRETAIN
 70
    1
  9
$PLINEGEN
 70
    0
  9
$PSLTSCALE
 70
    1
  9
$TREEDEPTH
 70
 3020
  9
$CMLSTYLE
  2
Standard
  9
$CMLJUST
 70
    0
  9
$CMLSCALE
 40
20
  9
$PROXYGRAPHICS
 70
    1
  9
$MEASUREMENT
 70
    1
  9
$CELWEIGHT
370
   -1
  9
$ENDCAPS
280
    0
  9
$JOINSTYLE
280
    0
  9
$LWDISPLAY
290
    0
  9
$INSUNITS
 70
    4
  9
$HYPERLINKBASE
  1

  9
$STYLESHEET
  1

  9
$XEDIT
290
    1
  9
$CEPSNTYPE
380
    0
  9
$PSTYLEMODE
290
    1
  9
$EXTNAMES
290
    1
  9
$PSVPSCALE
 40
0
  9
$OLESTARTUP
290
    0
  9
$SORTENTS
280
  127
  9
$INDEXCTL
280
    0
  9
$HIDETEXT
280
    1
  9
$XCLIPFRAME
290
    0
  9
$HALOGAP
280
    0
  9
$OBSCOLOR
 70
  257
  9
$OBSLTYPE
280
    0
  9
$INTERSECTIONDISPLAY
280
    0
  9
$INTERSECTIONCOLOR
 70
  257
  9
$DIMASSOC
280
    1
  9
$PROJECTNAME
  1

  9
$CAMERADISPLAY
290
    0
  9
$LENSLENGTH
 40
50
  9
$CAMERAHEIGHT
 40
0
  9
$STEPSPERSEC
 40
2
  9
$STEPSIZE
 40
50
  9
$3DDWFPREC
 40
2
  9
$PSOLWIDTH
 40
5
  9
$PSOLHEIGHT
 40
80
  9
$LOFTANG1
 40
1.570796326794897
  9
$LOFTANG2
 40
1.570796326794897
  9
$LOFTMAG1
 40
0
  9
$LOFTMAG2
 40
0
  9
$LOFTPARAM
 70
    7
  9
$LOFTNORMALS
280
    1
  9
$LATITUDE
 40
1
  9
$LONGITUDE
 40
1
  9
$NORTHDIRECTION
 40
0
  9
$TIMEZONE
 70
-8000
  9
$LIGHTGLYPHDISPLAY
280
    1
  9
$TILEMODELIGHTSYNCH
280
    1
  9
$SOLIDHIST
280
    1
  9
$SHOWHIST
280
    1
  9
$DWFFRAME
280
    2
  9
$DGNFRAME
280
    0
  9
$REALWORLDSCALE
290
    1
  9
$INTERFERECOLOR
 62
    1
  9
$CSHADOW
280
    0
  9
$SHADOWPLANELOCATION
 40
0
  0
ENDSEC
  0
SECTION
  2
CLASSES
  0
ENDSEC
  0
SECTION
  2
TABLES
  0
TABLE
  2
VPORT
  5
8
330
0
100
AcDbSymbolTable
 70
    1
  0
VPORT
  5
31
330
2
100
AcDbSymbolTableRecord
100
AcDbViewportTableRecord
  2
*ACTIVE
 70
    0
 10
0
 20
0
 11
1
 21
1
 12
220.187409809812
 22
90.4564975784142
 13
0
 23
0
 14
10
 24
10
 15
10
 25
10
 16
0
 26
0
 36
1
 17
0
 27
0
 37
0
 40
329.2365824101173
 41
1.690355329949239
 42
50
 43
0
 44
0
 50
0
 51
0
 71
    0
 72
  100
 73
    1
 74
    3
 75
    0
 76
    1
 77
    0
 78
    0
281
    0
 65
    1
110
0
120
0
130
0
111
1
121
0
131
0
112
0
122
1
132
0
 79
    0
146
0
348
10020
 60
    7
 61
    5
292
1
282
    1
141
0
142
0
 63
  250
421
3358443
  0
ENDTAB
  0
TABLE
  2
LTYPE
  5
5
330
0
100
AcDbSymbolTable
 70
    4
  0
LTYPE
  5
14
330
5
100
AcDbSymbolTableRecord
100
AcDbLinetypeTableRecord
  2
ByBlock
 70
    0
  3

 72
   65
 73
    0
 40
0
  0
LTYPE
  5
15
330
5
100
AcDbSymbolTableRecord
100
AcDbLinetypeTableRecord
  2
ByLayer
 70
    0
  3

 72
   65
 73
    0
 40
0
  0
LTYPE
  5
16
330
5
100
AcDbSymbolTableRecord
100
AcDbLinetypeTableRecord
  2
Continuous
 70
    0
  3
Solid line
 72
   65
 73
    0
 40
0
  0
LTYPE
  5
32
330
5
100
AcDbSymbolTableRecord
100
AcDbLinetypeTableRecord
  2
DOT
 70
    0
  3
Dot . . . . . . . . . . . . . . . . . . . . . .
 72
   65
 73
    2
 40
6.35
 49
0
 74
    0
 49
-6.35
 74
    0
  0
LTYPE
  5
33
330
5
100
AcDbSymbolTableRecord
100
AcDbLinetypeTableRecord
  2
DOTTINY
 70
    0
  3
Dot (.15x) .....................................
 72
   65
 73
    2
 40
0.9525
 49
0
 74
    0
 49
-0.9525
 74
    0
  0
LTYPE
  5
34
330
5
100
AcDbSymbolTableRecord
100
AcDbLinetypeTableRecord
  2
DOT2
 70
    0
  3
Dot (.5x) .....................................
 72
   65
 73
    2
 40
3.175
 49
0
 74
    0
 49
-3.175
 74
    0
  0
LTYPE
  5
35
330
5
100
AcDbSymbolTableRecord
100
AcDbLinetypeTableRecord
  2
DOTX2
 70
    0
  3
Dot (2x) .  .  .  .  .  .  .  .  .  .  .  .  .
 72
   65
 73
    2
 40
12.7
 49
0
 74
    0
 49
-12.7
 74
    0
  0
LTYPE
  5
36
330
5
100
AcDbSymbolTableRecord
100
AcDbLinetypeTableRecord
  2
DASHED
 70
    0
  3
Dashed _ _ _ _ _ _ _ _ _ _ _ _ _ _ _ _ _
 72
   65
 73
    2
 40
19.05
 49
12.7
 74
    0
 49
-6.35
 74
    0
  0
LTYPE
  5
37
330
5
100
AcDbSymbolTableRecord
100
AcDbLinetypeTableRecord
  2
DASHEDTINY
 70
    0
  3
Dashed (.15x) _ _ _ _ _ _ _ _ _ _ _ _ _ _ _ _ _
 72
   65
 73
    2
 40
2.8575
 49
1.905
 74
    0
 49
-0.9525
 74
    0
  0
LTYPE
  5
38
330
5
100
AcDbSymbolTableRecord
100
AcDbLinetypeTableRecord
  2
DASHED2
 70
    0
  3
Dashed (.5x) _ _ _ _ _ _ _ _ _ _ _ _ _ _ _ _ _
 72
   65
 73
    2
 40
9.524999999999999
 49
6.35
 74
    0
 49
-3.175
 74
    0
  0
LTYPE
  5
39
330
5
100
AcDbSymbolTableRecord
100
AcDbLinetypeTableRecord
  2
DASHEDX2
 70
    0
  3
Dashed (2x) ____  ____  ____  ____  ____  ___
 72
   65
 73
    2
 40
38.09999999999999
 49
25.4
 74
    0
 49
-12.7
 74
    0
  0
LTYPE
  5
3A
330
5
100
AcDbSymbolTableRecord
100
AcDbLinetypeTableRecord
  2
DASHDOT
 70
    0
  3
Dash dot __ . __ . __ . __ . __ . __ . __ . __
 72
   65
 73
    4
 40
25.4
 49
12.7
 74
    0
 49
-6.35
 74
    0
 49
0
 74
    0
 49
-6.35
 74
    0
  0
LTYPE
  5
3B
330
5
100
AcDbSymbolTableRecord
100
AcDbLinetypeTableRecord
  2
DASHDOTTINY
 70
    0
  3
Dash dot (.15x) _._._._._._._._._._._._._._._.
 72
   65
 73
    4
 40
3.81
 49
1.905
 74
    0
 49
-0.9525
 74
    0
 49
0
 74
    0
 49
-0.9525
 74
    0
  0
LTYPE
  5
3C
330
5
100
AcDbSymbolTableRecord
100
AcDbLinetypeTableRecord
  2
DASHDOT2
 70
    0
  3
Dash dot (.5x) _._._._._._._._._._._._._._._.
 72
   65
 73
    4
 40
12.7
 49
6.35
 74
    0
 49
-3.175
 74
    0
 49
0
 74
    0
 49
-3.175
 74
    0
  0
LTYPE
  5
3D
330
5
100
AcDbSymbolTableRecord
100
AcDbLinetypeTableRecord
  2
DASHDOTX2
 70
    0
  3
Dash dot (2x) ____  .  ____  .  ____  .  ___
 72
   65
 73
    4
 40
50.8
 49
25.4
 74
    0
 49
-12.7
 74
    0
 49
0
 74
    0
 49
-12.7
 74
    0
  0
LTYPE
  5
3E
330
5
100
AcDbSymbolTableRecord
100
AcDbLinetypeTableRecord
  2
DIVIDE
 70
    0
  3
Divide ____ . . ____ . . ____ . . ____ . . ____
 72
   65
 73
    6
 40
31.75
 49
12.7
 74
    0
 49
-6.35
 74
    0
 49
0
 74
    0
 49
-6.35
 74
    0
 49
0
 74
    0
 49
-6.35
 74
    0
  0
LTYPE
  5
3F
330
5
100
AcDbSymbolTableRecord
100
AcDbLinetypeTableRecord
  2
DIVIDETINY
 70
    0
  3
Divide (.15x) __..__..__..__..__..__..__..__.._
 72
   65
 73
    6
 40
4.7625
 49
1.905
 74
    0
 49
-0.9525
 74
    0
 49
0
 74
    0
 49
-0.9525
 74
    0
 49
0
 74
    0
 49
-0.9525
 74
    0
  0
LTYPE
  5
40
330
5
100
AcDbSymbolTableRecord
100
AcDbLinetypeTableRecord
  2
DIVIDE2
 70
    0
  3
Divide (.5x) __..__..__..__..__..__..__..__.._
 72
   65
 73
    6
 40
15.875
 49
6.35
 74
    0
 49
-3.175
 74
    0
 49
0
 74
    0
 49
-3.175
 74
    0
 49
0
 74
    0
 49
-3.175
 74
    0
  0
LTYPE
  5
41
330
5
100
AcDbSymbolTableRecord
100
AcDbLinetypeTableRecord
  2
DIVIDEX2
 70
    0
  3
Divide (2x) ________  .  .  ________  .  .  _
 72
   65
 73
    6
 40
63.5
 49
25.4
 74
    0
 49
-12.7
 74
    0
 49
0
 74
    0
 49
-12.7
 74
    0
 49
0
 74
    0
 49
-12.7
 74
    0
  0
LTYPE
  5
42
330
5
100
AcDbSymbolTableRecord
100
AcDbLinetypeTableRecord
  2
BORDER
 70
    0
  3
Border __ __ . __ __ . __ __ . __ __ . __ __ .
 72
   65
 73
    6
 40
44.45
 49
12.7
 74
    0
 49
-6.35
 74
    0
 49
12.7
 74
    0
 49
-6.35
 74
    0
 49
0
 74
    0
 49
-6.35
 74
    0
  0
LTYPE
  5
43
330
5
100
AcDbSymbolTableRecord
100
AcDbLinetypeTableRecord
  2
BORDERTINY
 70
    0
  3
Border (.15x) __.__.__.__.__.__.__.__.__.__.__.
 72
   65
 73
    6
 40
6.6675
 49
1.905
 74
    0
 49
-0.9525
 74
    0
 49
1.905
 74
    0
 49
-0.9525
 74
    0
 49
0
 74
    0
 49
-0.9525
 74
    0
  0
LTYPE
  5
44
330
5
100
AcDbSymbolTableRecord
100
AcDbLinetypeTableRecord
  2
BORDER2
 70
    0
  3
Border (.5x) __.__.__.__.__.__.__.__.__.__.__.
 72
   65
 73
    6
 40
22.225
 49
6.35
 74
    0
 49
-3.175
 74
    0
 49
6.35
 74
    0
 49
-3.175
 74
    0
 49
0
 74
    0
 49
-3.175
 74
    0
  0
LTYPE
  5
45
330
5
100
AcDbSymbolTableRecord
100
AcDbLinetypeTableRecord
  2
BORDERX2
 70
    0
  3
Border (2x) ____  ____  .  ____  ____  .  ___
 72
   65
 73
    6
 40
88.89999999999999
 49
25.4
 74
    0
 49
-12.7
 74
    0
 49
25.4
 74
    0
 49
-12.7
 74
    0
 49
0
 74
    0
 49
-12.7
 74
    0
  0
LTYPE
  5
46
330
5
100
AcDbSymbolTableRecord
100
AcDbLinetypeTableRecord
  2
CENTER
 70
    0
  3
Center ____ _ ____ _ ____ _ ____ _ ____ _ ____
 72
   65
 73
    4
 40
50.8
 49
31.75
 74
    0
 49
-6.35
 74
    0
 49
6.35
 74
    0
 49
-6.35
 74
    0
  0
LTYPE
  5
47
330
5
100
AcDbSymbolTableRecord
100
AcDbLinetypeTableRecord
  2
CENTERTINY
 70
    0
  3
Center (.15x) ___ _ ___ _ ___ _ ___ _ ___ _ ___
 72
   65
 73
    4
 40
7.619999999999999
 49
4.7625
 74
    0
 49
-0.9525
 74
    0
 49
0.9525
 74
    0
 49
-0.9525
 74
    0
  0
LTYPE
  5
48
330
5
100
AcDbSymbolTableRecord
100
AcDbLinetypeTableRecord
  2
CENTER2
 70
    0
  3
Center (.5x) ___ _ ___ _ ___ _ ___ _ ___ _ ___
 72
   65
 73
    4
 40
28.575
 49
19.05
 74
    0
 49
-3.175
 74
    0
 49
3.175
 74
    0
 49
-3.175
 74
    0
  0
LTYPE
  5
49
330
5
100
AcDbSymbolTableRecord
100
AcDbLinetypeTableRecord
  2
CENTERX2
 70
    0
  3
Center (2x) ________  __  ________  __  _____
 72
   65
 73
    4
 40
101.6
 49
63.5
 74
    0
 49
-12.7
 74
    0
 49
12.7
 74
    0
 49
-12.7
 74
    0
  0
ENDTAB
  0
TABLE
  2
LAYER
  5
2
330
0
100
AcDbSymbolTable
 70
    1
  0
LAYER
  5
10
330
2
100
AcDbSymbolTableRecord
100
AcDbLayerTableRecord
  2
0
 70
    0
 62
    7
  6
CONTINUOUS
370
   -3
390
F
  0
LAYER
  5
4A
330
2
100
AcDbSymbolTableRecord
100
AcDbLayerTableRecord
  2
Body_Slices
 70
    0
 62
    7
  6
CONTINUOUS
370
   -3
390
F
  0
ENDTAB
  0
TABLE
  2
STYLE
  5
3
330
0
100
AcDbSymbolTable
 70
    3
  0
STYLE
  5
4B
330
2
100
AcDbSymbolTableRecord
100
AcDbTextStyleTableRecord
  2
Standard
 70
    0
 40
0
 41
1
 50
0
 71
    0
 42
1
  3
txt
  4

  0
ENDTAB
  0
TABLE
  2
VIEW
  5
6
330
0
100
AcDbSymbolTable
 70
    0
  0
ENDTAB
  0
TABLE
  2
UCS
  5
7
330
0
100
AcDbSymbolTable
 70
    0
  0
ENDTAB
  0
TABLE
  2
APPID
  5
9
330
0
100
AcDbSymbolTable
 70
    1
  0
APPID
  5
12
330
9
100
AcDbSymbolTableRecord
100
AcDbRegAppTableRecord
  2
ACAD
 70
    0
  0
APPID
  5
4C
330
9
100
AcDbSymbolTableRecord
100
AcDbRegAppTableRecord
  2
LibreCad
 70
    0
  0
ENDTAB
  0
TABLE
  2
DIMSTYLE
  5
A
330
0
100
AcDbSymbolTable
 70
    1
100
AcDbDimStyleTable
 71
    1
  0
DIMSTYLE
105
4D
330
A
100
AcDbSymbolTableRecord
100
AcDbDimStyleTableRecord
  2
Standard
 70
    0
 40
1
 41
2.5
 42
0.625
 43
0.38
 44
1.25
 45
0
 46
0
 47
0
 48
0
 49
1
140
2.5
141
0.09
142
2.5
143
25.4
144
1
145
0
146
1
147
0.625
148
0
 71
    0
 72
    0
 73
    0
 74
    1
 75
    0
 76
    0
 77
    0
 78
    1
 79
    0
170
    0
171
    2
172
    0
173
    0
174
    0
175
    0
176
    0
177
    0
178
    0
179
    0
271
    2
272
    4
273
    2
274
    2
275
    0
276
    0
277
    2
278
    0
279
    0
280
    0
281
    0
282
    0
283
    1
284
    0
285
    0
286
    0
288
    0
289
    3
340
standard
341

371
   -2
372
   -2
  0
ENDTAB
  0
TABLE
  2
BLOCK_RECORD
  5
1
330
0
100
AcDbSymbolTable
 70
    2
  0
BLOCK_RECORD
  5
1F
330
1
100
AcDbSymbolTableRecord
100
AcDbBlockTableRecord
  2
*Model_Space
 70
    0
280
    1
281
    0
  0
BLOCK_RECORD
  5
1E
330
1
100
AcDbSymbolTableRecord
100
AcDbBlockTableRecord
  2
*Paper_Space
 70
    0
280
    1
281
    0
  0
BLOCK_RECORD
  5
4E
330
1
100
AcDbSymbolTableRecord
100
AcDbBlockTableRecord
  2
MYLAYER
 70
    0
280
    1
281
    0
  0
BLOCK_RECORD
  5
51
330
1
100
AcDbSymbolTableRecord
100
AcDbBlockTableRecord
  2
MYLAYER007
 70
    0
280
    1
281
    0
  0
BLOCK_RECORD
  5
54
330
1
100
AcDbSymbolTableRecord
100
AcDbBlockTableRecord
  2
MYLAYER006
 70
    0
280
    1
281
    0
  0
BLOCK_RECORD
  5
57
330
1
100
AcDbSymbolTableRecord
100
AcDbBlockTableRecord
  2
MYLAYER001
 70
    0
280
    1
281
    0
  0
BLOCK_RECORD
  5
5A
330
1
100
AcDbSymbolTableRecord
100
AcDbBlockTableRecord
  2
MYLAYER005
 70
    0
280
    1
281
    0
  0
BLOCK_RECORD
  5
5D
330
1
100
AcDbSymbolTableRecord
100
AcDbBlockTableRecord
  2
MYLAYER009
 70
    0
280
    1
281
    0
  0
BLOCK_RECORD
  5
60
330
1
100
AcDbSymbolTableRecord
100
AcDbBlockTableRecord
  2
MYLAYER008
 70
    0
280
    1
281
    0
  0
BLOCK_RECORD
  5
63
330
1
100
AcDbSymbolTableRecord
100
AcDbBlockTableRecord
  2
MYLAYER004
 70
    0
280
    1
281
    0
  0
BLOCK_RECORD
  5
66
330
1
100
AcDbSymbolTableRecord
100
AcDbBlockTableRecord
  2
MYLAYER003
 70
    0
280
    1
281
    0
  0
BLOCK_RECORD
  5
69
330
1
100
AcDbSymbolTableRecord
100
AcDbBlockTableRecord
  2
MYLAYER002
 70
    0
280
    1
281
    0
  0
ENDTAB
  0
ENDSEC
  0
SECTION
  2
BLOCKS
  0
BLOCK
  5
20
330
1F
100
AcDbEntity
  8
0
100
AcDbBlockBegin
  2
*Model_Space
 70
    0
 10
0
 20
0
 30
0
  3
*Model_Space
  1

  0
ENDBLK
  5
21
330
1F
100
AcDbEntity
  8
0
100
AcDbBlockEnd
  0
BLOCK
  5
1C
330
1B
100
AcDbEntity
  8
0
100
AcDbBlockBegin
  2
*Paper_Space
 70
    0
 10
0
 20
0
 30
0
  3
*Paper_Space
  1

  0
ENDBLK
  5
1D
330
1F
100
AcDbEntity
  8
0
100
AcDbBlockEnd
  0
BLOCK
  5
4F
330
4E
100
AcDbEntity
  8
0
100
AcDbBlockBegin
  2
MYLAYER
 70
    0
 10
0
 20
0
  3
MYLAYER
  1

  0
LWPOLYLINE
  5
6C
100
AcDbEntity
  8
Body_Slices
  6
ByLayer
 62
    0
370
   -1
100
AcDbPolyline
 90
   12
 70
    1
 43
0
 10
19.6905989232
 20
-38.1051177665
 42
0.2679491924310001
 10
23.1547005384
 20
-36.1051177665
 10
42.8452994616
 20
-2.000000000000004
 42
0.2679491924310005
 10
42.8452994616
 20
2
 10
23.1547005384
 20
36.1051177665
 42
0.2679491924310001
 10
19.6905989232
 20
38.1051177665
 10
-19.6905989232
 20
38.1051177665
 42
0.2679491924310001
 10
-23.1547005384
 20
36.1051177665
 10
-42.8452994616
 20
2.000000000000001
 42
0.2679491924310002
 10
-42.8452994616
 20
-2
 10
-23.1547005384
 20
-36.1051177665
 42
0.2679491924310001
 10
-19.6905989232
 20
-38.1051177665
  0
CIRCLE
  5
6D
100
AcDbEntity
  8
Body_Slices
  6
ByLayer
 62
    0
370
   -1
100
AcDbCircle
 10
16.165
 20
27.9986013044
 40
1.25
  0
CIRCLE
  5
6E
100
AcDbEntity
  8
Body_Slices
  6
ByLayer
 62
    0
370
   -1
100
AcDbCircle
 10
-16.165
 20
-27.9986013044
 40
1.25
  0
CIRCLE
  5
6F
100
AcDbEntity
  8
Body_Slices
  6
ByLayer
 62
    0
370
   -1
100
AcDbCircle
 10
-32.33
 20
0
 40
1.25
  0
CIRCLE
  5
70
100
AcDbEntity
  8
Body_Slices
  6
ByLayer
 62
    0
370
   -1
100
AcDbCircle
 10
32.33
 20
0
 40
1.25
  0
CIRCLE
  5
71
100
AcDbEntity
  8
Body_Slices
  6
ByLayer
 62
    0
370
   -1
100
AcDbCircle
 10
-16.165
 20
27.9986013044
 40
1.25
  0
CIRCLE
  5
72
100
AcDbEntity
  8
Body_Slices
  6
ByLayer
 62
    0
370
   -1
100
AcDbCircle
 10
16.165
 20
-27.9986013044
 40
1.25
  0
ENDBLK
  5
50
330
4E
100
AcDbEntity
  8
0
100
AcDbBlockEnd
  0
BLOCK
  5
52
330
51
100
AcDbEntity
  8
0
100
AcDbBlockBegin
  2
MYLAYER007
 70
    0
 10
0
 20
0
  3
MYLAYER007
  1

  0
LWPOLYLINE
  5
73
100
AcDbEntity
  8
Body_Slices
  6
ByLayer
 62
    0
370
   -1
100
AcDbPolyline
 90
   12
 70
    1
 43
0
 10
221.658765982
 20
79.710235533
 42
0.2679491924310005
 10
221.658765982
 20
82.710235533
 10
203.89081679
 20
113.485226281
 42
0.267949192431001
 10
201.292740578
 20
114.985226281
 10
165.756842194
 20
114.985226281
 42
0.2679491924310009
 10
163.158765982
 20
113.485226281
 10
145.39081679
 20
82.710235533
 42
0.2679491924310006
 10
145.39081679
 20
79.710235533
 10
163.158765982
 20
48.93524478539999
 42
0.2679491924310008
 10
165.756842194
 20
47.4352447854
 10
201.292740578
 20
47.4352447854
 42
0.267949192431001
 10
203.89081679
 20
48.93524478539999
  0
CIRCLE
  5
74
100
AcDbEntity
  8
Body_Slices
  6
ByLayer
 62
    0
370
   -1
100
AcDbCircle
 10
183.524791386
 20
81.210235533
 40
29
  0
CIRCLE
  5
75
100
AcDbEntity
  8
Body_Slices
  6
ByLayer
 62
    0
370
   -1
100
AcDbCircle
 10
199.689791386
 20
109.208836837
 40
1.25
  0
CIRCLE
  5
76
100
AcDbEntity
  8
Body_Slices
  6
ByLayer
 62
    0
370
   -1
100
AcDbCircle
 10
199.689791386
 20
53.2116342287
 40
1.25
  0
CIRCLE
  5
77
100
AcDbEntity
  8
Body_Slices
  6
ByLayer
 62
    0
370
   -1
100
AcDbCircle
 10
167.359791386
 20
53.2116342287
 40
1.25
  0
CIRCLE
  5
78
100
AcDbEntity
  8
Body_Slices
  6
ByLayer
 62
    0
370
   -1
100
AcDbCircle
 10
167.359791386
 20
109.208836837
 40
1.25
  0
CIRCLE
  5
79
100
AcDbEntity
  8
Body_Slices
  6
ByLayer
 62
    0
370
   -1
100
AcDbCircle
 10
151.194791386
 20
81.210235533
 40
1.25
  0
CIRCLE
  5
7A
100
AcDbEntity
  8
Body_Slices
  6
ByLayer
 62
    0
370
   -1
100
AcDbCircle
 10
215.854791386
 20
81.210235533
 40
1.25
  0
ENDBLK
  5
53
330
51
100
AcDbEntity
  8
0
100
AcDbBlockEnd
  0
BLOCK
  5
55
330
54
100
AcDbEntity
  8
0
100
AcDbBlockBegin
  2
MYLAYER006
 70
    0
 10
0
 20
0
  3
MYLAYER006
  1

  0
LWPOLYLINE
  5
7B
100
AcDbEntity
  8
Body_Slices
  6
ByLayer
 62
    0
370
   -1
100
AcDbPolyline
 90
   12
 70
    1
 43
0
 10
128.896370289
 20
79.710235533
 42
0.2679491924309996
 10
128.896370289
 20
82.710235533
 10
111.628421097
 20
112.619200877
 42
0.2679491924310003
 10
109.030344885
 20
114.119200877
 10
74.4944465005
 20
114.119200877
 42
0.2679491924310002
 10
71.89637028919999
 20
112.619200877
 10
54.6284210968
 20
82.710235533
 42
0.2679491924310001
 10
54.6284210968
 20
79.710235533
 10
71.89637028919999
 20
49.8012701892
 42
0.2679491924310001
 10
74.4944465005
 20
48.3012701892
 10
109.030344885
 20
48.3012701892
 42
0.2679491924310005
 10
111.628421097
 20
49.8012701892
  0
CIRCLE
  5
7C
100
AcDbEntity
  8
Body_Slices
  6
ByLayer
 62
    0
370
   -1
100
AcDbCircle
 10
59.432395693
 20
81.210235533
 40
1.25
  0
CIRCLE
  5
7D
100
AcDbEntity
  8
Body_Slices
  6
ByLayer
 62
    0
370
   -1
100
AcDbCircle
 10
124.092395693
 20
81.210235533
 40
1.25
  0
CIRCLE
  5
7E
100
AcDbEntity
  8
Body_Slices
  6
ByLayer
 62
    0
370
   -1
100
AcDbCircle
 10
75.597395693
 20
53.2116342287
 40
1.25
  0
CIRCLE
  5
7F
100
AcDbEntity
  8
Body_Slices
  6
ByLayer
 62
    0
370
   -1
100
AcDbCircle
 10
107.927395693
 20
109.208836837
 40
1.25
  0
CIRCLE
  5
80
100
AcDbEntity
  8
Body_Slices
  6
ByLayer
 62
    0
370
   -1
100
AcDbCircle
 10
91.762395693
 20
81.210235533
 40
28
  0
CIRCLE
  5
81
100
AcDbEntity
  8
Body_Slices
  6
ByLayer
 62
    0
370
   -1
100
AcDbCircle
 10
107.927395693
 20
53.2116342287
 40
1.25
  0
CIRCLE
  5
82
100
AcDbEntity
  8
Body_Slices
  6
ByLayer
 62
    0
370
   -1
100
AcDbCircle
 10
75.597395693
 20
109.208836837
 40
1.25
  0
ENDBLK
  5
56
330
54
100
AcDbEntity
  8
0
100
AcDbBlockEnd
  0
BLOCK
  5
58
330
57
100
AcDbEntity
  8
0
100
AcDbBlockBegin
  2
MYLAYER001
 70
    0
 10
0
 20
0
  3
MYLAYER001
  1

  0
LWPOLYLINE
  5
83
100
AcDbEntity
  8
Body_Slices
  6
ByLayer
 62
    0
370
   -1
100
AcDbPolyline
 90
   16
 70
    1
 43
0
 10
111.452994616
 20
-38.1051177665
 42
0.2679491924310001
 10
114.917096231
 20
-36.1051177665
 10
134.607695155
 20
-2.000000000000004
 42
0.2679491924310005
 10
134.607695155
 20
2
 10
114.917096231
 20
36.1051177665
 42
0.2679491924310001
 10
111.452994616
 20
38.1051177665
 10
72.0717967697
 20
38.1051177665
 42
0.267949192431
 10
68.60769515459999
 20
36.1051177665
 10
48.9170962313
 20
2.000000000000001
 42
0.2679491924310002
 10
48.9170962313
 20
-2
 10
68.60769515459999
 20
-36.1051177665
 42
0.2679491924310001
 10
72.0717967697
 20
-38.1051177665
 10
83.762395693
 20
-38.1051177665
 10
83.762395693
 20
-31.1051177665
 10
99.762395693
 20
-31.1051177665
 10
99.762395693
 20
-38.1051177665
  0
LWPOLYLINE
  5
84
100
AcDbEntity
  8
Body_Slices
  6
ByLayer
 62
    0
370
   -1
100
AcDbPolyline
 90
    8
 70
    1
 43
0
 10
78.712395693
 20
6.89488223348
 10
78.712395693
 20
3.29488223348
 10
78.712395693
 20
-31.1051177665
 10
81.712395693
 20
-31.1051177665
 10
81.712395693
 20
3.29488223348
 10
81.712395693
 20
6.89488223348
 10
81.712395693
 20
9.294882233479999
 10
78.712395693
 20
9.294882233479999
  0
CIRCLE
  5
85
100
AcDbEntity
  8
Body_Slices
  6
ByLayer
 62
    0
370
   -1
100
AcDbCircle
 10
107.927395693
 20
-27.9986013044
 40
1.25
  0
CIRCLE
  5
86
100
AcDbEntity
  8
Body_Slices
  6
ByLayer
 62
    0
370
   -1
100
AcDbCircle
 10
107.927395693
 20
27.9986013044
 40
1.25
  0
CIRCLE
  5
87
100
AcDbEntity
  8
Body_Slices
  6
ByLayer
 62
    0
370
   -1
100
AcDbCircle
 10
124.092395693
 20
0
 40
1.25
  0
CIRCLE
  5
88
100
AcDbEntity
  8
Body_Slices
  6
ByLayer
 62
    0
370
   -1
100
AcDbCircle
 10
75.597395693
 20
-27.9986013044
 40
1.25
  0
LWPOLYLINE
  5
89
100
AcDbEntity
  8
Body_Slices
  6
ByLayer
 62
    0
370
   -1
100
AcDbPolyline
 90
    4
 70
    1
 43
0
 10
83.262395693
 20
-20.7051177665
 10
100.262395693
 20
-20.7051177665
 10
100.262395693
 20
3.29488223348
 10
83.262395693
 20
3.29488223348
  0
CIRCLE
  5
8A
100
AcDbEntity
  8
Body_Slices
  6
ByLayer
 62
    0
370
   -1
100
AcDbCircle
 10
59.432395693
 20
0
 40
1.25
  0
CIRCLE
  5
8B
100
AcDbEntity
  8
Body_Slices
  6
ByLayer
 62
    0
370
   -1
100
AcDbCircle
 10
75.597395693
 20
27.9986013044
 40
1.25
  0
ENDBLK
  5
59
330
57
100
AcDbEntity
  8
0
100
AcDbBlockEnd
  0
BLOCK
  5
5B
330
5A
100
AcDbEntity
  8
0
100
AcDbBlockBegin
  2
MYLAYER005
 70
    0
 10
0
 20
0
  3
MYLAYER005
  1

  0
LWPOLYLINE
  5
8C
100
AcDbEntity
  8
Body_Slices
  6
ByLayer
 62
    0
370
   -1
100
AcDbPolyline
 90
   12
 70
    1
 43
0
 10
40.1339745962
 20
79.710235533
 42
0.2679491924310005
 10
40.1339745962
 20
82.710235533
 10
21.3660254038
 20
115.217277088
 42
0.2679491924309996
 10
18.7679491924
 20
116.717277088
 10
-18.7679491924
 20
116.717277088
 42
0.2679491924309996
 10
-21.3660254038
 20
115.217277088
 10
-40.1339745962
 20
82.710235533
 42
0.2679491924310001
 10
-40.1339745962
 20
79.710235533
 10
-21.3660254038
 20
47.2031939779
 42
0.2679491924310001
 10
-18.7679491924
 20
45.7031939779
 10
18.7679491924
 20
45.7031939779
 42
0.2679491924310003
 10
21.3660254038
 20
47.2031939779
  0
CIRCLE
  5
8D
100
AcDbEntity
  8
Body_Slices
  6
ByLayer
 62
    0
370
   -1
100
AcDbCircle
 10
16.165
 20
109.208836837
 40
1.25
  0
CIRCLE
  5
8E
100
AcDbEntity
  8
Body_Slices
  6
ByLayer
 62
    0
370
   -1
100
AcDbCircle
 10
-16.165
 20
53.2116342287
 40
1.25
  0
CIRCLE
  5
8F
100
AcDbEntity
  8
Body_Slices
  6
ByLayer
 62
    0
370
   -1
100
AcDbCircle
 10
16.165
 20
53.2116342287
 40
1.25
  0
CIRCLE
  5
90
100
AcDbEntity
  8
Body_Slices
  6
ByLayer
 62
    0
370
   -1
100
AcDbCircle
 10
-32.33
 20
81.210235533
 40
1.25
  0
CIRCLE
  5
91
100
AcDbEntity
  8
Body_Slices
  6
ByLayer
 62
    0
370
   -1
100
AcDbCircle
 10
0
 20
81.210235533
 40
26.6
  0
CIRCLE
  5
92
100
AcDbEntity
  8
Body_Slices
  6
ByLayer
 62
    0
370
   -1
100
AcDbCircle
 10
-16.165
 20
109.208836837
 40
1.25
  0
CIRCLE
  5
93
100
AcDbEntity
  8
Body_Slices
  6
ByLayer
 62
    0
370
   -1
100
AcDbCircle
 10
32.33
 20
81.210235533
 40
1.25
  0
ENDBLK
  5
5C
330
5A
100
AcDbEntity
  8
0
100
AcDbBlockEnd
  0
BLOCK
  5
5E
330
5D
100
AcDbEntity
  8
0
100
AcDbBlockBegin
  2
MYLAYER009
 70
    0
 10
0
 20
0
  3
MYLAYER009
  1

  0
LWPOLYLINE
  5
94
100
AcDbEntity
  8
Body_Slices
  6
ByLayer
 62
    0
370
   -1
100
AcDbPolyline
 90
   12
 70
    1
 43
0
 10
403.183557368
 20
79.710235533
 42
0.2679491924310005
 10
403.183557368
 20
82.710235533
 10
386.4156081759999
 20
111.753175473
 42
0.2679491924309981
 10
383.817531964
 20
113.253175473
 10
350.281633579
 20
113.253175473
 42
0.2679491924309994
 10
347.683557368
 20
111.753175473
 10
330.915608176
 20
82.710235533
 42
0.2679491924310006
 10
330.915608176
 20
79.710235533
 10
347.683557368
 20
50.66729559300001
 42
0.2679491924309986
 10
350.281633579
 20
49.167295593
 10
383.817531964
 20
49.167295593
 42
0.2679491924309975
 10
386.4156081759999
 20
50.66729559300002
  0
CIRCLE
  5
95
100
AcDbEntity
  8
Body_Slices
  6
ByLayer
 62
    0
370
   -1
100
AcDbCircle
 10
334.719582772
 20
81.210235533
 40
1.25
  0
CIRCLE
  5
96
100
AcDbEntity
  8
Body_Slices
  6
ByLayer
 62
    0
370
   -1
100
AcDbCircle
 10
399.379582772
 20
81.210235533
 40
1.25
  0
CIRCLE
  5
97
100
AcDbEntity
  8
Body_Slices
  6
ByLayer
 62
    0
370
   -1
100
AcDbCircle
 10
350.884582772
 20
53.2116342287
 40
1.25
  0
CIRCLE
  5
98
100
AcDbEntity
  8
Body_Slices
  6
ByLayer
 62
    0
370
   -1
100
AcDbCircle
 10
383.214582772
 20
109.208836837
 40
1.25
  0
CIRCLE
  5
99
100
AcDbEntity
  8
Body_Slices
  6
ByLayer
 62
    0
370
   -1
100
AcDbCircle
 10
367.049582772
 20
81.210235533
 40
29
  0
CIRCLE
  5
9A
100
AcDbEntity
  8
Body_Slices
  6
ByLayer
 62
    0
370
   -1
100
AcDbCircle
 10
383.214582772
 20
53.2116342287
 40
1.25
  0
CIRCLE
  5
9B
100
AcDbEntity
  8
Body_Slices
  6
ByLayer
 62
    0
370
   -1
100
AcDbCircle
 10
350.884582772
 20
109.208836837
 40
1.25
  0
ENDBLK
  5
5F
330
5D
100
AcDbEntity
  8
0
100
AcDbBlockEnd
  0
BLOCK
  5
61
330
60
100
AcDbEntity
  8
0
100
AcDbBlockBegin
  2
MYLAYER008
 70
    0
 10
0
 20
0
  3
MYLAYER008
  1

  0
LWPOLYLINE
  5
9C
100
AcDbEntity
  8
Body_Slices
  6
ByLayer
 62
    0
370
   -1
100
AcDbPolyline
 90
   12
 70
    1
 43
0
 10
291.555136271
 20
50.0333209968
 42
0.2679491924309986
 10
294.153212483
 20
51.53332099680001
 10
310.421161675
 20
79.710235533
 42
0.2679491924310005
 10
310.421161675
 20
82.710235533
 10
294.153212483
 20
110.887150069
 42
0.2679491924309987
 10
291.555136271
 20
112.387150069
 10
259.019237886
 20
112.387150069
 42
0.2679491924309976
 10
256.4211616750001
 20
110.887150069
 10
240.153212483
 20
82.710235533
 42
0.2679491924310006
 10
240.153212483
 20
79.710235533
 10
256.4211616750001
 20
51.53332099680002
 42
0.2679491924309975
 10
259.019237886
 20
50.0333209968
  0
CIRCLE
  5
9D
100
AcDbEntity
  8
Body_Slices
  6
ByLayer
 62
    0
370
   -1
100
AcDbCircle
 10
291.452187079
 20
53.2116342287
 40
1.25
  0
CIRCLE
  5
9E
100
AcDbEntity
  8
Body_Slices
  6
ByLayer
 62
    0
370
   -1
100
AcDbCircle
 10
275.287187079
 20
81.210235533
 40
29
  0
CIRCLE
  5
9F
100
AcDbEntity
  8
Body_Slices
  6
ByLayer
 62
    0
370
   -1
100
AcDbCircle
 10
291.452187079
 20
109.208836837
 40
1.25
  0
CIRCLE
  5
A0
100
AcDbEntity
  8
Body_Slices
  6
ByLayer
 62
    0
370
   -1
100
AcDbCircle
 10
259.122187079
 20
109.208836837
 40
1.25
  0
CIRCLE
  5
A1
100
AcDbEntity
  8
Body_Slices
  6
ByLayer
 62
    0
370
   -1
100
AcDbCircle
 10
259.122187079
 20
53.2116342287
 40
1.25
  0
CIRCLE
  5
A2
100
AcDbEntity
  8
Body_Slices
  6
ByLayer
 62
    0
370
   -1
100
AcDbCircle
 10
242.957187079
 20
81.210235533
 40
1.25
  0
CIRCLE
  5
A3
100
AcDbEntity
  8
Body_Slices
  6
ByLayer
 62
    0
370
   -1
100
AcDbCircle
 10
307.617187079
 20
81.210235533
 40
1.25
  0
ENDBLK
  5
62
330
60
100
AcDbEntity
  8
0
100
AcDbBlockEnd
  0
BLOCK
  5
64
330
63
100
AcDbEntity
  8
0
100
AcDbBlockBegin
  2
MYLAYER004
 70
    0
 10
0
 20
0
  3
MYLAYER004
  1

  0
LWPOLYLINE
  5
A4
100
AcDbEntity
  8
Body_Slices
  6
ByLayer
 62
    0
370
   -1
100
AcDbPolyline
 90
   12
 70
    1
 43
0
 10
385.317531964
 20
34.6410161514
 10
348.781633579
 20
34.6410161514
 42
0.2679491924309991
 10
346.183557368
 20
33.1410161514
 10
327.915608176
 20
1.500000000000004
 42
0.2679491924310008
 10
327.915608176
 20
-1.500000000000003
 10
346.183557368
 20
-33.14101615139999
 42
0.2679491924309991
 10
348.781633579
 20
-34.6410161514
 10
385.317531964
 20
-34.6410161514
 42
0.2679491924309975
 10
387.9156081759999
 20
-33.14101615139998
 10
406.183557368
 20
-1.500000000000005
 42
0.267949192431001
 10
406.183557368
 20
1.500000000000004
 10
387.9156081759999
 20
33.14101615139998
 42
0.2679491924309975
  0
CIRCLE
  5
A5
100
AcDbEntity
  8
Body_Slices
  6
ByLayer
 62
    0
370
   -1
100
AcDbCircle
 10
350.884582772
 20
27.9986013044
 40
1.25
  0
CIRCLE
  5
A6
100
AcDbEntity
  8
Body_Slices
  6
ByLayer
 62
    0
370
   -1
100
AcDbCircle
 10
350.884582772
 20
-27.9986013044
 40
1.25
  0
CIRCLE
  5
A7
100
AcDbEntity
  8
Body_Slices
  6
ByLayer
 62
    0
370
   -1
100
AcDbCircle
 10
334.719582772
 20
0
 40
1.25
  0
CIRCLE
  5
A8
100
AcDbEntity
  8
Body_Slices
  6
ByLayer
 62
    0
370
   -1
100
AcDbCircle
 10
383.214582772
 20
27.9986013044
 40
1.25
  0
CIRCLE
  5
A9
100
AcDbEntity
  8
Body_Slices
  6
ByLayer
 62
    0
370
   -1
100
AcDbCircle
 10
367.049582772
 20
0
 40
24.44
  0
CIRCLE
  5
AA
100
AcDbEntity
  8
Body_Slices
  6
ByLayer
 62
    0
370
   -1
100
AcDbCircle
 10
383.214582772
 20
-27.9986013044
 40
1.25
  0
CIRCLE
  5
AB
100
AcDbEntity
  8
Body_Slices
  6
ByLayer
 62
    0
370
   -1
100
AcDbCircle
 10
399.379582772
 20
0
 40
1.25
  0
ENDBLK
  5
65
330
63
100
AcDbEntity
  8
0
100
AcDbBlockEnd
  0
BLOCK
  5
67
330
66
100
AcDbEntity
  8
0
100
AcDbBlockBegin
  2
MYLAYER003
 70
    0
 10
0
 20
0
  3
MYLAYER003
  1

  0
LWPOLYLINE
  5
AC
100
AcDbEntity
  8
Body_Slices
  6
ByLayer
 62
    0
370
   -1
100
AcDbPolyline
 90
   16
 70
    1
 43
0
 10
267.287187079
 20
-31.1051177665
 10
267.287187079
 20
-38.1051177665
 10
255.596588156
 20
-38.1051177665
 42
-0.2679491924309996
 10
252.132486541
 20
-36.10511776649999
 10
232.441887617
 20
-2
 42
-0.2679491924310001
 10
232.441887617
 20
2
 10
252.132486541
 20
36.10511776649999
 42
-0.2679491924309996
 10
255.596588156
 20
38.1051177665
 10
294.977786002
 20
38.1051177665
 42
-0.2679491924309996
 10
298.441887617
 20
36.10511776649999
 10
318.132486541
 20
1.999999999999988
 42
-0.2679491924309986
 10
318.132486541
 20
-1.999999999999992
 10
298.441887617
 20
-36.10511776649999
 42
-0.2679491924309996
 10
294.977786002
 20
-38.1051177665
 10
283.287187079
 20
-38.1051177665
 10
283.287187079
 20
-31.1051177665
  0
CIRCLE
  5
AD
100
AcDbEntity
  8
Body_Slices
  6
ByLayer
 62
    0
370
   -1
100
AcDbCircle
 10
307.617187079
 20
0
 40
1.25
  0
CIRCLE
  5
AE
100
AcDbEntity
  8
Body_Slices
  6
ByLayer
 62
    0
370
   -1
100
AcDbCircle
 10
259.122187079
 20
27.9986013044
 40
1.25
  0
CIRCLE
  5
AF
100
AcDbEntity
  8
Body_Slices
  6
ByLayer
 62
    0
370
   -1
100
AcDbCircle
 10
291.452187079
 20
-27.9986013044
 40
1.25
  0
CIRCLE
  5
B0
100
AcDbEntity
  8
Body_Slices
  6
ByLayer
 62
    0
370
   -1
100
AcDbCircle
 10
291.452187079
 20
27.9986013044
 40
1.25
  0
CIRCLE
  5
B1
100
AcDbEntity
  8
Body_Slices
  6
ByLayer
 62
    0
370
   -1
100
AcDbCircle
 10
242.957187079
 20
0
 40
1.25
  0
CIRCLE
  5
B2
100
AcDbEntity
  8
Body_Slices
  6
ByLayer
 62
    0
370
   -1
100
AcDbCircle
 10
259.122187079
 20
-27.9986013044
 40
1.25
  0
CIRCLE
  5
B3
100
AcDbEntity
  8
Body_Slices
  6
ByLayer
 62
    0
370
   -1
100
AcDbCircle
 10
275.287187079
 20
0
 40
22.22
  0
ENDBLK
  5
68
330
66
100
AcDbEntity
  8
0
100
AcDbBlockEnd
  0
BLOCK
  5
6A
330
69
100
AcDbEntity
  8
0
100
AcDbBlockBegin
  2
MYLAYER002
 70
    0
 10
0
 20
0
  3
MYLAYER002
  1

  0
LWPOLYLINE
  5
B4
100
AcDbEntity
  8
Body_Slices
  6
ByLayer
 62
    0
370
   -1
100
AcDbPolyline
 90
   24
 70
    1
 43
0
 10
226.370090848
 20
-2.000000000000004
 42
0.2679491924310005
 10
226.370090848
 20
2
 10
206.679491924
 20
36.10511776649999
 42
0.2679491924309996
 10
203.215390309
 20
38.1051177665
 10
163.834192463
 20
38.1051177665
 42
0.2679491924310005
 10
160.370090848
 20
36.10511776650001
 10
140.679491924
 20
2.000000000000001
 42
0.2679491924310002
 10
140.679491924
 20
-2
 10
160.370090848
 20
-36.10511776649999
 42
0.2679491924309996
 10
163.834192463
 20
-38.1051177665
 10
175.524791386
 20
-38.1051177665
 10
175.524791386
 20
-31.1051177665
 10
170.474791386
 20
-31.1051177665
 10
170.474791386
 20
3.29488223348
 10
170.474791386
 20
9.294882233479999
 10
173.474791386
 20
9.294882233479999
 10
183.524791386
 20
9.294882233479999
 10
183.524791386
 20
3.29488223348
 10
196.574791386
 20
3.29488223348
 10
196.574791386
 20
-31.1051177665
 10
191.524791386
 20
-31.1051177665
 10
191.524791386
 20
-38.1051177665
 10
203.215390309
 20
-38.1051177665
 42
0.2679491924309996
 10
206.679491924
 20
-36.10511776649999
  0
CIRCLE
  5
B5
100
AcDbEntity
  8
Body_Slices
  6
ByLayer
 62
    0
370
   -1
100
AcDbCircle
 10
167.359791386
 20
27.9986013044
 40
1.25
  0
CIRCLE
  5
B6
100
AcDbEntity
  8
Body_Slices
  6
ByLayer
 62
    0
370
   -1
100
AcDbCircle
 10
151.194791386
 20
0
 40
1.25
  0
LWPOLYLINE
  5
B7
100
AcDbEntity
  8
Body_Slices
  6
ByLayer
 62
    0
370
   -1
100
AcDbPolyline
 90
    4
 70
    1
 43
0
 10
193.524791386
 20
13.22
 10
193.524791386
 20
22.22
 10
173.524791386
 20
22.22
 10
173.524791386
 20
13.22
  0
CIRCLE
  5
B8
100
AcDbEntity
  8
Body_Slices
  6
ByLayer
 62
    0
370
   -1
100
AcDbCircle
 10
167.359791386
 20
-27.9986013044
 40
1.25
  0
CIRCLE
  5
B9
100
AcDbEntity
  8
Body_Slices
  6
ByLayer
 62
    0
370
   -1
100
AcDbCircle
 10
215.854791386
 20
0
 40
1.25
  0
CIRCLE
  5
BA
100
AcDbEntity
  8
Body_Slices
  6
ByLayer
 62
    0
370
   -1
100
AcDbCircle
 10
199.689791386
 20
27.9986013044
 40
1.25
  0
CIRCLE
  5
BB
100
AcDbEntity
  8
Body_Slices
  6
ByLayer
 62
    0
370
   -1
100
AcDbCircle
 10
199.689791386
 20
-27.9986013044
 40
1.25
  0
ENDBLK
  5
6B
330
69
100
AcDbEntity
  8
0
100
AcDbBlockEnd
  0
ENDSEC
  0
SECTION
  2
ENTITIES
  0
INSERT
  5
BC
100
AcDbEntity
  8
Body_Slices
  6
ByLayer
 62
    0
370
   -1
100
AcDbBlockReference
  2
MYLAYER
 10
0
 20
0
 30
0
 41
1
 42
1
 43
0
 50
0
 70
    1
 71
    1
 44
0
 45
0
  0
INSERT
  5
BD
100
AcDbEntity
  8
Body_Slices
  6
ByLayer
 62
    0
370
   -1
100
AcDbBlockReference
  2
MYLAYER007
 10
0
 20
0
 30
0
 41
1
 42
1
 43
0
 50
0
 70
    1
 71
    1
 44
0
 45
0
  0
INSERT
  5
BE
100
AcDbEntity
  8
Body_Slices
  6
ByLayer
 62
    0
370
   -1
100
AcDbBlockReference
  2
MYLAYER006
 10
0
 20
0
 30
0
 41
1
 42
1
 43
0
 50
0
 70
    1
 71
    1
 44
0
 45
0
  0
INSERT
  5
BF
100
AcDbEntity
  8
Body_Slices
  6
ByLayer
 62
    0
370
   -1
100
AcDbBlockReference
  2
MYLAYER001
 10
0
 20
0
 30
0
 41
1
 42
1
 43
0
 50
0
 70
    1
 71
    1
 44
0
 45
0
  0
INSERT
  5
C0
100
AcDbEntity
  8
Body_Slices
  6
ByLayer
 62
    0
370
   -1
100
AcDbBlockReference
  2
MYLAYER005
 10
0
 20
0
 30
0
 41
1
 42
1
 43
0
 50
0
 70
    1
 71
    1
 44
0
 45
0
  0
INSERT
  5
C1
100
AcDbEntity
  8
Body_Slices
  6
ByLayer
 62
    0
370
   -1
100
AcDbBlockReference
  2
MYLAYER009
 10
0
 20
0
 30
0
 41
1
 42
1
 43
0
 50
0
 70
    1
 71
    1
 44
0
 45
0
  0
INSERT
  5
C2
100
AcDbEntity
  8
Body_Slices
  6
ByLayer
 62
    0
370
   -1
100
AcDbBlockReference
  2
MYLAYER008
 10
0
 20
0
 30
0
 41
1
 42
1
 43
0
 50
0
 70
    1
 71
    1
 44
0
 45
0
  0
INSERT
  5
C3
100
AcDbEntity
  8
Body_Slices
  6
ByLayer
 62
    0
370
   -1
100
AcDbBlockReference
  2
MYLAYER004
 10
0
 20
0
 30
0
 41
1
 42
1
 43
0
 50
0
 70
    1
 71
    1
 44
0
 45
0
  0
INSERT
  5
C4
100
AcDbEntity
  8
Body_Slices
  6
ByLayer
 62
    0
370
   -1
100
AcDbBlockReference
  2
MYLAYER003
 10
0
 20
0
 30
0
 41
1
 42
1
 43
0
 50
0
 70
    1
 71
    1
 44
0
 45
0
  0
INSERT
  5
C5
100
AcDbEntity
  8
Body_Slices
  6
ByLayer
 62
    0
370
   -1
100
AcDbBlockReference
  2
MYLAYER002
 10
0
 20
0
 30
0
 41
1
 42
1
 43
0
 50
0
 70
    1
 71
    1
 44
0
 45
0
  0
ENDSEC
  0
SECTION
  2
OBJECTS
  0
DICTIONARY
  5
C
330
0
100
AcDbDictionary
281
    1
  3
ACAD_GROUP
350
D
  0
DICTIONARY
  5
D
330
C
100
AcDbDictionary
281
    1
  0
ENDSEC
  0
EOF
