  0
SECTION
  2
HEADER
  9
$ACADVER
  1
AC1009
  9
$INSBASE
 10
0.0
 20
0.0
 30
0.0
  9
$EXTMIN
 10
0.0
 20
0.0
 30
0.0
  9
$EXTMAX
 10
0.0
 20
0.0
 30
0.0
  0
ENDSEC
  0
SECTION
  2
TABLES
  0
TABLE
  2
VPORT
 70
0
  0
ENDTAB
  0
TABLE
  2
LTYPE
 70
1
  0
LTYPE
  2
CONTINUOUS
 70
0
  3
Solid line
 72
65
 73
0
 40
0.0
  0
ENDTAB
  0
TABLE
  2
LAYER
 70
1
  0
LAYER
  2
0
 70
64
 62
7
  6
continuous
  0
ENDTAB
  0
TABLE
  2
STYLE
 70
1
  0
STYLE
  2
STANDARD
 70
0
 40
0
 41
1.0
 50
0.0
 71
0
 42
1
 3
ARIAL.TTF
 4

  0
ENDTAB
  0
TABLE
  2
VIEW
 70
0
  0
ENDTAB
  0
ENDSEC
  0
SECTION
  2
BLOCKS
  0
BLOCK
  8
Body_Slices
  2
MYLAYER
 70
0
 10
0.0
 20
0.0
 30
0.0
  3
MYLAYER
  0
POLYLINE
  8
Body_Slices
 62
0
 70
1
 66
1
 10
0.0
 20
0.0
 30
0.0
  0
VERTEX
  8
Body_Slices
 10
19.6905989232
 20
-38.1051177665
 30
0.0
 42
0.267949192431
  0
VERTEX
  8
Body_Slices
 10
23.1547005384
 20
-36.1051177665
 30
0.0
  0
VERTEX
  8
Body_Slices
 10
42.8452994616
 20
-2.0
 30
0.0
 42
0.267949192431
  0
VERTEX
  8
Body_Slices
 10
42.8452994616
 20
2.0
 30
0.0
  0
VERTEX
  8
Body_Slices
 10
23.1547005384
 20
36.1051177665
 30
0.0
 42
0.267949192431
  0
VERTEX
  8
Body_Slices
 10
19.6905989232
 20
38.1051177665
 30
0.0
  0
VERTEX
  8
Body_Slices
 10
-19.6905989232
 20
38.1051177665
 30
0.0
 42
0.267949192431
  0
VERTEX
  8
Body_Slices
 10
-23.1547005384
 20
36.1051177665
 30
0.0
  0
VERTEX
  8
Body_Slices
 10
-42.8452994616
 20
2.0
 30
0.0
 42
0.267949192431
  0
VERTEX
  8
Body_Slices
 10
-42.8452994616
 20
-2.0
 30
0.0
  0
VERTEX
  8
Body_Slices
 10
-23.1547005384
 20
-36.1051177665
 30
0.0
 42
0.267949192431
  0
VERTEX
  8
Body_Slices
 10
-19.6905989232
 20
-38.1051177665
 30
0.0
  0
SEQEND
  8
Body_Slices
  0
CIRCLE
  8
Body_Slices
 62
0
 10
16.165
 20
27.9986013044
 30
0.0
 40
1.25
  0
CIRCLE
  8
Body_Slices
 62
0
 10
-16.165
 20
-27.9986013044
 30
0.0
 40
1.25
  0
CIRCLE
  8
Body_Slices
 62
0
 10
-32.33
 20
0.0
 30
0.0
 40
1.25
  0
CIRCLE
  8
Body_Slices
 62
0
 10
32.33
 20
0.0
 30
0.0
 40
1.25
  0
CIRCLE
  8
Body_Slices
 62
0
 10
-16.165
 20
27.9986013044
 30
0.0
 40
1.25
  0
CIRCLE
  8
Body_Slices
 62
0
 10
16.165
 20
-27.9986013044
 30
0.0
 40
1.25
  0
ENDBLK
  0
BLOCK
  8
Body_Slices
  2
MYLAYER007
 70
0
 10
0.0
 20
0.0
 30
0.0
  3
MYLAYER007
  0
POLYLINE
  8
Body_Slices
 62
0
 70
1
 66
1
 10
0.0
 20
0.0
 30
0.0
  0
VERTEX
  8
Body_Slices
 10
221.658765982
 20
79.710235533
 30
7.1054273576e-15
 42
0.267949192431
  0
VERTEX
  8
Body_Slices
 10
221.658765982
 20
82.710235533
 30
7.1054273576e-15
  0
VERTEX
  8
Body_Slices
 10
203.89081679
 20
113.485226281
 30
7.1054273576e-15
 42
0.267949192431
  0
VERTEX
  8
Body_Slices
 10
201.292740578
 20
114.985226281
 30
7.1054273576e-15
  0
VERTEX
  8
Body_Slices
 10
165.756842194
 20
114.985226281
 30
7.1054273576e-15
 42
0.267949192431
  0
VERTEX
  8
Body_Slices
 10
163.158765982
 20
113.485226281
 30
7.1054273576e-15
  0
VERTEX
  8
Body_Slices
 10
145.39081679
 20
82.710235533
 30
7.1054273576e-15
 42
0.267949192431
  0
VERTEX
  8
Body_Slices
 10
145.39081679
 20
79.710235533
 30
7.1054273576e-15
  0
VERTEX
  8
Body_Slices
 10
163.158765982
 20
48.9352447854
 30
7.1054273576e-15
 42
0.267949192431
  0
VERTEX
  8
Body_Slices
 10
165.756842194
 20
47.4352447854
 30
7.1054273576e-15
  0
VERTEX
  8
Body_Slices
 10
201.292740578
 20
47.4352447854
 30
7.1054273576e-15
 42
0.267949192431
  0
VERTEX
  8
Body_Slices
 10
203.89081679
 20
48.9352447854
 30
7.1054273576e-15
  0
SEQEND
  8
Body_Slices
  0
CIRCLE
  8
Body_Slices
 62
0
 10
183.524791386
 20
81.210235533
 30
7.1054273576e-15
 40
29.0
  0
CIRCLE
  8
Body_Slices
 62
0
 10
199.689791386
 20
109.208836837
 30
7.1054273576e-15
 40
1.25
  0
CIRCLE
  8
Body_Slices
 62
0
 10
199.689791386
 20
53.2116342287
 30
7.1054273576e-15
 40
1.25
  0
CIRCLE
  8
Body_Slices
 62
0
 10
167.359791386
 20
53.2116342287
 30
7.1054273576e-15
 40
1.25
  0
CIRCLE
  8
Body_Slices
 62
0
 10
167.359791386
 20
109.208836837
 30
7.1054273576e-15
 40
1.25
  0
CIRCLE
  8
Body_Slices
 62
0
 10
151.194791386
 20
81.210235533
 30
7.1054273576e-15
 40
1.25
  0
CIRCLE
  8
Body_Slices
 62
0
 10
215.854791386
 20
81.210235533
 30
7.1054273576e-15
 40
1.25
  0
ENDBLK
  0
BLOCK
  8
Body_Slices
  2
MYLAYER006
 70
0
 10
0.0
 20
0.0
 30
0.0
  3
MYLAYER006
  0
POLYLINE
  8
Body_Slices
 62
0
 70
1
 66
1
 10
0.0
 20
0.0
 30
0.0
  0
VERTEX
  8
Body_Slices
 10
128.896370289
 20
79.710235533
 30
0.0
 42
0.267949192431
  0
VERTEX
  8
Body_Slices
 10
128.896370289
 20
82.710235533
 30
0.0
  0
VERTEX
  8
Body_Slices
 10
111.628421097
 20
112.619200877
 30
0.0
 42
0.267949192431
  0
VERTEX
  8
Body_Slices
 10
109.030344885
 20
114.119200877
 30
0.0
  0
VERTEX
  8
Body_Slices
 10
74.4944465005
 20
114.119200877
 30
0.0
 42
0.267949192431
  0
VERTEX
  8
Body_Slices
 10
71.8963702892
 20
112.619200877
 30
0.0
  0
VERTEX
  8
Body_Slices
 10
54.6284210968
 20
82.710235533
 30
0.0
 42
0.267949192431
  0
VERTEX
  8
Body_Slices
 10
54.6284210968
 20
79.710235533
 30
0.0
  0
VERTEX
  8
Body_Slices
 10
71.8963702892
 20
49.8012701892
 30
0.0
 42
0.267949192431
  0
VERTEX
  8
Body_Slices
 10
74.4944465005
 20
48.3012701892
 30
0.0
  0
VERTEX
  8
Body_Slices
 10
109.030344885
 20
48.3012701892
 30
0.0
 42
0.267949192431
  0
VERTEX
  8
Body_Slices
 10
111.628421097
 20
49.8012701892
 30
0.0
  0
SEQEND
  8
Body_Slices
  0
CIRCLE
  8
Body_Slices
 62
0
 10
59.432395693
 20
81.210235533
 30
0.0
 40
1.25
  0
CIRCLE
  8
Body_Slices
 62
0
 10
124.092395693
 20
81.210235533
 30
0.0
 40
1.25
  0
CIRCLE
  8
Body_Slices
 62
0
 10
75.597395693
 20
53.2116342287
 30
0.0
 40
1.25
  0
CIRCLE
  8
Body_Slices
 62
0
 10
107.927395693
 20
109.208836837
 30
0.0
 40
1.25
  0
CIRCLE
  8
Body_Slices
 62
0
 10
91.762395693
 20
81.210235533
 30
0.0
 40
28.0
  0
CIRCLE
  8
Body_Slices
 62
0
 10
107.927395693
 20
53.2116342287
 30
0.0
 40
1.25
  0
CIRCLE
  8
Body_Slices
 62
0
 10
75.597395693
 20
109.208836837
 30
0.0
 40
1.25
  0
ENDBLK
  0
BLOCK
  8
Body_Slices
  2
MYLAYER001
 70
0
 10
0.0
 20
0.0
 30
0.0
  3
MYLAYER001
  0
POLYLINE
  8
Body_Slices
 62
0
 70
1
 66
1
 10
0.0
 20
0.0
 30
0.0
  0
VERTEX
  8
Body_Slices
 10
111.452994616
 20
-38.1051177665
 30
0.0
 42
0.267949192431
  0
VERTEX
  8
Body_Slices
 10
114.917096231
 20
-36.1051177665
 30
0.0
  0
VERTEX
  8
Body_Slices
 10
134.607695155
 20
-2.0
 30
0.0
 42
0.267949192431
  0
VERTEX
  8
Body_Slices
 10
134.607695155
 20
2.0
 30
0.0
  0
VERTEX
  8
Body_Slices
 10
114.917096231
 20
36.1051177665
 30
0.0
 42
0.267949192431
  0
VERTEX
  8
Body_Slices
 10
111.452994616
 20
38.1051177665
 30
0.0
  0
VERTEX
  8
Body_Slices
 10
72.0717967697
 20
38.1051177665
 30
0.0
 42
0.267949192431
  0
VERTEX
  8
Body_Slices
 10
68.6076951546
 20
36.1051177665
 30
0.0
  0
VERTEX
  8
Body_Slices
 10
48.9170962313
 20
2.0
 30
0.0
 42
0.267949192431
  0
VERTEX
  8
Body_Slices
 10
48.9170962313
 20
-2.0
 30
0.0
  0
VERTEX
  8
Body_Slices
 10
68.6076951546
 20
-36.1051177665
 30
0.0
 42
0.267949192431
  0
VERTEX
  8
Body_Slices
 10
72.0717967697
 20
-38.1051177665
 30
0.0
  0
VERTEX
  8
Body_Slices
 10
83.762395693
 20
-38.1051177665
 30
0.0
  0
VERTEX
  8
Body_Slices
 10
83.762395693
 20
-31.1051177665
 30
0.0
  0
VERTEX
  8
Body_Slices
 10
99.762395693
 20
-31.1051177665
 30
0.0
  0
VERTEX
  8
Body_Slices
 10
99.762395693
 20
-38.1051177665
 30
0.0
  0
SEQEND
  8
Body_Slices
  0
POLYLINE
  8
Body_Slices
 62
0
 70
1
 66
1
 10
0.0
 20
0.0
 30
0.0
  0
VERTEX
  8
Body_Slices
 10
78.712395693
 20
6.89488223348
 30
0.0
  0
VERTEX
  8
Body_Slices
 10
78.712395693
 20
3.29488223348
 30
0.0
  0
VERTEX
  8
Body_Slices
 10
78.712395693
 20
-31.1051177665
 30
0.0
  0
VERTEX
  8
Body_Slices
 10
81.712395693
 20
-31.1051177665
 30
0.0
  0
VERTEX
  8
Body_Slices
 10
81.712395693
 20
3.29488223348
 30
0.0
  0
VERTEX
  8
Body_Slices
 10
81.712395693
 20
6.89488223348
 30
0.0
  0
VERTEX
  8
Body_Slices
 10
81.712395693
 20
9.29488223348
 30
0.0
  0
VERTEX
  8
Body_Slices
 10
78.712395693
 20
9.29488223348
 30
0.0
  0
SEQEND
  8
Body_Slices
  0
CIRCLE
  8
Body_Slices
 62
0
 10
107.927395693
 20
-27.9986013044
 30
0.0
 40
1.25
  0
CIRCLE
  8
Body_Slices
 62
0
 10
107.927395693
 20
27.9986013044
 30
0.0
 40
1.25
  0
CIRCLE
  8
Body_Slices
 62
0
 10
124.092395693
 20
0.0
 30
0.0
 40
1.25
  0
CIRCLE
  8
Body_Slices
 62
0
 10
75.597395693
 20
-27.9986013044
 30
0.0
 40
1.25
  0
POLYLINE
  8
Body_Slices
 62
0
 70
1
 66
1
 10
0.0
 20
0.0
 30
0.0
  0
VERTEX
  8
Body_Slices
 10
83.262395693
 20
-20.7051177665
 30
0.0
  0
VERTEX
  8
Body_Slices
 10
100.262395693
 20
-20.7051177665
 30
0.0
  0
VERTEX
  8
Body_Slices
 10
100.262395693
 20
3.29488223348
 30
0.0
  0
VERTEX
  8
Body_Slices
 10
83.262395693
 20
3.29488223348
 30
0.0
  0
SEQEND
  8
Body_Slices
  0
CIRCLE
  8
Body_Slices
 62
0
 10
59.432395693
 20
0.0
 30
0.0
 40
1.25
  0
CIRCLE
  8
Body_Slices
 62
0
 10
75.597395693
 20
27.9986013044
 30
0.0
 40
1.25
  0
ENDBLK
  0
BLOCK
  8
Body_Slices
  2
MYLAYER005
 70
0
 10
0.0
 20
0.0
 30
0.0
  3
MYLAYER005
  0
POLYLINE
  8
Body_Slices
 62
0
 70
1
 66
1
 10
0.0
 20
0.0
 30
0.0
  0
VERTEX
  8
Body_Slices
 10
40.1339745962
 20
79.710235533
 30
0.0
 42
0.267949192431
  0
VERTEX
  8
Body_Slices
 10
40.1339745962
 20
82.710235533
 30
0.0
  0
VERTEX
  8
Body_Slices
 10
21.3660254038
 20
115.217277088
 30
0.0
 42
0.267949192431
  0
VERTEX
  8
Body_Slices
 10
18.7679491924
 20
116.717277088
 30
0.0
  0
VERTEX
  8
Body_Slices
 10
-18.7679491924
 20
116.717277088
 30
0.0
 42
0.267949192431
  0
VERTEX
  8
Body_Slices
 10
-21.3660254038
 20
115.217277088
 30
0.0
  0
VERTEX
  8
Body_Slices
 10
-40.1339745962
 20
82.710235533
 30
0.0
 42
0.267949192431
  0
VERTEX
  8
Body_Slices
 10
-40.1339745962
 20
79.710235533
 30
0.0
  0
VERTEX
  8
Body_Slices
 10
-21.3660254038
 20
47.2031939779
 30
0.0
 42
0.267949192431
  0
VERTEX
  8
Body_Slices
 10
-18.7679491924
 20
45.7031939779
 30
0.0
  0
VERTEX
  8
Body_Slices
 10
18.7679491924
 20
45.7031939779
 30
0.0
 42
0.267949192431
  0
VERTEX
  8
Body_Slices
 10
21.3660254038
 20
47.2031939779
 30
0.0
  0
SEQEND
  8
Body_Slices
  0
CIRCLE
  8
Body_Slices
 62
0
 10
16.165
 20
109.208836837
 30
0.0
 40
1.25
  0
CIRCLE
  8
Body_Slices
 62
0
 10
-16.165
 20
53.2116342287
 30
0.0
 40
1.25
  0
CIRCLE
  8
Body_Slices
 62
0
 10
16.165
 20
53.2116342287
 30
0.0
 40
1.25
  0
CIRCLE
  8
Body_Slices
 62
0
 10
-32.33
 20
81.210235533
 30
0.0
 40
1.25
  0
CIRCLE
  8
Body_Slices
 62
0
 10
0.0
 20
81.210235533
 30
0.0
 40
26.6
  0
CIRCLE
  8
Body_Slices
 62
0
 10
-16.165
 20
109.208836837
 30
0.0
 40
1.25
  0
CIRCLE
  8
Body_Slices
 62
0
 10
32.33
 20
81.210235533
 30
0.0
 40
1.25
  0
ENDBLK
  0
BLOCK
  8
Body_Slices
  2
MYLAYER009
 70
0
 10
0.0
 20
0.0
 30
0.0
  3
MYLAYER009
  0
POLYLINE
  8
Body_Slices
 62
0
 70
1
 66
1
 10
0.0
 20
0.0
 30
0.0
  0
VERTEX
  8
Body_Slices
 10
403.183557368
 20
79.710235533
 30
0.0
 42
0.267949192431
  0
VERTEX
  8
Body_Slices
 10
403.183557368
 20
82.710235533
 30
0.0
  0
VERTEX
  8
Body_Slices
 10
386.415608176
 20
111.753175473
 30
0.0
 42
0.267949192431
  0
VERTEX
  8
Body_Slices
 10
383.817531964
 20
113.253175473
 30
0.0
  0
VERTEX
  8
Body_Slices
 10
350.281633579
 20
113.253175473
 30
0.0
 42
0.267949192431
  0
VERTEX
  8
Body_Slices
 10
347.683557368
 20
111.753175473
 30
0.0
  0
VERTEX
  8
Body_Slices
 10
330.915608176
 20
82.710235533
 30
0.0
 42
0.267949192431
  0
VERTEX
  8
Body_Slices
 10
330.915608176
 20
79.710235533
 30
0.0
  0
VERTEX
  8
Body_Slices
 10
347.683557368
 20
50.667295593
 30
0.0
 42
0.267949192431
  0
VERTEX
  8
Body_Slices
 10
350.281633579
 20
49.167295593
 30
0.0
  0
VERTEX
  8
Body_Slices
 10
383.817531964
 20
49.167295593
 30
0.0
 42
0.267949192431
  0
VERTEX
  8
Body_Slices
 10
386.415608176
 20
50.667295593
 30
0.0
  0
SEQEND
  8
Body_Slices
  0
CIRCLE
  8
Body_Slices
 62
0
 10
334.719582772
 20
81.210235533
 30
0.0
 40
1.25
  0
CIRCLE
  8
Body_Slices
 62
0
 10
399.379582772
 20
81.210235533
 30
0.0
 40
1.25
  0
CIRCLE
  8
Body_Slices
 62
0
 10
350.884582772
 20
53.2116342287
 30
0.0
 40
1.25
  0
CIRCLE
  8
Body_Slices
 62
0
 10
383.214582772
 20
109.208836837
 30
0.0
 40
1.25
  0
CIRCLE
  8
Body_Slices
 62
0
 10
367.049582772
 20
81.210235533
 30
0.0
 40
29.0
  0
CIRCLE
  8
Body_Slices
 62
0
 10
383.214582772
 20
53.2116342287
 30
0.0
 40
1.25
  0
CIRCLE
  8
Body_Slices
 62
0
 10
350.884582772
 20
109.208836837
 30
0.0
 40
1.25
  0
ENDBLK
  0
BLOCK
  8
Body_Slices
  2
MYLAYER008
 70
0
 10
0.0
 20
0.0
 30
0.0
  3
MYLAYER008
  0
POLYLINE
  8
Body_Slices
 62
0
 70
1
 66
1
 10
0.0
 20
0.0
 30
0.0
  0
VERTEX
  8
Body_Slices
 10
291.555136271
 20
50.0333209968
 30
0.0
 42
0.267949192431
  0
VERTEX
  8
Body_Slices
 10
294.153212483
 20
51.5333209968
 30
0.0
  0
VERTEX
  8
Body_Slices
 10
310.421161675
 20
79.710235533
 30
0.0
 42
0.267949192431
  0
VERTEX
  8
Body_Slices
 10
310.421161675
 20
82.710235533
 30
0.0
  0
VERTEX
  8
Body_Slices
 10
294.153212483
 20
110.887150069
 30
0.0
 42
0.267949192431
  0
VERTEX
  8
Body_Slices
 10
291.555136271
 20
112.387150069
 30
0.0
  0
VERTEX
  8
Body_Slices
 10
259.019237886
 20
112.387150069
 30
0.0
 42
0.267949192431
  0
VERTEX
  8
Body_Slices
 10
256.421161675
 20
110.887150069
 30
0.0
  0
VERTEX
  8
Body_Slices
 10
240.153212483
 20
82.710235533
 30
0.0
 42
0.267949192431
  0
VERTEX
  8
Body_Slices
 10
240.153212483
 20
79.710235533
 30
0.0
  0
VERTEX
  8
Body_Slices
 10
256.421161675
 20
51.5333209968
 30
0.0
 42
0.267949192431
  0
VERTEX
  8
Body_Slices
 10
259.019237886
 20
50.0333209968
 30
0.0
  0
SEQEND
  8
Body_Slices
  0
CIRCLE
  8
Body_Slices
 62
0
 10
291.452187079
 20
53.2116342287
 30
0.0
 40
1.25
  0
CIRCLE
  8
Body_Slices
 62
0
 10
275.287187079
 20
81.210235533
 30
0.0
 40
29.0
  0
CIRCLE
  8
Body_Slices
 62
0
 10
291.452187079
 20
109.208836837
 30
0.0
 40
1.25
  0
CIRCLE
  8
Body_Slices
 62
0
 10
259.122187079
 20
109.208836837
 30
0.0
 40
1.25
  0
CIRCLE
  8
Body_Slices
 62
0
 10
259.122187079
 20
53.2116342287
 30
0.0
 40
1.25
  0
CIRCLE
  8
Body_Slices
 62
0
 10
242.957187079
 20
81.210235533
 30
0.0
 40
1.25
  0
CIRCLE
  8
Body_Slices
 62
0
 10
307.617187079
 20
81.210235533
 30
0.0
 40
1.25
  0
ENDBLK
  0
BLOCK
  8
Body_Slices
  2
MYLAYER004
 70
0
 10
0.0
 20
0.0
 30
0.0
  3
MYLAYER004
  0
POLYLINE
  8
Body_Slices
 62
0
 70
1
 66
1
 10
0.0
 20
0.0
 30
0.0
  0
VERTEX
  8
Body_Slices
 10
385.317531964
 20
34.6410161514
 30
0.0
  0
VERTEX
  8
Body_Slices
 10
348.781633579
 20
34.6410161514
 30
0.0
 42
0.267949192431
  0
VERTEX
  8
Body_Slices
 10
346.183557368
 20
33.1410161514
 30
0.0
  0
VERTEX
  8
Body_Slices
 10
327.915608176
 20
1.5
 30
0.0
 42
0.267949192431
  0
VERTEX
  8
Body_Slices
 10
327.915608176
 20
-1.5
 30
0.0
  0
VERTEX
  8
Body_Slices
 10
346.183557368
 20
-33.1410161514
 30
0.0
 42
0.267949192431
  0
VERTEX
  8
Body_Slices
 10
348.781633579
 20
-34.6410161514
 30
0.0
  0
VERTEX
  8
Body_Slices
 10
385.317531964
 20
-34.6410161514
 30
0.0
 42
0.267949192431
  0
VERTEX
  8
Body_Slices
 10
387.915608176
 20
-33.1410161514
 30
0.0
  0
VERTEX
  8
Body_Slices
 10
406.183557368
 20
-1.5
 30
0.0
 42
0.267949192431
  0
VERTEX
  8
Body_Slices
 10
406.183557368
 20
1.5
 30
0.0
  0
VERTEX
  8
Body_Slices
 10
387.915608176
 20
33.1410161514
 30
0.0
 42
0.267949192431
  0
SEQEND
  8
Body_Slices
  0
CIRCLE
  8
Body_Slices
 62
0
 10
350.884582772
 20
27.9986013044
 30
0.0
 40
1.25
  0
CIRCLE
  8
Body_Slices
 62
0
 10
350.884582772
 20
-27.9986013044
 30
0.0
 40
1.25
  0
CIRCLE
  8
Body_Slices
 62
0
 10
334.719582772
 20
0.0
 30
0.0
 40
1.25
  0
CIRCLE
  8
Body_Slices
 62
0
 10
383.214582772
 20
27.9986013044
 30
0.0
 40
1.25
  0
CIRCLE
  8
Body_Slices
 62
0
 10
367.049582772
 20
0.0
 30
0.0
 40
24.44
  0
CIRCLE
  8
Body_Slices
 62
0
 10
383.214582772
 20
-27.9986013044
 30
0.0
 40
1.25
  0
CIRCLE
  8
Body_Slices
 62
0
 10
399.379582772
 20
0.0
 30
0.0
 40
1.25
  0
ENDBLK
  0
BLOCK
  8
Body_Slices
  2
MYLAYER003
 70
0
 10
0.0
 20
0.0
 30
0.0
  3
MYLAYER003
  0
POLYLINE
  8
Body_Slices
 62
0
 70
1
 66
1
 10
0.0
 20
0.0
 30
0.0
  0
VERTEX
  8
Body_Slices
 10
267.287187079
 20
-31.1051177665
 30
0.0
  0
VERTEX
  8
Body_Slices
 10
267.287187079
 20
-38.1051177665
 30
0.0
  0
VERTEX
  8
Body_Slices
 10
255.596588156
 20
-38.1051177665
 30
0.0
 42
-0.267949192431
  0
VERTEX
  8
Body_Slices
 10
252.132486541
 20
-36.1051177665
 30
0.0
  0
VERTEX
  8
Body_Slices
 10
232.441887617
 20
-2.0
 30
0.0
 42
-0.267949192431
  0
VERTEX
  8
Body_Slices
 10
232.441887617
 20
2.0
 30
0.0
  0
VERTEX
  8
Body_Slices
 10
252.132486541
 20
36.1051177665
 30
0.0
 42
-0.267949192431
  0
VERTEX
  8
Body_Slices
 10
255.596588156
 20
38.1051177665
 30
0.0
  0
VERTEX
  8
Body_Slices
 10
294.977786002
 20
38.1051177665
 30
0.0
 42
-0.267949192431
  0
VERTEX
  8
Body_Slices
 10
298.441887617
 20
36.1051177665
 30
0.0
  0
VERTEX
  8
Body_Slices
 10
318.132486541
 20
2.0
 30
0.0
 42
-0.267949192431
  0
VERTEX
  8
Body_Slices
 10
318.132486541
 20
-2.0
 30
0.0
  0
VERTEX
  8
Body_Slices
 10
298.441887617
 20
-36.1051177665
 30
0.0
 42
-0.267949192431
  0
VERTEX
  8
Body_Slices
 10
294.977786002
 20
-38.1051177665
 30
0.0
  0
VERTEX
  8
Body_Slices
 10
283.287187079
 20
-38.1051177665
 30
0.0
  0
VERTEX
  8
Body_Slices
 10
283.287187079
 20
-31.1051177665
 30
0.0
  0
SEQEND
  8
Body_Slices
  0
CIRCLE
  8
Body_Slices
 62
0
 10
307.617187079
 20
0.0
 30
0.0
 40
1.25
  0
CIRCLE
  8
Body_Slices
 62
0
 10
259.122187079
 20
27.9986013044
 30
0.0
 40
1.25
  0
CIRCLE
  8
Body_Slices
 62
0
 10
291.452187079
 20
-27.9986013044
 30
0.0
 40
1.25
  0
CIRCLE
  8
Body_Slices
 62
0
 10
291.452187079
 20
27.9986013044
 30
0.0
 40
1.25
  0
CIRCLE
  8
Body_Slices
 62
0
 10
242.957187079
 20
0.0
 30
0.0
 40
1.25
  0
CIRCLE
  8
Body_Slices
 62
0
 10
259.122187079
 20
-27.9986013044
 30
0.0
 40
1.25
  0
CIRCLE
  8
Body_Slices
 62
0
 10
275.287187079
 20
0.0
 30
0.0
 40
22.22
  0
ENDBLK
  0
BLOCK
  8
Body_Slices
  2
MYLAYER002
 70
0
 10
0.0
 20
0.0
 30
0.0
  3
MYLAYER002
  0
POLYLINE
  8
Body_Slices
 62
0
 70
1
 66
1
 10
0.0
 20
0.0
 30
0.0
  0
VERTEX
  8
Body_Slices
 10
226.370090848
 20
-2.0
 30
3.5527136788e-15
 42
0.267949192431
  0
VERTEX
  8
Body_Slices
 10
226.370090848
 20
2.0
 30
3.5527136788e-15
  0
VERTEX
  8
Body_Slices
 10
206.679491924
 20
36.1051177665
 30
3.5527136788e-15
 42
0.267949192431
  0
VERTEX
  8
Body_Slices
 10
203.215390309
 20
38.1051177665
 30
3.5527136788e-15
  0
VERTEX
  8
Body_Slices
 10
163.834192463
 20
38.1051177665
 30
3.5527136788e-15
 42
0.267949192431
  0
VERTEX
  8
Body_Slices
 10
160.370090848
 20
36.1051177665
 30
3.5527136788e-15
  0
VERTEX
  8
Body_Slices
 10
140.679491924
 20
2.0
 30
3.5527136788e-15
 42
0.267949192431
  0
VERTEX
  8
Body_Slices
 10
140.679491924
 20
-2.0
 30
3.5527136788e-15
  0
VERTEX
  8
Body_Slices
 10
160.370090848
 20
-36.1051177665
 30
3.5527136788e-15
 42
0.267949192431
  0
VERTEX
  8
Body_Slices
 10
163.834192463
 20
-38.1051177665
 30
3.5527136788e-15
  0
VERTEX
  8
Body_Slices
 10
175.524791386
 20
-38.1051177665
 30
3.5527136788e-15
  0
VERTEX
  8
Body_Slices
 10
175.524791386
 20
-31.1051177665
 30
3.5527136788e-15
  0
VERTEX
  8
Body_Slices
 10
170.474791386
 20
-31.1051177665
 30
3.5527136788e-15
  0
VERTEX
  8
Body_Slices
 10
170.474791386
 20
3.29488223348
 30
3.5527136788e-15
  0
VERTEX
  8
Body_Slices
 10
170.474791386
 20
9.29488223348
 30
3.5527136788e-15
  0
VERTEX
  8
Body_Slices
 10
173.474791386
 20
9.29488223348
 30
3.5527136788e-15
  0
VERTEX
  8
Body_Slices
 10
183.524791386
 20
9.29488223348
 30
3.5527136788e-15
  0
VERTEX
  8
Body_Slices
 10
183.524791386
 20
3.29488223348
 30
3.5527136788e-15
  0
VERTEX
  8
Body_Slices
 10
196.574791386
 20
3.29488223348
 30
3.5527136788e-15
  0
VERTEX
  8
Body_Slices
 10
196.574791386
 20
-31.1051177665
 30
3.5527136788e-15
  0
VERTEX
  8
Body_Slices
 10
191.524791386
 20
-31.1051177665
 30
3.5527136788e-15
  0
VERTEX
  8
Body_Slices
 10
191.524791386
 20
-38.1051177665
 30
3.5527136788e-15
  0
VERTEX
  8
Body_Slices
 10
203.215390309
 20
-38.1051177665
 30
3.5527136788e-15
 42
0.267949192431
  0
VERTEX
  8
Body_Slices
 10
206.679491924
 20
-36.1051177665
 30
3.5527136788e-15
  0
SEQEND
  8
Body_Slices
  0
CIRCLE
  8
Body_Slices
 62
0
 10
167.359791386
 20
27.9986013044
 30
3.5527136788e-15
 40
1.25
  0
CIRCLE
  8
Body_Slices
 62
0
 10
151.194791386
 20
0.0
 30
3.5527136788e-15
 40
1.25
  0
POLYLINE
  8
Body_Slices
 62
0
 70
1
 66
1
 10
0.0
 20
0.0
 30
0.0
  0
VERTEX
  8
Body_Slices
 10
193.524791386
 20
13.22
 30
3.5527136788e-15
  0
VERTEX
  8
Body_Slices
 10
193.524791386
 20
22.22
 30
3.5527136788e-15
  0
VERTEX
  8
Body_Slices
 10
173.524791386
 20
22.22
 30
3.5527136788e-15
  0
VERTEX
  8
Body_Slices
 10
173.524791386
 20
13.22
 30
3.5527136788e-15
  0
SEQEND
  8
Body_Slices
  0
CIRCLE
  8
Body_Slices
 62
0
 10
167.359791386
 20
-27.9986013044
 30
3.5527136788e-15
 40
1.25
  0
CIRCLE
  8
Body_Slices
 62
0
 10
215.854791386
 20
0.0
 30
3.5527136788e-15
 40
1.25
  0
CIRCLE
  8
Body_Slices
 62
0
 10
199.689791386
 20
27.9986013044
 30
3.5527136788e-15
 40
1.25
  0
CIRCLE
  8
Body_Slices
 62
0
 10
199.689791386
 20
-27.9986013044
 30
3.5527136788e-15
 40
1.25
  0
ENDBLK
  0
ENDSEC
  0
SECTION
  2
ENTITIES
  0
INSERT
  2
MYLAYER
  8
Body_Slices
 62
0
 10
0.0
 20
0.0
 30
0.0
  0
INSERT
  2
MYLAYER007
  8
Body_Slices
 62
0
 10
0.0
 20
0.0
 30
0.0
  0
INSERT
  2
MYLAYER006
  8
Body_Slices
 62
0
 10
0.0
 20
0.0
 30
0.0
  0
INSERT
  2
MYLAYER001
  8
Body_Slices
 62
0
 10
0.0
 20
0.0
 30
0.0
  0
INSERT
  2
MYLAYER005
  8
Body_Slices
 62
0
 10
0.0
 20
0.0
 30
0.0
  0
INSERT
  2
MYLAYER009
  8
Body_Slices
 62
0
 10
0.0
 20
0.0
 30
0.0
  0
INSERT
  2
MYLAYER008
  8
Body_Slices
 62
0
 10
0.0
 20
0.0
 30
0.0
  0
INSERT
  2
MYLAYER004
  8
Body_Slices
 62
0
 10
0.0
 20
0.0
 30
0.0
  0
INSERT
  2
MYLAYER003
  8
Body_Slices
 62
0
 10
0.0
 20
0.0
 30
0.0
  0
INSERT
  2
MYLAYER002
  8
Body_Slices
 62
0
 10
0.0
 20
0.0
 30
0.0
  0
ENDSEC
  0
EOF
