  0
SECTION
  2
HEADER
  9
$ACADVER
  1
AC1014
  9
$HANDSEED
  5
FFFF
  9
$MEASUREMENT
 70
     1
  0
ENDSEC
  0
SECTION
  2
TABLES
  0
TABLE
  2
VPORT
  5
8
330
0
100
AcDbSymbolTable
 70
     4
  0
VPORT
  5
2E
330
8
100
AcDbSymbolTableRecord
100
AcDbViewportTableRecord
  2
*ACTIVE
 70
     0
 10
0.0
 20
0.0
 11
1.0
 21
1.0
 12
210.0
 22
148.5
 13
0.0
 23
0.0
 14
10.0
 24
10.0
 15
10.0
 25
10.0
 16
0.0
 26
0.0
 36
1.0
 17
0.0
 27
0.0
 37
0.0
 40
341.0
 41
1.24
 42
50.0
 43
0.0
 44
0.0
 50
0.0
 51
0.0
 71
     0
 72
   100
 73
     1
 74
     3
 75
     0
 76
     0
 77
     0
 78
     0
  0
ENDTAB
  0
TABLE
  2
LTYPE
  5
5
330
0
100
AcDbSymbolTable
 70
     1
  0
LTYPE
  5
14
330
5
100
AcDbSymbolTableRecord
100
AcDbLinetypeTableRecord
  2
BYBLOCK
 70
     0
  3

 72
    65
 73
     0
 40
0.0
  0
LTYPE
  5
15
330
5
100
AcDbSymbolTableRecord
100
AcDbLinetypeTableRecord
  2
BYLAYER
 70
     0
  3

 72
    65
 73
     0
 40
0.0
  0
LTYPE
  5
16
330
5
100
AcDbSymbolTableRecord
100
AcDbLinetypeTableRecord
  2
CONTINUOUS
 70
     0
  3
Solid line
 72
    65
 73
     0
 40
0.0
  0
ENDTAB
  0
TABLE
  2
LAYER
  5
2
100
AcDbSymbolTable
 70
2
  0
LAYER
  5
50
100
AcDbSymbolTableRecord
100
AcDbLayerTableRecord
  2
0
 70
0
  6
CONTINUOUS
  0
LAYER
  5
51
100
AcDbSymbolTableRecord
100
AcDbLayerTableRecord
  2
Layer_1
 70
0
  6
CONTINUOUS
  0
ENDTAB
  0
TABLE
  2
STYLE
  5
3
330
0
100
AcDbSymbolTable
 70
     1
  0
STYLE
  5
11
330
3
100
AcDbSymbolTableRecord
100
AcDbTextStyleTableRecord
  2
STANDARD
 70
     0
 40
0.0
 41
1.0
 50
0.0
 71
     0
 42
2.5
  3
txt
  4

  0
ENDTAB
  0
TABLE
  2
VIEW
  5
6
330
0
100
AcDbSymbolTable
 70
     0
  0
ENDTAB
  0
TABLE
  2
UCS
  5
7
330
0
100
AcDbSymbolTable
 70
     0
  0
ENDTAB
  0
TABLE
  2
APPID
  5
9
330
0
100
AcDbSymbolTable
 70
     2
  0
APPID
  5
12
330
9
100
AcDbSymbolTableRecord
100
AcDbRegAppTableRecord
  2
ACAD
 70
     0
  0
ENDTAB
  0
TABLE
  2
DIMSTYLE
  5
A
330
0
100
AcDbSymbolTable
 70
     1
  0
DIMSTYLE
105
27
330
A
100
AcDbSymbolTableRecord
100
AcDbDimStyleTableRecord
  2
ISO-25
 70
     0
  3

  4

  5

  6

  7

 40
1.0
 41
2.5
 42
0.625
 43
3.75
 44
1.25
 45
0.0
 46
0.0
 47
0.0
 48
0.0
140
2.5
141
2.5
142
0.0
143
0.03937007874016
144
1.0
145
0.0
146
1.0
147
0.625
 71
     0
 72
     0
 73
     0
 74
     0
 75
     0
 76
     0
 77
     1
 78
     8
170
     0
171
     3
172
     1
173
     0
174
     0
175
     0
176
     0
177
     0
178
     0
270
     2
271
     2
272
     2
273
     2
274
     3
340
11
275
     0
280
     0
281
     0
282
     0
283
     0
284
     8
285
     0
286
     0
287
     3
288
     0
  0
ENDTAB
  0
TABLE
  2
BLOCK_RECORD
  5
1
330
0
100
AcDbSymbolTable
 70
     1
  0
BLOCK_RECORD
  5
1F
330
1
100
AcDbSymbolTableRecord
100
AcDbBlockTableRecord
  2
*MODEL_SPACE
  0
BLOCK_RECORD
  5
1B
330
1
100
AcDbSymbolTableRecord
100
AcDbBlockTableRecord
  2
*PAPER_SPACE
  0
ENDTAB
  0
ENDSEC
  0
SECTION
  2
BLOCKS
  0
BLOCK
  5
20
330
1F
100
AcDbEntity
  8
0
100
AcDbBlockBegin
  2
*MODEL_SPACE
 70
     0
 10
0.0
 20
0.0
 30
0.0
  3
*MODEL_SPACE
  1

  0
ENDBLK
  5
21
330
1F
100
AcDbEntity
  8
0
100
AcDbBlockEnd
  0
BLOCK
  5
1C
330
1B
100
AcDbEntity
 67
     1
  8
0
100
AcDbBlockBegin
  2
*PAPER_SPACE
  1

  0
ENDBLK
  5
1D
330
1B
100
AcDbEntity
 67
     1
  8
0
100
AcDbBlockEnd
  0
ENDSEC
  0
SECTION
  2
ENTITIES
  0
LINE
  5
100
100
AcDbEntity
  8
Layer_1
 62
7
100
AcDbLine
 10
100.910390
 20
98.371634
 30
0.0
 11
137.446290
 21
98.371634
 31
0.0
  0
SPLINE
  5
101
100
AcDbEntity
  8
Layer_1
 62
7
100
AcDbSpline
 70
8
 71
3
 72
8
 73
4
 74
0
 40
0
 40
0
 40
0
 40
0
 40
1
 40
1
 40
1
 40
1
 10
137.446290
 20
98.371634
 30
0.0
 10
138.518088
 20
98.371633
 30
0.0
 10
139.508471
 20
98.943430
 30
0.0
 10
140.044370
 20
99.871634
 30
0.0
  0
SPLINE
  5
102
100
AcDbEntity
  8
Layer_1
 62
7
100
AcDbSpline
 70
8
 71
3
 72
8
 73
4
 74
0
 40
0
 40
0
 40
0
 40
0
 40
1
 40
1
 40
1
 40
1
 10
140.044370
 20
99.871634
 30
0.0
 10
140.044370
 20
99.871634
 30
0.0
 10
158.312320
 20
131.512644
 30
0.0
 10
158.312320
 20
131.512644
 30
0.0
  0
SPLINE
  5
103
100
AcDbEntity
  8
Layer_1
 62
7
100
AcDbSpline
 70
8
 71
3
 72
8
 73
4
 74
0
 40
0
 40
0
 40
0
 40
0
 40
1
 40
1
 40
1
 40
1
 10
158.312320
 20
131.512644
 30
0.0
 10
158.848218
 20
132.440847
 30
0.0
 10
158.848218
 20
133.584441
 30
0.0
 10
158.312320
 20
134.512644
 30
0.0
  0
LINE
  5
104
100
AcDbEntity
  8
Layer_1
 62
7
100
AcDbLine
 10
158.312320
 20
134.512644
 30
0.0
 11
140.044370
 21
166.153668
 31
0.0
  0
SPLINE
  5
105
100
AcDbEntity
  8
Layer_1
 62
7
100
AcDbSpline
 70
8
 71
3
 72
8
 73
4
 74
0
 40
0
 40
0
 40
0
 40
0
 40
1
 40
1
 40
1
 40
1
 10
140.044370
 20
166.153668
 30
0.0
 10
139.508471
 20
167.081872
 30
0.0
 10
138.518088
 20
167.653669
 30
0.0
 10
137.446290
 20
167.653668
 30
0.0
  0
LINE
  5
106
100
AcDbEntity
  8
Layer_1
 62
7
100
AcDbLine
 10
137.446290
 20
167.653668
 30
0.0
 11
100.910390
 21
167.653668
 31
0.0
  0
SPLINE
  5
107
100
AcDbEntity
  8
Layer_1
 62
7
100
AcDbSpline
 70
8
 71
3
 72
8
 73
4
 74
0
 40
0
 40
0
 40
0
 40
0
 40
1
 40
1
 40
1
 40
1
 10
100.910390
 20
167.653668
 30
0.0
 10
99.838595
 20
167.653666
 30
0.0
 10
98.848217
 20
167.081869
 30
0.0
 10
98.312320
 20
166.153668
 30
0.0
  0
LINE
  5
108
100
AcDbEntity
  8
Layer_1
 62
7
100
AcDbLine
 10
98.312320
 20
166.153668
 30
0.0
 11
80.044370
 21
134.512644
 31
0.0
  0
SPLINE
  5
109
100
AcDbEntity
  8
Layer_1
 62
7
100
AcDbSpline
 70
8
 71
3
 72
8
 73
4
 74
0
 40
0
 40
0
 40
0
 40
0
 40
1
 40
1
 40
1
 40
1
 10
80.044370
 20
134.512644
 30
0.0
 10
79.508472
 20
133.584441
 30
0.0
 10
79.508472
 20
132.440847
 30
0.0
 10
80.044370
 20
131.512644
 30
0.0
  0
LINE
  5
10a
100
AcDbEntity
  8
Layer_1
 62
7
100
AcDbLine
 10
80.044370
 20
131.512644
 30
0.0
 11
98.312320
 21
99.871634
 31
0.0
  0
SPLINE
  5
10b
100
AcDbEntity
  8
Layer_1
 62
7
100
AcDbSpline
 70
8
 71
3
 72
8
 73
4
 74
0
 40
0
 40
0
 40
0
 40
0
 40
1
 40
1
 40
1
 40
1
 10
98.312320
 20
99.871634
 30
0.0
 10
98.848217
 20
98.943433
 30
0.0
 10
99.838595
 20
98.371636
 30
0.0
 10
100.910390
 20
98.371634
 30
0.0
  0
LINE
  5
10c
100
AcDbEntity
  8
Layer_1
 62
7
100
AcDbLine
 10
100.910390
 20
98.371634
 30
0.0
 11
100.910390
 21
98.371634
 31
0.0
  0
SPLINE
  5
10d
100
AcDbEntity
  8
Layer_1
 62
7
100
AcDbSpline
 70
8
 71
3
 72
8
 73
4
 74
0
 40
0
 40
0
 40
0
 40
0
 40
1
 40
1
 40
1
 40
1
 10
99.219183
 20
133.012644
 30
0.0
 10
99.219183
 20
140.143368
 30
0.0
 10
103.023379
 20
146.732428
 30
0.0
 10
109.198767
 20
150.297790
 30
0.0
  0
SPLINE
  5
10e
100
AcDbEntity
  8
Layer_1
 62
7
100
AcDbSpline
 70
8
 71
3
 72
8
 73
4
 74
0
 40
0
 40
0
 40
0
 40
0
 40
1
 40
1
 40
1
 40
1
 10
109.198767
 20
150.297790
 30
0.0
 10
115.374154
 20
153.863151
 30
0.0
 10
122.982546
 20
153.863151
 30
0.0
 10
129.157934
 20
150.297790
 30
0.0
  0
SPLINE
  5
10f
100
AcDbEntity
  8
Layer_1
 62
7
100
AcDbSpline
 70
8
 71
3
 72
8
 73
4
 74
0
 40
0
 40
0
 40
0
 40
0
 40
1
 40
1
 40
1
 40
1
 10
129.157934
 20
150.297790
 30
0.0
 10
135.333321
 20
146.732428
 30
0.0
 10
139.137517
 20
140.143368
 30
0.0
 10
139.137517
 20
133.012644
 30
0.0
  0
SPLINE
  5
110
100
AcDbEntity
  8
Layer_1
 62
7
100
AcDbSpline
 70
8
 71
3
 72
8
 73
4
 74
0
 40
0
 40
0
 40
0
 40
0
 40
1
 40
1
 40
1
 40
1
 10
139.137517
 20
133.012644
 30
0.0
 10
139.137517
 20
125.881920
 30
0.0
 10
135.333321
 20
119.292860
 30
0.0
 10
129.157934
 20
115.727498
 30
0.0
  0
SPLINE
  5
111
100
AcDbEntity
  8
Layer_1
 62
7
100
AcDbSpline
 70
8
 71
3
 72
8
 73
4
 74
0
 40
0
 40
0
 40
0
 40
0
 40
1
 40
1
 40
1
 40
1
 10
129.157934
 20
115.727498
 30
0.0
 10
122.982546
 20
112.162137
 30
0.0
 10
115.374154
 20
112.162137
 30
0.0
 10
109.198767
 20
115.727498
 30
0.0
  0
SPLINE
  5
112
100
AcDbEntity
  8
Layer_1
 62
7
100
AcDbSpline
 70
8
 71
3
 72
8
 73
4
 74
0
 40
0
 40
0
 40
0
 40
0
 40
1
 40
1
 40
1
 40
1
 10
109.198767
 20
115.727498
 30
0.0
 10
103.023379
 20
119.292860
 30
0.0
 10
99.219183
 20
125.881920
 30
0.0
 10
99.219183
 20
133.012644
 30
0.0
  0
LINE
  5
113
100
AcDbEntity
  8
Layer_1
 62
7
100
AcDbLine
 10
99.219183
 20
133.012644
 30
0.0
 11
99.219183
 21
133.012644
 31
0.0
  0
SPLINE
  5
114
100
AcDbEntity
  8
Layer_1
 62
7
100
AcDbSpline
 70
8
 71
3
 72
8
 73
4
 74
0
 40
0
 40
0
 40
0
 40
0
 40
1
 40
1
 40
1
 40
1
 10
133.934706
 20
105.014044
 30
0.0
 10
133.934706
 20
105.517308
 30
0.0
 10
134.203194
 20
105.982342
 30
0.0
 10
134.639033
 20
106.233974
 30
0.0
  0
SPLINE
  5
115
100
AcDbEntity
  8
Layer_1
 62
7
100
AcDbSpline
 70
8
 71
3
 72
8
 73
4
 74
0
 40
0
 40
0
 40
0
 40
0
 40
1
 40
1
 40
1
 40
1
 10
134.639033
 20
106.233974
 30
0.0
 10
135.074872
 20
106.485606
 30
0.0
 10
135.611848
 20
106.485606
 30
0.0
 10
136.047687
 20
106.233974
 30
0.0
  0
SPLINE
  5
116
100
AcDbEntity
  8
Layer_1
 62
7
100
AcDbSpline
 70
8
 71
3
 72
8
 73
4
 74
0
 40
0
 40
0
 40
0
 40
0
 40
1
 40
1
 40
1
 40
1
 10
136.047687
 20
106.233974
 30
0.0
 10
136.483526
 20
105.982342
 30
0.0
 10
136.752014
 20
105.517308
 30
0.0
 10
136.752014
 20
105.014044
 30
0.0
  0
SPLINE
  5
117
100
AcDbEntity
  8
Layer_1
 62
7
100
AcDbSpline
 70
8
 71
3
 72
8
 73
4
 74
0
 40
0
 40
0
 40
0
 40
0
 40
1
 40
1
 40
1
 40
1
 10
136.752014
 20
105.014044
 30
0.0
 10
136.752014
 20
104.510780
 30
0.0
 10
136.483526
 20
104.045746
 30
0.0
 10
136.047687
 20
103.794114
 30
0.0
  0
SPLINE
  5
118
100
AcDbEntity
  8
Layer_1
 62
7
100
AcDbSpline
 70
8
 71
3
 72
8
 73
4
 74
0
 40
0
 40
0
 40
0
 40
0
 40
1
 40
1
 40
1
 40
1
 10
136.047687
 20
103.794114
 30
0.0
 10
135.611848
 20
103.542482
 30
0.0
 10
135.074872
 20
103.542482
 30
0.0
 10
134.639033
 20
103.794114
 30
0.0
  0
SPLINE
  5
119
100
AcDbEntity
  8
Layer_1
 62
7
100
AcDbSpline
 70
8
 71
3
 72
8
 73
4
 74
0
 40
0
 40
0
 40
0
 40
0
 40
1
 40
1
 40
1
 40
1
 10
134.639033
 20
103.794114
 30
0.0
 10
134.203194
 20
104.045746
 30
0.0
 10
133.934706
 20
104.510780
 30
0.0
 10
133.934706
 20
105.014044
 30
0.0
  0
LINE
  5
11a
100
AcDbEntity
  8
Layer_1
 62
7
100
AcDbLine
 10
133.934706
 20
105.014044
 30
0.0
 11
133.934706
 21
105.014044
 31
0.0
  0
SPLINE
  5
11b
100
AcDbEntity
  8
Layer_1
 62
7
100
AcDbSpline
 70
8
 71
3
 72
8
 73
4
 74
0
 40
0
 40
0
 40
0
 40
0
 40
1
 40
1
 40
1
 40
1
 10
133.934706
 20
161.011248
 30
0.0
 10
133.934706
 20
161.514512
 30
0.0
 10
134.203194
 20
161.979546
 30
0.0
 10
134.639033
 20
162.231178
 30
0.0
  0
SPLINE
  5
11c
100
AcDbEntity
  8
Layer_1
 62
7
100
AcDbSpline
 70
8
 71
3
 72
8
 73
4
 74
0
 40
0
 40
0
 40
0
 40
0
 40
1
 40
1
 40
1
 40
1
 10
134.639033
 20
162.231178
 30
0.0
 10
135.074872
 20
162.482810
 30
0.0
 10
135.611848
 20
162.482810
 30
0.0
 10
136.047687
 20
162.231178
 30
0.0
  0
SPLINE
  5
11d
100
AcDbEntity
  8
Layer_1
 62
7
100
AcDbSpline
 70
8
 71
3
 72
8
 73
4
 74
0
 40
0
 40
0
 40
0
 40
0
 40
1
 40
1
 40
1
 40
1
 10
136.047687
 20
162.231178
 30
0.0
 10
136.483526
 20
161.979546
 30
0.0
 10
136.752014
 20
161.514512
 30
0.0
 10
136.752014
 20
161.011248
 30
0.0
  0
SPLINE
  5
11e
100
AcDbEntity
  8
Layer_1
 62
7
100
AcDbSpline
 70
8
 71
3
 72
8
 73
4
 74
0
 40
0
 40
0
 40
0
 40
0
 40
1
 40
1
 40
1
 40
1
 10
136.752014
 20
161.011248
 30
0.0
 10
136.752014
 20
160.507984
 30
0.0
 10
136.483526
 20
160.042950
 30
0.0
 10
136.047687
 20
159.791318
 30
0.0
  0
SPLINE
  5
11f
100
AcDbEntity
  8
Layer_1
 62
7
100
AcDbSpline
 70
8
 71
3
 72
8
 73
4
 74
0
 40
0
 40
0
 40
0
 40
0
 40
1
 40
1
 40
1
 40
1
 10
136.047687
 20
159.791318
 30
0.0
 10
135.611848
 20
159.539686
 30
0.0
 10
135.074872
 20
159.539686
 30
0.0
 10
134.639033
 20
159.791318
 30
0.0
  0
SPLINE
  5
120
100
AcDbEntity
  8
Layer_1
 62
7
100
AcDbSpline
 70
8
 71
3
 72
8
 73
4
 74
0
 40
0
 40
0
 40
0
 40
0
 40
1
 40
1
 40
1
 40
1
 10
134.639033
 20
159.791318
 30
0.0
 10
134.203194
 20
160.042950
 30
0.0
 10
133.934706
 20
160.507984
 30
0.0
 10
133.934706
 20
161.011248
 30
0.0
  0
LINE
  5
121
100
AcDbEntity
  8
Layer_1
 62
7
100
AcDbLine
 10
133.934706
 20
161.011248
 30
0.0
 11
133.934706
 21
161.011248
 31
0.0
  0
SPLINE
  5
122
100
AcDbEntity
  8
Layer_1
 62
7
100
AcDbSpline
 70
8
 71
3
 72
8
 73
4
 74
0
 40
0
 40
0
 40
0
 40
0
 40
1
 40
1
 40
1
 40
1
 10
150.099716
 20
133.012644
 30
0.0
 10
150.099716
 20
133.515908
 30
0.0
 10
150.368204
 20
133.980942
 30
0.0
 10
150.804043
 20
134.232574
 30
0.0
  0
SPLINE
  5
123
100
AcDbEntity
  8
Layer_1
 62
7
100
AcDbSpline
 70
8
 71
3
 72
8
 73
4
 74
0
 40
0
 40
0
 40
0
 40
0
 40
1
 40
1
 40
1
 40
1
 10
150.804043
 20
134.232574
 30
0.0
 10
151.239882
 20
134.484206
 30
0.0
 10
151.776858
 20
134.484206
 30
0.0
 10
152.212697
 20
134.232574
 30
0.0
  0
SPLINE
  5
124
100
AcDbEntity
  8
Layer_1
 62
7
100
AcDbSpline
 70
8
 71
3
 72
8
 73
4
 74
0
 40
0
 40
0
 40
0
 40
0
 40
1
 40
1
 40
1
 40
1
 10
152.212697
 20
134.232574
 30
0.0
 10
152.648536
 20
133.980942
 30
0.0
 10
152.917024
 20
133.515908
 30
0.0
 10
152.917024
 20
133.012644
 30
0.0
  0
SPLINE
  5
125
100
AcDbEntity
  8
Layer_1
 62
7
100
AcDbSpline
 70
8
 71
3
 72
8
 73
4
 74
0
 40
0
 40
0
 40
0
 40
0
 40
1
 40
1
 40
1
 40
1
 10
152.917024
 20
133.012644
 30
0.0
 10
152.917024
 20
132.509380
 30
0.0
 10
152.648536
 20
132.044346
 30
0.0
 10
152.212697
 20
131.792714
 30
0.0
  0
SPLINE
  5
126
100
AcDbEntity
  8
Layer_1
 62
7
100
AcDbSpline
 70
8
 71
3
 72
8
 73
4
 74
0
 40
0
 40
0
 40
0
 40
0
 40
1
 40
1
 40
1
 40
1
 10
152.212697
 20
131.792714
 30
0.0
 10
151.776858
 20
131.541082
 30
0.0
 10
151.239882
 20
131.541082
 30
0.0
 10
150.804043
 20
131.792714
 30
0.0
  0
SPLINE
  5
127
100
AcDbEntity
  8
Layer_1
 62
7
100
AcDbSpline
 70
8
 71
3
 72
8
 73
4
 74
0
 40
0
 40
0
 40
0
 40
0
 40
1
 40
1
 40
1
 40
1
 10
150.804043
 20
131.792714
 30
0.0
 10
150.368204
 20
132.044346
 30
0.0
 10
150.099716
 20
132.509380
 30
0.0
 10
150.099716
 20
133.012644
 30
0.0
  0
LINE
  5
128
100
AcDbEntity
  8
Layer_1
 62
7
100
AcDbLine
 10
150.099716
 20
133.012644
 30
0.0
 11
150.099716
 21
133.012644
 31
0.0
  0
SPLINE
  5
129
100
AcDbEntity
  8
Layer_1
 62
7
100
AcDbSpline
 70
8
 71
3
 72
8
 73
4
 74
0
 40
0
 40
0
 40
0
 40
0
 40
1
 40
1
 40
1
 40
1
 10
101.604686
 20
105.014044
 30
0.0
 10
101.604686
 20
105.792022
 30
0.0
 10
102.235362
 20
106.422698
 30
0.0
 10
103.013340
 20
106.422698
 30
0.0
  0
SPLINE
  5
12a
100
AcDbEntity
  8
Layer_1
 62
7
100
AcDbSpline
 70
8
 71
3
 72
8
 73
4
 74
0
 40
0
 40
0
 40
0
 40
0
 40
1
 40
1
 40
1
 40
1
 10
103.013340
 20
106.422698
 30
0.0
 10
103.791318
 20
106.422698
 30
0.0
 10
104.421994
 20
105.792022
 30
0.0
 10
104.421994
 20
105.014044
 30
0.0
  0
SPLINE
  5
12b
100
AcDbEntity
  8
Layer_1
 62
7
100
AcDbSpline
 70
8
 71
3
 72
8
 73
4
 74
0
 40
0
 40
0
 40
0
 40
0
 40
1
 40
1
 40
1
 40
1
 10
104.421994
 20
105.014044
 30
0.0
 10
104.421994
 20
104.510780
 30
0.0
 10
104.153506
 20
104.045746
 30
0.0
 10
103.717667
 20
103.794114
 30
0.0
  0
SPLINE
  5
12c
100
AcDbEntity
  8
Layer_1
 62
7
100
AcDbSpline
 70
8
 71
3
 72
8
 73
4
 74
0
 40
0
 40
0
 40
0
 40
0
 40
1
 40
1
 40
1
 40
1
 10
103.717667
 20
103.794114
 30
0.0
 10
103.281828
 20
103.542482
 30
0.0
 10
102.744852
 20
103.542482
 30
0.0
 10
102.309013
 20
103.794114
 30
0.0
  0
SPLINE
  5
12d
100
AcDbEntity
  8
Layer_1
 62
7
100
AcDbSpline
 70
8
 71
3
 72
8
 73
4
 74
0
 40
0
 40
0
 40
0
 40
0
 40
1
 40
1
 40
1
 40
1
 10
102.309013
 20
103.794114
 30
0.0
 10
101.873174
 20
104.045746
 30
0.0
 10
101.604686
 20
104.510780
 30
0.0
 10
101.604686
 20
105.014044
 30
0.0
  0
LINE
  5
12e
100
AcDbEntity
  8
Layer_1
 62
7
100
AcDbLine
 10
101.604686
 20
105.014044
 30
0.0
 11
101.604686
 21
105.014044
 31
0.0
  0
SPLINE
  5
12f
100
AcDbEntity
  8
Layer_1
 62
7
100
AcDbSpline
 70
8
 71
3
 72
8
 73
4
 74
0
 40
0
 40
0
 40
0
 40
0
 40
1
 40
1
 40
1
 40
1
 10
101.604686
 20
161.011248
 30
0.0
 10
101.604686
 20
161.789226
 30
0.0
 10
102.235362
 20
162.419902
 30
0.0
 10
103.013340
 20
162.419902
 30
0.0
  0
SPLINE
  5
130
100
AcDbEntity
  8
Layer_1
 62
7
100
AcDbSpline
 70
8
 71
3
 72
8
 73
4
 74
0
 40
0
 40
0
 40
0
 40
0
 40
1
 40
1
 40
1
 40
1
 10
103.013340
 20
162.419902
 30
0.0
 10
103.791318
 20
162.419902
 30
0.0
 10
104.421994
 20
161.789226
 30
0.0
 10
104.421994
 20
161.011248
 30
0.0
  0
SPLINE
  5
131
100
AcDbEntity
  8
Layer_1
 62
7
100
AcDbSpline
 70
8
 71
3
 72
8
 73
4
 74
0
 40
0
 40
0
 40
0
 40
0
 40
1
 40
1
 40
1
 40
1
 10
104.421994
 20
161.011248
 30
0.0
 10
104.421994
 20
160.507984
 30
0.0
 10
104.153506
 20
160.042950
 30
0.0
 10
103.717667
 20
159.791318
 30
0.0
  0
SPLINE
  5
132
100
AcDbEntity
  8
Layer_1
 62
7
100
AcDbSpline
 70
8
 71
3
 72
8
 73
4
 74
0
 40
0
 40
0
 40
0
 40
0
 40
1
 40
1
 40
1
 40
1
 10
103.717667
 20
159.791318
 30
0.0
 10
103.281828
 20
159.539686
 30
0.0
 10
102.744852
 20
159.539686
 30
0.0
 10
102.309013
 20
159.791318
 30
0.0
  0
SPLINE
  5
133
100
AcDbEntity
  8
Layer_1
 62
7
100
AcDbSpline
 70
8
 71
3
 72
8
 73
4
 74
0
 40
0
 40
0
 40
0
 40
0
 40
1
 40
1
 40
1
 40
1
 10
102.309013
 20
159.791318
 30
0.0
 10
101.873174
 20
160.042950
 30
0.0
 10
101.604686
 20
160.507984
 30
0.0
 10
101.604686
 20
161.011248
 30
0.0
  0
LINE
  5
134
100
AcDbEntity
  8
Layer_1
 62
7
100
AcDbLine
 10
101.604686
 20
161.011248
 30
0.0
 11
101.604686
 21
161.011248
 31
0.0
  0
SPLINE
  5
135
100
AcDbEntity
  8
Layer_1
 62
7
100
AcDbSpline
 70
8
 71
3
 72
8
 73
4
 74
0
 40
0
 40
0
 40
0
 40
0
 40
1
 40
1
 40
1
 40
1
 10
85.439706
 20
133.012644
 30
0.0
 10
85.439706
 20
133.790622
 30
0.0
 10
86.070382
 20
134.421298
 30
0.0
 10
86.848360
 20
134.421298
 30
0.0
  0
SPLINE
  5
136
100
AcDbEntity
  8
Layer_1
 62
7
100
AcDbSpline
 70
8
 71
3
 72
8
 73
4
 74
0
 40
0
 40
0
 40
0
 40
0
 40
1
 40
1
 40
1
 40
1
 10
86.848360
 20
134.421298
 30
0.0
 10
87.626338
 20
134.421298
 30
0.0
 10
88.257014
 20
133.790622
 30
0.0
 10
88.257014
 20
133.012644
 30
0.0
  0
SPLINE
  5
137
100
AcDbEntity
  8
Layer_1
 62
7
100
AcDbSpline
 70
8
 71
3
 72
8
 73
4
 74
0
 40
0
 40
0
 40
0
 40
0
 40
1
 40
1
 40
1
 40
1
 10
88.257014
 20
133.012644
 30
0.0
 10
88.257014
 20
132.234666
 30
0.0
 10
87.626338
 20
131.603990
 30
0.0
 10
86.848360
 20
131.603990
 30
0.0
  0
SPLINE
  5
138
100
AcDbEntity
  8
Layer_1
 62
7
100
AcDbSpline
 70
8
 71
3
 72
8
 73
4
 74
0
 40
0
 40
0
 40
0
 40
0
 40
1
 40
1
 40
1
 40
1
 10
86.848360
 20
131.603990
 30
0.0
 10
86.070382
 20
131.603990
 30
0.0
 10
85.439706
 20
132.234666
 30
0.0
 10
85.439706
 20
133.012644
 30
0.0
  0
LINE
  5
139
100
AcDbEntity
  8
Layer_1
 62
7
100
AcDbLine
 10
85.439706
 20
133.012644
 30
0.0
 11
85.439706
 21
133.012644
 31
0.0
  0
LINE
  5
13a
100
AcDbEntity
  8
Layer_1
 62
3
100
AcDbLine
 10
122.270871
 20
143.471529
 30
0.0
 11
122.270871
 21
143.471529
 31
0.0
  0
SPLINE
  5
13b
100
AcDbEntity
  8
Layer_1
 62
3
100
AcDbSpline
 70
8
 71
3
 72
8
 73
4
 74
0
 40
0
 40
0
 40
0
 40
0
 40
1
 40
1
 40
1
 40
1
 10
128.323418
 20
138.953869
 30
0.0
 10
126.958082
 20
141.058021
 30
0.0
 10
124.864367
 20
142.704580
 30
0.0
 10
122.270871
 20
143.471529
 30
0.0
  0
LINE
  5
13c
100
AcDbEntity
  8
Layer_1
 62
3
100
AcDbLine
 10
126.369103
 20
132.344335
 30
0.0
 11
128.323418
 21
138.953869
 31
0.0
  0
LINE
  5
13d
100
AcDbEntity
  8
Layer_1
 62
3
100
AcDbLine
 10
123.916230
 20
137.188865
 30
0.0
 11
126.369103
 21
132.344335
 31
0.0
  0
SPLINE
  5
13e
100
AcDbEntity
  8
Layer_1
 62
3
100
AcDbSpline
 70
8
 71
3
 72
8
 73
4
 74
0
 40
0
 40
0
 40
0
 40
0
 40
1
 40
1
 40
1
 40
1
 10
111.638046
 20
140.894568
 30
0.0
 10
115.736010
 20
139.676952
 30
0.0
 10
119.816587
 20
138.401059
 30
0.0
 10
123.916230
 20
137.188865
 30
0.0
  0
SPLINE
  5
13f
100
AcDbEntity
  8
Layer_1
 62
3
100
AcDbSpline
 70
8
 71
3
 72
8
 73
4
 74
0
 40
0
 40
0
 40
0
 40
0
 40
1
 40
1
 40
1
 40
1
 10
122.270871
 20
143.471529
 30
0.0
 10
118.387444
 20
144.619778
 30
0.0
 10
114.371522
 20
143.504294
 30
0.0
 10
111.638046
 20
140.894568
 30
0.0
  0
LINE
  5
140
100
AcDbEntity
  8
Layer_1
 62
3
100
AcDbLine
 10
110.197021
 20
139.203933
 30
0.0
 11
110.197161
 21
139.203933
 31
0.0
  0
LINE
  5
141
100
AcDbEntity
  8
Layer_1
 62
3
100
AcDbLine
 10
110.151803
 20
139.051150
 30
0.0
 11
110.196928
 21
139.203933
 31
0.0
  0
LINE
  5
142
100
AcDbEntity
  8
Layer_1
 62
3
100
AcDbLine
 10
110.283797
 20
138.915926
 30
0.0
 11
110.151803
 21
139.051150
 31
0.0
  0
LINE
  5
143
100
AcDbEntity
  8
Layer_1
 62
3
100
AcDbLine
 10
114.172728
 20
134.485858
 30
0.0
 11
110.283797
 21
138.915926
 31
0.0
  0
LINE
  5
144
100
AcDbEntity
  8
Layer_1
 62
3
100
AcDbLine
 10
108.490599
 20
132.851274
 30
0.0
 11
114.172728
 21
134.485858
 31
0.0
  0
LINE
  5
145
100
AcDbEntity
  8
Layer_1
 62
3
100
AcDbLine
 10
108.306251
 20
132.809483
 30
0.0
 11
108.490599
 21
132.851227
 31
0.0
  0
LINE
  5
146
100
AcDbEntity
  8
Layer_1
 62
3
100
AcDbLine
 10
108.274326
 20
132.701044
 30
0.0
 11
108.306275
 21
132.809483
 31
0.0
  0
SPLINE
  5
147
100
AcDbEntity
  8
Layer_1
 62
3
100
AcDbSpline
 70
8
 71
3
 72
8
 73
4
 74
0
 40
0
 40
0
 40
0
 40
0
 40
1
 40
1
 40
1
 40
1
 10
108.719500
 20
136.105120
 30
0.0
 10
108.383850
 20
134.969966
 30
0.0
 10
108.242412
 20
133.823500
 30
0.0
 10
108.274326
 20
132.701044
 30
0.0
  0
SPLINE
  5
148
100
AcDbEntity
  8
Layer_1
 62
3
100
AcDbSpline
 70
8
 71
3
 72
8
 73
4
 74
0
 40
0
 40
0
 40
0
 40
0
 40
1
 40
1
 40
1
 40
1
 10
110.197126
 20
139.203933
 30
0.0
 10
109.559862
 20
138.279455
 30
0.0
 10
109.055127
 20
137.240298
 30
0.0
 10
108.719500
 20
136.105120
 30
0.0
  0
LINE
  5
149
100
AcDbEntity
  8
Layer_1
 62
3
100
AcDbLine
 10
108.564280
 20
130.498445
 30
0.0
 11
108.564280
 21
130.498445
 31
0.0
  0
LINE
  5
14a
100
AcDbEntity
  8
Layer_1
 62
3
100
AcDbLine
 10
116.790138
 20
128.066234
 30
0.0
 11
108.564280
 21
130.498445
 31
0.0
  0
LINE
  5
14b
100
AcDbEntity
  8
Layer_1
 62
3
100
AcDbLine
 10
117.298394
 20
127.915945
 30
0.0
 11
116.790138
 21
128.066234
 31
0.0
  0
LINE
  5
14c
100
AcDbEntity
  8
Layer_1
 62
3
100
AcDbLine
 10
117.690398
 20
127.800043
 30
0.0
 11
117.298394
 21
127.915945
 31
0.0
  0
LINE
  5
14d
100
AcDbEntity
  8
Layer_1
 62
3
100
AcDbLine
 10
117.991756
 20
127.710936
 30
0.0
 11
117.690398
 21
127.800020
 31
0.0
  0
LINE
  5
14e
100
AcDbEntity
  8
Layer_1
 62
3
100
AcDbLine
 10
124.126801
 20
131.040457
 30
0.0
 11
117.991756
 21
127.710936
 31
0.0
  0
LINE
  5
14f
100
AcDbEntity
  8
Layer_1
 62
3
100
AcDbLine
 10
125.299665
 20
128.727192
 30
0.0
 11
124.126801
 21
131.040457
 31
0.0
  0
LINE
  5
150
100
AcDbEntity
  8
Layer_1
 62
3
100
AcDbLine
 10
123.622031
 20
123.053447
 30
0.0
 11
125.299665
 21
128.727192
 31
0.0
  0
SPLINE
  5
151
100
AcDbEntity
  8
Layer_1
 62
3
100
AcDbSpline
 70
8
 71
3
 72
8
 73
4
 74
0
 40
0
 40
0
 40
0
 40
0
 40
1
 40
1
 40
1
 40
1
 10
116.085885
 20
122.553772
 30
0.0
 10
118.679404
 20
121.786928
 30
0.0
 10
121.331853
 20
122.030346
 30
0.0
 10
123.622031
 20
123.053447
 30
0.0
  0
SPLINE
  5
152
100
AcDbEntity
  8
Layer_1
 62
3
100
AcDbSpline
 70
8
 71
3
 72
8
 73
4
 74
0
 40
0
 40
0
 40
0
 40
0
 40
1
 40
1
 40
1
 40
1
 10
108.564280
 20
130.498445
 30
0.0
 10
109.438829
 20
126.821928
 30
0.0
 10
112.202516
 20
123.702021
 30
0.0
 10
116.085885
 20
122.553772
 30
0.0
  0
LINE
  5
153
100
AcDbEntity
  8
Layer_1
 62
3
100
AcDbLine
 10
127.020861
 20
125.431648
 30
0.0
 11
127.020861
 21
125.431648
 31
0.0
  0
LINE
  5
154
100
AcDbEntity
  8
Layer_1
 62
3
100
AcDbLine
 10
129.882318
 20
135.109818
 30
0.0
 11
127.020861
 21
125.431648
 31
0.0
  0
SPLINE
  5
155
100
AcDbEntity
  8
Layer_1
 62
3
100
AcDbSpline
 70
8
 71
3
 72
8
 73
4
 74
0
 40
0
 40
0
 40
0
 40
0
 40
1
 40
1
 40
1
 40
1
 10
129.637320
 20
129.920216
 30
0.0
 10
130.153477
 20
131.666202
 30
0.0
 10
130.211625
 20
133.438936
 30
0.0
 10
129.882318
 20
135.109818
 30
0.0
  0
SPLINE
  5
156
100
AcDbEntity
  8
Layer_1
 62
3
100
AcDbSpline
 70
8
 71
3
 72
8
 73
4
 74
0
 40
0
 40
0
 40
0
 40
0
 40
1
 40
1
 40
1
 40
1
 10
127.020861
 20
125.431648
 30
0.0
 10
128.205672
 20
126.654825
 30
0.0
 10
129.120933
 20
128.174137
 30
0.0
 10
129.637320
 20
129.920216
 30
0.0
  0
LINE
  5
157
100
AcDbEntity
  8
Layer_1
 62
3
100
AcDbLine
 10
121.859593
 20
135.348630
 30
0.0
 11
121.859663
 21
135.348630
 31
0.0
  0
LINE
  5
158
100
AcDbEntity
  8
Layer_1
 62
3
100
AcDbLine
 10
114.635019
 20
137.484836
 30
0.0
 11
121.859593
 21
135.348630
 31
0.0
  0
LINE
  5
159
100
AcDbEntity
  8
Layer_1
 62
3
100
AcDbLine
 10
118.533523
 20
133.203388
 30
0.0
 11
114.635019
 21
137.484836
 31
0.0
  0
LINE
  5
15a
100
AcDbEntity
  8
Layer_1
 62
3
100
AcDbLine
 10
112.911608
 20
131.702231
 30
0.0
 11
118.533523
 21
133.203388
 31
0.0
  0
LINE
  5
15b
100
AcDbEntity
  8
Layer_1
 62
3
100
AcDbLine
 10
117.466919
 20
130.355328
 30
0.0
 11
112.911608
 21
131.702231
 31
0.0
  0
LINE
  5
15c
100
AcDbEntity
  8
Layer_1
 62
3
100
AcDbLine
 10
117.485680
 20
130.418573
 30
0.0
 11
117.466907
 21
130.355374
 31
0.0
  0
LINE
  5
15d
100
AcDbEntity
  8
Layer_1
 62
3
100
AcDbLine
 10
122.866602
 20
133.476260
 30
0.0
 11
117.485680
 21
130.418573
 31
0.0
  0
SPLINE
  5
15e
100
AcDbEntity
  8
Layer_1
 62
3
100
AcDbSpline
 70
8
 71
3
 72
8
 73
4
 74
0
 40
0
 40
0
 40
0
 40
0
 40
1
 40
1
 40
1
 40
1
 10
121.859663
 20
135.348630
 30
0.0
 10
122.200782
 20
134.715225
 30
0.0
 10
122.551742
 20
134.126712
 30
0.0
 10
122.866602
 20
133.476260
 30
0.0
  0
LINE
  5
15f
100
AcDbEntity
  8
Layer_1
 62
3
100
AcDbLine
 10
102.997190
 20
136.228264
 30
0.0
 11
102.997190
 21
136.228264
 31
0.0
  0
SPLINE
  5
160
100
AcDbEntity
  8
Layer_1
 62
3
100
AcDbSpline
 70
8
 71
3
 72
8
 73
4
 74
0
 40
0
 40
0
 40
0
 40
0
 40
1
 40
1
 40
1
 40
1
 10
104.041745
 20
136.821546
 30
0.0
 10
103.778388
 20
136.502616
 30
0.0
 10
103.404854
 20
136.291077
 30
0.0
 10
102.997190
 20
136.228264
 30
0.0
  0
LINE
  5
161
100
AcDbEntity
  8
Layer_1
 62
3
100
AcDbLine
 10
106.852458
 20
135.990466
 30
0.0
 11
104.041745
 21
136.821546
 31
0.0
  0
SPLINE
  5
162
100
AcDbEntity
  8
Layer_1
 62
3
100
AcDbSpline
 70
8
 71
3
 72
8
 73
4
 74
0
 40
0
 40
0
 40
0
 40
0
 40
1
 40
1
 40
1
 40
1
 10
114.960968
 20
121.073884
 30
0.0
 10
108.778302
 20
123.155951
 30
0.0
 10
105.237580
 20
129.669592
 30
0.0
 10
106.852458
 20
135.990466
 30
0.0
  0
LINE
  5
163
100
AcDbEntity
  8
Layer_1
 62
3
100
AcDbLine
 10
114.142947
 20
118.307375
 30
0.0
 11
114.960968
 21
121.073884
 31
0.0
  0
SPLINE
  5
164
100
AcDbEntity
  8
Layer_1
 62
3
100
AcDbSpline
 70
8
 71
3
 72
8
 73
4
 74
0
 40
0
 40
0
 40
0
 40
0
 40
1
 40
1
 40
1
 40
1
 10
113.021225
 20
117.726161
 30
0.0
 10
113.304661
 20
118.056413
 30
0.0
 10
113.708174
 20
118.266401
 30
0.0
 10
114.142947
 20
118.307375
 30
0.0
  0
SPLINE
  5
165
100
AcDbEntity
  8
Layer_1
 62
3
100
AcDbSpline
 70
8
 71
3
 72
8
 73
4
 74
0
 40
0
 40
0
 40
0
 40
0
 40
1
 40
1
 40
1
 40
1
 10
102.997190
 20
136.228264
 30
0.0
 10
101.370232
 20
128.453527
 30
0.0
 10
105.624080
 20
120.608176
 30
0.0
 10
113.021225
 20
117.726161
 30
0.0
  0
LINE
  5
166
100
AcDbEntity
  8
Layer_1
 62
3
100
AcDbLine
 10
100.679202
 20
137.815787
 30
0.0
 11
100.679202
 21
137.815787
 31
0.0
  0
LINE
  5
167
100
AcDbEntity
  8
Layer_1
 62
3
100
AcDbLine
 10
101.067778
 20
137.700818
 30
0.0
 11
100.679202
 21
137.815787
 31
0.0
  0
SPLINE
  5
168
100
AcDbEntity
  8
Layer_1
 62
3
100
AcDbSpline
 70
8
 71
3
 72
8
 73
4
 74
0
 40
0
 40
0
 40
0
 40
0
 40
1
 40
1
 40
1
 40
1
 10
101.677991
 20
136.586861
 30
0.0
 10
101.337922
 20
136.863884
 30
0.0
 10
101.118232
 20
137.265380
 30
0.0
 10
101.067778
 20
137.700818
 30
0.0
  0
SPLINE
  5
169
100
AcDbEntity
  8
Layer_1
 62
3
100
AcDbSpline
 70
8
 71
3
 72
8
 73
4
 74
0
 40
0
 40
0
 40
0
 40
0
 40
1
 40
1
 40
1
 40
1
 10
112.629594
 20
116.414098
 30
0.0
 10
104.522658
 20
119.513284
 30
0.0
 10
99.860599
 20
128.098392
 30
0.0
 10
101.677991
 20
136.586861
 30
0.0
  0
SPLINE
  5
16a
100
AcDbEntity
  8
Layer_1
 62
3
100
AcDbSpline
 70
8
 71
3
 72
8
 73
4
 74
0
 40
0
 40
0
 40
0
 40
0
 40
1
 40
1
 40
1
 40
1
 10
113.255991
 20
115.307615
 30
0.0
 10
112.911176
 20
115.580359
 30
0.0
 10
112.685960
 20
115.979359
 30
0.0
 10
112.629594
 20
116.414098
 30
0.0
  0
LINE
  5
16b
100
AcDbEntity
  8
Layer_1
 62
3
100
AcDbLine
 10
113.135647
 20
114.900581
 30
0.0
 11
113.255991
 21
115.307615
 31
0.0
  0
SPLINE
  5
16c
100
AcDbEntity
  8
Layer_1
 62
3
100
AcDbSpline
 70
8
 71
3
 72
8
 73
4
 74
0
 40
0
 40
0
 40
0
 40
0
 40
1
 40
1
 40
1
 40
1
 10
100.679202
 20
137.815729
 30
0.0
 10
98.060883
 20
128.086382
 30
0.0
 10
103.546980
 20
117.994334
 30
0.0
 10
113.135647
 20
114.900581
 30
0.0
  0
LINE
  5
16d
100
AcDbEntity
  8
Layer_1
 62
3
100
AcDbLine
 10
134.496105
 20
126.885674
 30
0.0
 11
134.496105
 21
126.885674
 31
0.0
  0
SPLINE
  5
16e
100
AcDbEntity
  8
Layer_1
 62
3
100
AcDbSpline
 70
8
 71
3
 72
8
 73
4
 74
0
 40
0
 40
0
 40
0
 40
0
 40
1
 40
1
 40
1
 40
1
 10
133.890703
 20
127.995783
 30
0.0
 10
133.940958
 20
127.562350
 30
0.0
 10
134.158835
 20
127.162627
 30
0.0
 10
134.496105
 20
126.885674
 30
0.0
  0
LINE
  5
16f
100
AcDbEntity
  8
Layer_1
 62
3
100
AcDbLine
 10
131.141696
 20
128.808603
 30
0.0
 11
133.890703
 21
127.995783
 31
0.0
  0
SPLINE
  5
170
100
AcDbEntity
  8
Layer_1
 62
3
100
AcDbSpline
 70
8
 71
3
 72
8
 73
4
 74
0
 40
0
 40
0
 40
0
 40
0
 40
1
 40
1
 40
1
 40
1
 10
116.225143
 20
120.700128
 30
0.0
 10
122.545924
 20
119.085180
 30
0.0
 10
129.059529
 20
122.625914
 30
0.0
 10
131.141696
 20
128.808603
 30
0.0
  0
LINE
  5
171
100
AcDbEntity
  8
Layer_1
 62
3
100
AcDbLine
 10
115.399368
 20
117.907279
 30
0.0
 11
116.225143
 21
120.700128
 31
0.0
  0
SPLINE
  5
172
100
AcDbEntity
  8
Layer_1
 62
3
100
AcDbSpline
 70
8
 71
3
 72
8
 73
4
 74
0
 40
0
 40
0
 40
0
 40
0
 40
1
 40
1
 40
1
 40
1
 10
115.971429
 20
116.847985
 30
0.0
 10
115.917442
 20
117.258669
 30
0.0
 10
115.712969
 20
117.637240
 30
0.0
 10
115.399368
 20
117.907279
 30
0.0
  0
SPLINE
  5
173
100
AcDbEntity
  8
Layer_1
 62
3
100
AcDbSpline
 70
8
 71
3
 72
8
 73
4
 74
0
 40
0
 40
0
 40
0
 40
0
 40
1
 40
1
 40
1
 40
1
 10
134.496105
 20
126.885674
 30
0.0
 10
131.617639
 20
119.472998
 30
0.0
 10
123.757255
 20
115.210731
 30
0.0
 10
115.971429
 20
116.847985
 30
0.0
  0
LINE
  5
174
100
AcDbEntity
  8
Layer_1
 62
3
100
AcDbLine
 10
137.314975
 20
126.983316
 30
0.0
 11
137.314975
 21
126.983316
 31
0.0
  0
LINE
  5
175
100
AcDbEntity
  8
Layer_1
 62
3
100
AcDbLine
 10
136.864666
 20
127.116452
 30
0.0
 11
137.314975
 21
126.983316
 31
0.0
  0
SPLINE
  5
176
100
AcDbEntity
  8
Layer_1
 62
3
100
AcDbSpline
 70
8
 71
3
 72
8
 73
4
 74
0
 40
0
 40
0
 40
0
 40
0
 40
1
 40
1
 40
1
 40
1
 10
135.819289
 20
126.523030
 30
0.0
 10
136.227278
 20
126.585646
 30
0.0
 10
136.601043
 20
126.797313
 30
0.0
 10
136.864666
 20
127.116452
 30
0.0
  0
SPLINE
  5
177
100
AcDbEntity
  8
Layer_1
 62
3
100
AcDbSpline
 70
8
 71
3
 72
8
 73
4
 74
0
 40
0
 40
0
 40
0
 40
0
 40
1
 40
1
 40
1
 40
1
 10
115.582165
 20
115.535794
 30
0.0
 10
124.101860
 20
113.687758
 30
0.0
 10
132.729424
 20
118.372987
 30
0.0
 10
135.819289
 20
126.523030
 30
0.0
  0
SPLINE
  5
178
100
AcDbEntity
  8
Layer_1
 62
3
100
AcDbSpline
 70
8
 71
3
 72
8
 73
4
 74
0
 40
0
 40
0
 40
0
 40
0
 40
1
 40
1
 40
1
 40
1
 10
114.527967
 20
114.960165
 30
0.0
 10
114.937111
 20
115.016134
 30
0.0
 10
115.313864
 20
115.221855
 30
0.0
 10
115.582165
 20
115.535794
 30
0.0
  0
LINE
  5
179
100
AcDbEntity
  8
Layer_1
 62
3
100
AcDbLine
 10
114.399821
 20
114.526872
 30
0.0
 11
114.527967
 21
114.960165
 31
0.0
  0
SPLINE
  5
17a
100
AcDbEntity
  8
Layer_1
 62
3
100
AcDbSpline
 70
8
 71
3
 72
8
 73
4
 74
0
 40
0
 40
0
 40
0
 40
0
 40
1
 40
1
 40
1
 40
1
 10
137.314975
 20
126.983316
 30
0.0
 10
134.221293
 20
117.394510
 30
0.0
 10
124.129110
 20
111.908646
 30
0.0
 10
114.399821
 20
114.526872
 30
0.0
  0
LINE
  5
17b
100
AcDbEntity
  8
Layer_1
 62
3
100
AcDbLine
 10
103.864802
 20
139.149865
 30
0.0
 11
103.864802
 21
139.149865
 31
0.0
  0
SPLINE
  5
17c
100
AcDbEntity
  8
Layer_1
 62
3
100
AcDbSpline
 70
8
 71
3
 72
8
 73
4
 74
0
 40
0
 40
0
 40
0
 40
0
 40
1
 40
1
 40
1
 40
1
 10
104.420282
 20
138.043056
 30
0.0
 10
104.382153
 20
138.469271
 30
0.0
 10
104.181901
 20
138.865939
 30
0.0
 10
103.864802
 20
139.149865
 30
0.0
  0
LINE
  5
17d
100
AcDbEntity
  8
Layer_1
 62
3
100
AcDbLine
 10
107.215067
 20
137.216675
 30
0.0
 11
104.420282
 21
138.043056
 31
0.0
  0
SPLINE
  5
17e
100
AcDbEntity
  8
Layer_1
 62
3
100
AcDbSpline
 70
8
 71
3
 72
8
 73
4
 74
0
 40
0
 40
0
 40
0
 40
0
 40
1
 40
1
 40
1
 40
1
 10
122.131649
 20
145.325185
 30
0.0
 10
115.810880
 20
146.940133
 30
0.0
 10
109.297263
 20
143.399399
 30
0.0
 10
107.215067
 20
137.216675
 30
0.0
  0
LINE
  5
17f
100
AcDbEntity
  8
Layer_1
 62
3
100
AcDbLine
 10
122.961120
 20
148.130534
 30
0.0
 11
122.131649
 21
145.325185
 31
0.0
  0
SPLINE
  5
180
100
AcDbEntity
  8
Layer_1
 62
3
100
AcDbSpline
 70
8
 71
3
 72
8
 73
4
 74
0
 40
0
 40
0
 40
0
 40
0
 40
1
 40
1
 40
1
 40
1
 10
122.342092
 20
149.186015
 30
0.0
 10
122.408905
 20
148.771215
 30
0.0
 10
122.629865
 20
148.392573
 30
0.0
 10
122.961120
 20
148.130534
 30
0.0
  0
SPLINE
  5
181
100
AcDbEntity
  8
Layer_1
 62
3
100
AcDbSpline
 70
8
 71
3
 72
8
 73
4
 74
0
 40
0
 40
0
 40
0
 40
0
 40
1
 40
1
 40
1
 40
1
 10
103.864802
 20
139.149865
 30
0.0
 10
106.741162
 20
146.542369
 30
0.0
 10
114.574106
 20
150.797663
 30
0.0
 10
122.342092
 20
149.186015
 30
0.0
  0
LINE
  5
182
100
AcDbEntity
  8
Layer_1
 62
3
100
AcDbLine
 10
101.041823
 20
139.041997
 30
0.0
 11
101.041823
 21
139.041997
 31
0.0
  0
LINE
  5
183
100
AcDbEntity
  8
Layer_1
 62
3
100
AcDbLine
 10
101.414471
 20
138.931808
 30
0.0
 11
101.041823
 21
139.041997
 31
0.0
  0
SPLINE
  5
184
100
AcDbEntity
  8
Layer_1
 62
3
100
AcDbSpline
 70
8
 71
3
 72
8
 73
4
 74
0
 40
0
 40
0
 40
0
 40
0
 40
1
 40
1
 40
1
 40
1
 10
102.563734
 20
139.569294
 30
0.0
 10
102.111750
 20
139.521021
 30
0.0
 10
101.695097
 20
139.290335
 30
0.0
 10
101.414471
 20
138.931808
 30
0.0
  0
SPLINE
  5
185
100
AcDbEntity
  8
Layer_1
 62
3
100
AcDbSpline
 70
8
 71
3
 72
8
 73
4
 74
0
 40
0
 40
0
 40
0
 40
0
 40
1
 40
1
 40
1
 40
1
 10
122.691571
 20
150.507045
 30
0.0
 10
114.222318
 20
152.301723
 30
0.0
 10
105.665381
 20
147.651288
 30
0.0
 10
102.563734
 20
139.569294
 30
0.0
  0
SPLINE
  5
186
100
AcDbEntity
  8
Layer_1
 62
3
100
AcDbSpline
 70
8
 71
3
 72
8
 73
4
 74
0
 40
0
 40
0
 40
0
 40
0
 40
1
 40
1
 40
1
 40
1
 10
123.848076
 20
151.130247
 30
0.0
 10
123.395136
 20
151.087454
 30
0.0
 10
122.976255
 20
150.861596
 30
0.0
 10
122.691571
 20
150.507045
 30
0.0
  0
LINE
  5
187
100
AcDbEntity
  8
Layer_1
 62
3
100
AcDbLine
 10
123.956935
 20
151.498417
 30
0.0
 11
123.848029
 21
151.130247
 31
0.0
  0
SPLINE
  5
188
100
AcDbEntity
  8
Layer_1
 62
3
100
AcDbSpline
 70
8
 71
3
 72
8
 73
4
 74
0
 40
0
 40
0
 40
0
 40
0
 40
1
 40
1
 40
1
 40
1
 10
101.041823
 20
139.041985
 30
0.0
 10
104.135505
 20
148.630780
 30
0.0
 10
114.227659
 20
154.116621
 30
0.0
 10
123.956935
 20
151.498417
 30
0.0
  0
LINE
  5
189
100
AcDbEntity
  8
Layer_1
 62
3
100
AcDbLine
 10
135.372633
 20
129.862684
 30
0.0
 11
135.372633
 21
129.862684
 31
0.0
  0
SPLINE
  5
18a
100
AcDbEntity
  8
Layer_1
 62
3
100
AcDbSpline
 70
8
 71
3
 72
8
 73
4
 74
0
 40
0
 40
0
 40
0
 40
0
 40
1
 40
1
 40
1
 40
1
 10
134.237352
 20
129.226714
 30
0.0
 10
134.515027
 20
129.581557
 30
0.0
 10
134.925912
 20
129.811216
 30
0.0
 10
135.372633
 20
129.862684
 30
0.0
  0
LINE
  5
18b
100
AcDbEntity
  8
Layer_1
 62
3
100
AcDbLine
 10
131.504272
 20
130.034824
 30
0.0
 11
134.237352
 21
129.226714
 31
0.0
  0
SPLINE
  5
18c
100
AcDbEntity
  8
Layer_1
 62
3
100
AcDbSpline
 70
8
 71
3
 72
8
 73
4
 74
0
 40
0
 40
0
 40
0
 40
0
 40
1
 40
1
 40
1
 40
1
 10
123.395789
 20
144.951406
 30
0.0
 10
129.578417
 20
142.869303
 30
0.0
 10
133.119150
 20
136.355698
 30
0.0
 10
131.504272
 20
130.034824
 30
0.0
  0
LINE
  5
18d
100
AcDbEntity
  8
Layer_1
 62
3
100
AcDbLine
 10
124.233025
 20
147.783049
 30
0.0
 11
123.395789
 21
144.951406
 31
0.0
  0
SPLINE
  5
18e
100
AcDbEntity
  8
Layer_1
 62
3
100
AcDbSpline
 70
8
 71
3
 72
8
 73
4
 74
0
 40
0
 40
0
 40
0
 40
0
 40
1
 40
1
 40
1
 40
1
 10
125.261058
 20
148.328652
 30
0.0
 10
124.994611
 20
148.031469
 30
0.0
 10
124.629006
 20
147.837245
 30
0.0
 10
124.233025
 20
147.783049
 30
0.0
  0
SPLINE
  5
18f
100
AcDbEntity
  8
Layer_1
 62
3
100
AcDbSpline
 70
8
 71
3
 72
8
 73
4
 74
0
 40
0
 40
0
 40
0
 40
0
 40
1
 40
1
 40
1
 40
1
 10
135.372633
 20
129.862684
 30
0.0
 10
136.967305
 20
137.642027
 30
0.0
 10
132.683452
 20
145.478656
 30
0.0
 10
125.261058
 20
148.328652
 30
0.0
  0
LINE
  5
190
100
AcDbEntity
  8
Layer_1
 62
3
100
AcDbLine
 10
137.677518
 20
128.209502
 30
0.0
 11
137.677518
 21
128.209502
 31
0.0
  0
LINE
  5
191
100
AcDbEntity
  8
Layer_1
 62
3
100
AcDbLine
 10
137.243138
 20
128.337939
 30
0.0
 11
137.677518
 21
128.209502
 31
0.0
  0
SPLINE
  5
192
100
AcDbEntity
  8
Layer_1
 62
3
100
AcDbSpline
 70
8
 71
3
 72
8
 73
4
 74
0
 40
0
 40
0
 40
0
 40
0
 40
1
 40
1
 40
1
 40
1
 10
136.681173
 20
129.450485
 30
0.0
 10
137.001990
 20
129.166268
 30
0.0
 10
137.204767
 20
128.767093
 30
0.0
 10
137.243138
 20
128.337939
 30
0.0
  0
SPLINE
  5
193
100
AcDbEntity
  8
Layer_1
 62
3
100
AcDbSpline
 70
8
 71
3
 72
8
 73
4
 74
0
 40
0
 40
0
 40
0
 40
0
 40
1
 40
1
 40
1
 40
1
 10
125.681490
 20
149.628799
 30
0.0
 10
133.812646
 20
146.546019
 30
0.0
 10
138.494944
 20
137.951127
 30
0.0
 10
136.681173
 20
129.450485
 30
0.0
  0
SPLINE
  5
194
100
AcDbEntity
  8
Layer_1
 62
3
100
AcDbSpline
 70
8
 71
3
 72
8
 73
4
 74
0
 40
0
 40
0
 40
0
 40
0
 40
1
 40
1
 40
1
 40
1
 10
125.104462
 20
150.730162
 30
0.0
 10
125.428860
 20
150.450866
 30
0.0
 10
125.636470
 20
150.055550
 30
0.0
 10
125.681490
 20
149.628799
 30
0.0
  0
LINE
  5
195
100
AcDbEntity
  8
Layer_1
 62
3
100
AcDbLine
 10
125.221075
 20
151.124650
 30
0.0
 11
125.104462
 21
150.730162
 31
0.0
  0
SPLINE
  5
196
100
AcDbEntity
  8
Layer_1
 62
3
100
AcDbSpline
 70
8
 71
3
 72
8
 73
4
 74
0
 40
0
 40
0
 40
0
 40
0
 40
1
 40
1
 40
1
 40
1
 10
137.677518
 20
128.209502
 30
0.0
 10
140.295848
 20
137.938849
 30
0.0
 10
134.809747
 20
148.030909
 30
0.0
 10
125.221075
 20
151.124650
 30
0.0
  0
LINE
  5
197
100
AcDbEntity
  8
Layer_1
 62
3
100
AcDbLine
 10
135.766736
 20
128.871871
 30
0.0
 11
135.766736
 21
128.871871
 31
0.0
  0
LINE
  5
198
100
AcDbEntity
  8
Layer_1
 62
3
100
AcDbLine
 10
136.012128
 20
128.613610
 30
0.0
 11
135.766736
 21
128.871871
 31
0.0
  0
LINE
  5
199
100
AcDbEntity
  8
Layer_1
 62
3
100
AcDbLine
 10
136.257454
 20
128.355290
 30
0.0
 11
136.012128
 21
128.613610
 31
0.0
  0
LINE
  5
19a
100
AcDbEntity
  8
Layer_1
 62
3
100
AcDbLine
 10
136.156427
 20
128.013669
 30
0.0
 11
136.257451
 21
128.355290
 31
0.0
  0
LINE
  5
19b
100
AcDbEntity
  8
Layer_1
 62
3
100
AcDbLine
 10
136.055434
 20
127.672061
 30
0.0
 11
136.156423
 21
128.013669
 31
0.0
  0
LINE
  5
19c
100
AcDbEntity
  8
Layer_1
 62
3
100
AcDbLine
 10
135.709081
 20
127.588667
 30
0.0
 11
136.055434
 21
127.672037
 31
0.0
  0
LINE
  5
19d
100
AcDbEntity
  8
Layer_1
 62
3
100
AcDbLine
 10
135.362695
 20
127.505378
 30
0.0
 11
135.709081
 21
127.588632
 31
0.0
  0
LINE
  5
19e
100
AcDbEntity
  8
Layer_1
 62
3
100
AcDbLine
 10
135.117270
 20
127.763605
 30
0.0
 11
135.362695
 21
127.505343
 31
0.0
  0
LINE
  5
19f
100
AcDbEntity
  8
Layer_1
 62
3
100
AcDbLine
 10
134.871943
 20
128.021925
 30
0.0
 11
135.117270
 21
127.763605
 31
0.0
  0
LINE
  5
1a0
100
AcDbEntity
  8
Layer_1
 62
3
100
AcDbLine
 10
134.972969
 20
128.363580
 30
0.0
 11
134.871945
 21
128.021925
 31
0.0
  0
LINE
  5
1a1
100
AcDbEntity
  8
Layer_1
 62
3
100
AcDbLine
 10
135.073963
 20
128.705189
 30
0.0
 11
134.972974
 21
128.363580
 31
0.0
  0
LINE
  5
1a2
100
AcDbEntity
  8
Layer_1
 62
3
100
AcDbLine
 10
135.420316
 20
128.788582
 30
0.0
 11
135.073963
 21
128.705212
 31
0.0
  0
LINE
  5
1a3
100
AcDbEntity
  8
Layer_1
 62
3
100
AcDbLine
 10
135.766736
 20
128.871836
 30
0.0
 11
135.420316
 21
128.788582
 31
0.0
  0
LINE
  5
1a4
100
AcDbEntity
  8
Layer_1
 62
3
100
AcDbLine
 10
135.870527
 20
129.222866
 30
0.0
 11
135.870527
 21
129.222866
 31
0.0
  0
SPLINE
  5
1a5
100
AcDbEntity
  8
Layer_1
 62
3
100
AcDbSpline
 70
8
 71
3
 72
8
 73
4
 74
0
 40
0
 40
0
 40
0
 40
0
 40
1
 40
1
 40
1
 40
1
 10
136.598970
 20
127.882795
 30
0.0
 10
136.767852
 20
128.453947
 30
0.0
 10
136.441671
 20
129.053980
 30
0.0
 10
135.870527
 20
129.222866
 30
0.0
  0
SPLINE
  5
1a6
100
AcDbEntity
  8
Layer_1
 62
3
100
AcDbSpline
 70
8
 71
3
 72
8
 73
4
 74
0
 40
0
 40
0
 40
0
 40
0
 40
1
 40
1
 40
1
 40
1
 10
135.258904
 20
127.154348
 30
0.0
 10
135.830049
 20
126.985474
 30
0.0
 10
136.430088
 20
127.311621
 30
0.0
 10
136.598970
 20
127.882795
 30
0.0
  0
SPLINE
  5
1a7
100
AcDbEntity
  8
Layer_1
 62
3
100
AcDbSpline
 70
8
 71
3
 72
8
 73
4
 74
0
 40
0
 40
0
 40
0
 40
0
 40
1
 40
1
 40
1
 40
1
 10
134.530428
 20
128.494419
 30
0.0
 10
134.361579
 20
127.923245
 30
0.0
 10
134.687726
 20
127.323234
 30
0.0
 10
135.258904
 20
127.154348
 30
0.0
  0
SPLINE
  5
1a8
100
AcDbEntity
  8
Layer_1
 62
3
100
AcDbSpline
 70
8
 71
3
 72
8
 73
4
 74
0
 40
0
 40
0
 40
0
 40
0
 40
1
 40
1
 40
1
 40
1
 10
135.870527
 20
129.222866
 30
0.0
 10
135.299347
 20
129.391741
 30
0.0
 10
134.699309
 20
129.065559
 30
0.0
 10
134.530428
 20
128.494419
 30
0.0
  0
LINE
  5
1a9
100
AcDbEntity
  8
Layer_1
 62
3
100
AcDbLine
 10
102.943845
 20
138.576930
 30
0.0
 11
102.943845
 21
138.576930
 31
0.0
  0
LINE
  5
1aa
100
AcDbEntity
  8
Layer_1
 62
3
100
AcDbLine
 10
103.189269
 20
138.318668
 30
0.0
 11
102.943845
 21
138.576930
 31
0.0
  0
LINE
  5
1ab
100
AcDbEntity
  8
Layer_1
 62
3
100
AcDbLine
 10
103.434564
 20
138.060348
 30
0.0
 11
103.189269
 21
138.318668
 31
0.0
  0
LINE
  5
1ac
100
AcDbEntity
  8
Layer_1
 62
3
100
AcDbLine
 10
103.333575
 20
137.718728
 30
0.0
 11
103.434553
 21
138.060348
 31
0.0
  0
LINE
  5
1ad
100
AcDbEntity
  8
Layer_1
 62
3
100
AcDbLine
 10
103.232551
 20
137.377084
 30
0.0
 11
103.333529
 21
137.718728
 31
0.0
  0
LINE
  5
1ae
100
AcDbEntity
  8
Layer_1
 62
3
100
AcDbLine
 10
102.886232
 20
137.293702
 30
0.0
 11
103.232551
 21
137.377073
 31
0.0
  0
LINE
  5
1af
100
AcDbEntity
  8
Layer_1
 62
3
100
AcDbLine
 10
102.539808
 20
137.210437
 30
0.0
 11
102.886232
 21
137.293690
 31
0.0
  0
LINE
  5
1b0
100
AcDbEntity
  8
Layer_1
 62
3
100
AcDbLine
 10
102.294384
 20
137.468698
 30
0.0
 11
102.539808
 21
137.210437
 31
0.0
  0
LINE
  5
1b1
100
AcDbEntity
  8
Layer_1
 62
3
100
AcDbLine
 10
102.049088
 20
137.727030
 30
0.0
 11
102.294384
 21
137.468698
 31
0.0
  0
LINE
  5
1b2
100
AcDbEntity
  8
Layer_1
 62
3
100
AcDbLine
 10
102.150077
 20
138.068639
 30
0.0
 11
102.049100
 21
137.727030
 31
0.0
  0
LINE
  5
1b3
100
AcDbEntity
  8
Layer_1
 62
3
100
AcDbLine
 10
102.251113
 20
138.410259
 30
0.0
 11
102.150136
 21
138.068639
 31
0.0
  0
LINE
  5
1b4
100
AcDbEntity
  8
Layer_1
 62
3
100
AcDbLine
 10
102.597467
 20
138.493641
 30
0.0
 11
102.251113
 21
138.410271
 31
0.0
  0
LINE
  5
1b5
100
AcDbEntity
  8
Layer_1
 62
3
100
AcDbLine
 10
102.943845
 20
138.576930
 30
0.0
 11
102.597467
 21
138.493676
 31
0.0
  0
LINE
  5
1b6
100
AcDbEntity
  8
Layer_1
 62
3
100
AcDbLine
 10
103.047644
 20
138.927960
 30
0.0
 11
103.047644
 21
138.927960
 31
0.0
  0
SPLINE
  5
1b7
100
AcDbEntity
  8
Layer_1
 62
3
100
AcDbSpline
 70
8
 71
3
 72
8
 73
4
 74
0
 40
0
 40
0
 40
0
 40
0
 40
1
 40
1
 40
1
 40
1
 10
103.776080
 20
137.587854
 30
0.0
 10
103.944966
 20
138.159040
 30
0.0
 10
103.618784
 20
138.759074
 30
0.0
 10
103.047644
 20
138.927960
 30
0.0
  0
SPLINE
  5
1b8
100
AcDbEntity
  8
Layer_1
 62
3
100
AcDbSpline
 70
8
 71
3
 72
8
 73
4
 74
0
 40
0
 40
0
 40
0
 40
0
 40
1
 40
1
 40
1
 40
1
 10
102.436020
 20
136.859418
 30
0.0
 10
103.007195
 20
136.690532
 30
0.0
 10
103.607205
 20
137.016714
 30
0.0
 10
103.776080
 20
137.587854
 30
0.0
  0
SPLINE
  5
1b9
100
AcDbEntity
  8
Layer_1
 62
3
100
AcDbSpline
 70
8
 71
3
 72
8
 73
4
 74
0
 40
0
 40
0
 40
0
 40
0
 40
1
 40
1
 40
1
 40
1
 10
101.707573
 20
138.199478
 30
0.0
 10
101.538687
 20
137.628338
 30
0.0
 10
101.864869
 20
137.028293
 30
0.0
 10
102.436020
 20
136.859418
 30
0.0
  0
SPLINE
  5
1ba
100
AcDbEntity
  8
Layer_1
 62
3
100
AcDbSpline
 70
8
 71
3
 72
8
 73
4
 74
0
 40
0
 40
0
 40
0
 40
0
 40
1
 40
1
 40
1
 40
1
 10
103.047644
 20
138.927960
 30
0.0
 10
102.476493
 20
139.096811
 30
0.0
 10
101.876459
 20
138.770664
 30
0.0
 10
101.707573
 20
138.199478
 30
0.0
  0
LINE
  5
1bb
100
AcDbEntity
  8
Layer_1
 62
3
100
AcDbLine
 10
123.322574
 20
149.654603
 30
0.0
 11
123.322574
 21
149.654603
 31
0.0
  0
LINE
  5
1bc
100
AcDbEntity
  8
Layer_1
 62
3
100
AcDbLine
 10
123.580836
 20
149.900027
 30
0.0
 11
123.322574
 21
149.654603
 31
0.0
  0
LINE
  5
1bd
100
AcDbEntity
  8
Layer_1
 62
3
100
AcDbLine
 10
123.839156
 20
150.145322
 30
0.0
 11
123.580836
 21
149.900027
 31
0.0
  0
LINE
  5
1be
100
AcDbEntity
  8
Layer_1
 62
3
100
AcDbLine
 10
124.180776
 20
150.044298
 30
0.0
 11
123.839156
 21
150.145275
 31
0.0
  0
LINE
  5
1bf
100
AcDbEntity
  8
Layer_1
 62
3
100
AcDbLine
 10
124.522385
 20
149.943298
 30
0.0
 11
124.180776
 21
150.044275
 31
0.0
  0
LINE
  5
1c0
100
AcDbEntity
  8
Layer_1
 62
3
100
AcDbLine
 10
124.605778
 20
149.596943
 30
0.0
 11
124.522408
 21
149.943298
 31
0.0
  0
LINE
  5
1c1
100
AcDbEntity
  8
Layer_1
 62
3
100
AcDbLine
 10
124.689067
 20
149.250565
 30
0.0
 11
124.605813
 21
149.596943
 31
0.0
  0
LINE
  5
1c2
100
AcDbEntity
  8
Layer_1
 62
3
100
AcDbLine
 10
124.430806
 20
149.005142
 30
0.0
 11
124.689067
 21
149.250565
 31
0.0
  0
LINE
  5
1c3
100
AcDbEntity
  8
Layer_1
 62
3
100
AcDbLine
 10
124.172474
 20
148.759846
 30
0.0
 11
124.430806
 21
149.005142
 31
0.0
  0
LINE
  5
1c4
100
AcDbEntity
  8
Layer_1
 62
3
100
AcDbLine
 10
123.830830
 20
148.860835
 30
0.0
 11
124.172474
 21
148.759858
 31
0.0
  0
LINE
  5
1c5
100
AcDbEntity
  8
Layer_1
 62
3
100
AcDbLine
 10
123.489222
 20
148.961859
 30
0.0
 11
123.830830
 21
148.860882
 31
0.0
  0
LINE
  5
1c6
100
AcDbEntity
  8
Layer_1
 62
3
100
AcDbLine
 10
123.405828
 20
149.308178
 30
0.0
 11
123.489198
 21
148.961859
 31
0.0
  0
LINE
  5
1c7
100
AcDbEntity
  8
Layer_1
 62
3
100
AcDbLine
 10
123.322574
 20
149.654603
 30
0.0
 11
123.405828
 21
149.308178
 31
0.0
  0
LINE
  5
1c8
100
AcDbEntity
  8
Layer_1
 62
3
100
AcDbLine
 10
122.971544
 20
149.758390
 30
0.0
 11
122.971544
 21
149.758390
 31
0.0
  0
SPLINE
  5
1c9
100
AcDbEntity
  8
Layer_1
 62
3
100
AcDbSpline
 70
8
 71
3
 72
8
 73
4
 74
0
 40
0
 40
0
 40
0
 40
0
 40
1
 40
1
 40
1
 40
1
 10
124.311615
 20
150.486837
 30
0.0
 10
123.740464
 20
150.655724
 30
0.0
 10
123.140430
 20
150.329541
 30
0.0
 10
122.971544
 20
149.758390
 30
0.0
  0
SPLINE
  5
1ca
100
AcDbEntity
  8
Layer_1
 62
3
100
AcDbSpline
 70
8
 71
3
 72
8
 73
4
 74
0
 40
0
 40
0
 40
0
 40
0
 40
1
 40
1
 40
1
 40
1
 10
125.040051
 20
149.146766
 30
0.0
 10
125.208937
 20
149.717918
 30
0.0
 10
124.882790
 20
150.317951
 30
0.0
 10
124.311615
 20
150.486837
 30
0.0
  0
SPLINE
  5
1cb
100
AcDbEntity
  8
Layer_1
 62
3
100
AcDbSpline
 70
8
 71
3
 72
8
 73
4
 74
0
 40
0
 40
0
 40
0
 40
0
 40
1
 40
1
 40
1
 40
1
 10
123.699991
 20
148.418331
 30
0.0
 10
124.271166
 20
148.249445
 30
0.0
 10
124.871176
 20
148.575592
 30
0.0
 10
125.040051
 20
149.146766
 30
0.0
  0
SPLINE
  5
1cc
100
AcDbEntity
  8
Layer_1
 62
3
100
AcDbSpline
 70
8
 71
3
 72
8
 73
4
 74
0
 40
0
 40
0
 40
0
 40
0
 40
1
 40
1
 40
1
 40
1
 10
122.971544
 20
149.758390
 30
0.0
 10
122.802670
 20
149.187216
 30
0.0
 10
123.128840
 20
148.587205
 30
0.0
 10
123.699991
 20
148.418331
 30
0.0
  0
LINE
  5
1cd
100
AcDbEntity
  8
Layer_1
 62
3
100
AcDbLine
 10
113.617481
 20
116.831708
 30
0.0
 11
113.617481
 21
116.831708
 31
0.0
  0
LINE
  5
1ce
100
AcDbEntity
  8
Layer_1
 62
3
100
AcDbLine
 10
113.875742
 20
117.077143
 30
0.0
 11
113.617481
 21
116.831708
 31
0.0
  0
LINE
  5
1cf
100
AcDbEntity
  8
Layer_1
 62
3
100
AcDbLine
 10
114.134062
 20
117.322462
 30
0.0
 11
113.875742
 21
117.077143
 31
0.0
  0
LINE
  5
1d0
100
AcDbEntity
  8
Layer_1
 62
3
100
AcDbLine
 10
114.475683
 20
117.221438
 30
0.0
 11
114.134062
 21
117.322415
 31
0.0
  0
LINE
  5
1d1
100
AcDbEntity
  8
Layer_1
 62
3
100
AcDbLine
 10
114.817326
 20
117.120414
 30
0.0
 11
114.475683
 21
117.221391
 31
0.0
  0
LINE
  5
1d2
100
AcDbEntity
  8
Layer_1
 62
3
100
AcDbLine
 10
114.900685
 20
116.774095
 30
0.0
 11
114.817315
 21
117.120414
 31
0.0
  0
LINE
  5
1d3
100
AcDbEntity
  8
Layer_1
 62
3
100
AcDbLine
 10
114.983974
 20
116.427670
 30
0.0
 11
114.900720
 21
116.774095
 31
0.0
  0
LINE
  5
1d4
100
AcDbEntity
  8
Layer_1
 62
3
100
AcDbLine
 10
114.725712
 20
116.182281
 30
0.0
 11
114.983974
 21
116.427670
 31
0.0
  0
LINE
  5
1d5
100
AcDbEntity
  8
Layer_1
 62
3
100
AcDbLine
 10
114.467381
 20
115.936951
 30
0.0
 11
114.725712
 21
116.182281
 31
0.0
  0
LINE
  5
1d6
100
AcDbEntity
  8
Layer_1
 62
3
100
AcDbLine
 10
114.125772
 20
116.037975
 30
0.0
 11
114.467381
 21
115.936998
 31
0.0
  0
LINE
  5
1d7
100
AcDbEntity
  8
Layer_1
 62
3
100
AcDbLine
 10
113.784128
 20
116.138975
 30
0.0
 11
114.125772
 21
116.037998
 31
0.0
  0
LINE
  5
1d8
100
AcDbEntity
  8
Layer_1
 62
3
100
AcDbLine
 10
113.700735
 20
116.485330
 30
0.0
 11
113.784105
 21
116.138975
 31
0.0
  0
LINE
  5
1d9
100
AcDbEntity
  8
Layer_1
 62
3
100
AcDbLine
 10
113.617481
 20
116.831708
 30
0.0
 11
113.700735
 21
116.485330
 31
0.0
  0
LINE
  5
1da
100
AcDbEntity
  8
Layer_1
 62
3
100
AcDbLine
 10
113.266451
 20
116.935507
 30
0.0
 11
113.266451
 21
116.935507
 31
0.0
  0
SPLINE
  5
1db
100
AcDbEntity
  8
Layer_1
 62
3
100
AcDbSpline
 70
8
 71
3
 72
8
 73
4
 74
0
 40
0
 40
0
 40
0
 40
0
 40
1
 40
1
 40
1
 40
1
 10
114.606522
 20
117.663942
 30
0.0
 10
114.035370
 20
117.832828
 30
0.0
 10
113.435337
 20
117.506681
 30
0.0
 10
113.266451
 20
116.935507
 30
0.0
  0
SPLINE
  5
1dc
100
AcDbEntity
  8
Layer_1
 62
3
100
AcDbSpline
 70
8
 71
3
 72
8
 73
4
 74
0
 40
0
 40
0
 40
0
 40
0
 40
1
 40
1
 40
1
 40
1
 10
115.334992
 20
116.323883
 30
0.0
 10
115.503878
 20
116.895057
 30
0.0
 10
115.177696
 20
117.495103
 30
0.0
 10
114.606522
 20
117.663942
 30
0.0
  0
SPLINE
  5
1dd
100
AcDbEntity
  8
Layer_1
 62
3
100
AcDbSpline
 70
8
 71
3
 72
8
 73
4
 74
0
 40
0
 40
0
 40
0
 40
0
 40
1
 40
1
 40
1
 40
1
 10
113.994933
 20
115.595436
 30
0.0
 10
114.566072
 20
115.426561
 30
0.0
 10
115.166118
 20
115.752743
 30
0.0
 10
115.334992
 20
116.323883
 30
0.0
  0
SPLINE
  5
1de
100
AcDbEntity
  8
Layer_1
 62
3
100
AcDbSpline
 70
8
 71
3
 72
8
 73
4
 74
0
 40
0
 40
0
 40
0
 40
0
 40
1
 40
1
 40
1
 40
1
 10
113.266451
 20
116.935507
 30
0.0
 10
113.097576
 20
116.364355
 30
0.0
 10
113.423758
 20
115.764322
 30
0.0
 10
113.994933
 20
115.595436
 30
0.0
  0
SPLINE
  5
1df
100
AcDbEntity
  8
Layer_1
 62
1
100
AcDbSpline
 70
8
 71
3
 72
8
 73
4
 74
0
 40
0
 40
0
 40
0
 40
0
 40
1
 40
1
 40
1
 40
1
 10
122.550659
 20
149.464839
 30
0.0
 10
122.550659
 20
148.940158
 30
0.0
 10
122.830573
 20
148.455334
 30
0.0
 10
123.284960
 20
148.192993
 30
0.0
  0
SPLINE
  5
1e0
100
AcDbEntity
  8
Layer_1
 62
1
100
AcDbSpline
 70
8
 71
3
 72
8
 73
4
 74
0
 40
0
 40
0
 40
0
 40
0
 40
1
 40
1
 40
1
 40
1
 10
123.284960
 20
148.192993
 30
0.0
 10
123.739346
 20
147.930653
 30
0.0
 10
124.299174
 20
147.930653
 30
0.0
 10
124.753561
 20
148.192993
 30
0.0
  0
SPLINE
  5
1e1
100
AcDbEntity
  8
Layer_1
 62
1
100
AcDbSpline
 70
8
 71
3
 72
8
 73
4
 74
0
 40
0
 40
0
 40
0
 40
0
 40
1
 40
1
 40
1
 40
1
 10
124.753561
 20
148.192993
 30
0.0
 10
125.207947
 20
148.455334
 30
0.0
 10
125.487861
 20
148.940158
 30
0.0
 10
125.487861
 20
149.464839
 30
0.0
  0
SPLINE
  5
1e2
100
AcDbEntity
  8
Layer_1
 62
1
100
AcDbSpline
 70
8
 71
3
 72
8
 73
4
 74
0
 40
0
 40
0
 40
0
 40
0
 40
1
 40
1
 40
1
 40
1
 10
125.487861
 20
149.464839
 30
0.0
 10
125.487861
 20
149.989520
 30
0.0
 10
125.207947
 20
150.474344
 30
0.0
 10
124.753561
 20
150.736685
 30
0.0
  0
SPLINE
  5
1e3
100
AcDbEntity
  8
Layer_1
 62
1
100
AcDbSpline
 70
8
 71
3
 72
8
 73
4
 74
0
 40
0
 40
0
 40
0
 40
0
 40
1
 40
1
 40
1
 40
1
 10
124.753561
 20
150.736685
 30
0.0
 10
124.299174
 20
150.999025
 30
0.0
 10
123.739346
 20
150.999025
 30
0.0
 10
123.284960
 20
150.736685
 30
0.0
  0
SPLINE
  5
1e4
100
AcDbEntity
  8
Layer_1
 62
1
100
AcDbSpline
 70
8
 71
3
 72
8
 73
4
 74
0
 40
0
 40
0
 40
0
 40
0
 40
1
 40
1
 40
1
 40
1
 10
123.284960
 20
150.736685
 30
0.0
 10
122.830573
 20
150.474344
 30
0.0
 10
122.550659
 20
149.989520
 30
0.0
 10
122.550659
 20
149.464839
 30
0.0
  0
LINE
  5
1e5
100
AcDbEntity
  8
Layer_1
 62
1
100
AcDbLine
 10
122.550659
 20
149.464839
 30
0.0
 11
122.550659
 21
149.464839
 31
0.0
  0
SPLINE
  5
1e6
100
AcDbEntity
  8
Layer_1
 62
7
100
AcDbSpline
 70
8
 71
3
 72
8
 73
4
 74
0
 40
0
 40
0
 40
0
 40
0
 40
1
 40
1
 40
1
 40
1
 10
106.652170
 20
88.979924
 30
0.0
 10
105.580372
 20
88.979925
 30
0.0
 10
104.589989
 20
88.408128
 30
0.0
 10
104.054090
 20
87.479924
 30
0.0
  0
LINE
  5
1e7
100
AcDbEntity
  8
Layer_1
 62
7
100
AcDbLine
 10
104.054090
 20
87.479924
 30
0.0
 11
87.786140
 21
59.303014
 31
0.0
  0
SPLINE
  5
1e8
100
AcDbEntity
  8
Layer_1
 62
7
100
AcDbSpline
 70
8
 71
3
 72
8
 73
4
 74
0
 40
0
 40
0
 40
0
 40
0
 40
1
 40
1
 40
1
 40
1
 10
87.786140
 20
59.303014
 30
0.0
 10
87.250242
 20
58.374811
 30
0.0
 10
87.250242
 20
57.231217
 30
0.0
 10
87.786140
 20
56.303014
 30
0.0
  0
SPLINE
  5
1e9
100
AcDbEntity
  8
Layer_1
 62
7
100
AcDbSpline
 70
8
 71
3
 72
8
 73
4
 74
0
 40
0
 40
0
 40
0
 40
0
 40
1
 40
1
 40
1
 40
1
 10
87.786140
 20
56.303014
 30
0.0
 10
87.786140
 20
56.303014
 30
0.0
 10
104.054090
 20
28.126094
 30
0.0
 10
104.054090
 20
28.126094
 30
0.0
  0
SPLINE
  5
1ea
100
AcDbEntity
  8
Layer_1
 62
7
100
AcDbSpline
 70
8
 71
3
 72
8
 73
4
 74
0
 40
0
 40
0
 40
0
 40
0
 40
1
 40
1
 40
1
 40
1
 10
104.054090
 20
28.126094
 30
0.0
 10
104.589989
 20
27.197890
 30
0.0
 10
105.580372
 20
26.626093
 30
0.0
 10
106.652170
 20
26.626094
 30
0.0
  0
SPLINE
  5
1eb
100
AcDbEntity
  8
Layer_1
 62
7
100
AcDbSpline
 70
8
 71
3
 72
8
 73
4
 74
0
 40
0
 40
0
 40
0
 40
0
 40
1
 40
1
 40
1
 40
1
 10
106.652170
 20
26.626094
 30
0.0
 10
106.652170
 20
26.626094
 30
0.0
 10
139.188070
 20
26.626094
 30
0.0
 10
139.188070
 20
26.626094
 30
0.0
  0
SPLINE
  5
1ec
100
AcDbEntity
  8
Layer_1
 62
7
100
AcDbSpline
 70
8
 71
3
 72
8
 73
4
 74
0
 40
0
 40
0
 40
0
 40
0
 40
1
 40
1
 40
1
 40
1
 10
139.188070
 20
26.626094
 30
0.0
 10
140.259865
 20
26.626096
 30
0.0
 10
141.250243
 20
27.197893
 30
0.0
 10
141.786140
 20
28.126094
 30
0.0
  0
SPLINE
  5
1ed
100
AcDbEntity
  8
Layer_1
 62
7
100
AcDbSpline
 70
8
 71
3
 72
8
 73
4
 74
0
 40
0
 40
0
 40
0
 40
0
 40
1
 40
1
 40
1
 40
1
 10
141.786140
 20
28.126094
 30
0.0
 10
141.786140
 20
28.126094
 30
0.0
 10
158.054090
 20
56.303014
 30
0.0
 10
158.054090
 20
56.303014
 30
0.0
  0
SPLINE
  5
1ee
100
AcDbEntity
  8
Layer_1
 62
7
100
AcDbSpline
 70
8
 71
3
 72
8
 73
4
 74
0
 40
0
 40
0
 40
0
 40
0
 40
1
 40
1
 40
1
 40
1
 10
158.054090
 20
56.303014
 30
0.0
 10
158.589988
 20
57.231217
 30
0.0
 10
158.589988
 20
58.374811
 30
0.0
 10
158.054090
 20
59.303014
 30
0.0
  0
LINE
  5
1ef
100
AcDbEntity
  8
Layer_1
 62
7
100
AcDbLine
 10
158.054090
 20
59.303014
 30
0.0
 11
141.786140
 21
87.479924
 31
0.0
  0
SPLINE
  5
1f0
100
AcDbEntity
  8
Layer_1
 62
7
100
AcDbSpline
 70
8
 71
3
 72
8
 73
4
 74
0
 40
0
 40
0
 40
0
 40
0
 40
1
 40
1
 40
1
 40
1
 10
141.786140
 20
87.479924
 30
0.0
 10
141.250243
 20
88.408125
 30
0.0
 10
140.259865
 20
88.979922
 30
0.0
 10
139.188070
 20
88.979924
 30
0.0
  0
LINE
  5
1f1
100
AcDbEntity
  8
Layer_1
 62
7
100
AcDbLine
 10
139.188070
 20
88.979924
 30
0.0
 11
106.652170
 21
88.979924
 31
0.0
  0
SPLINE
  5
1f2
100
AcDbEntity
  8
Layer_1
 62
7
100
AcDbSpline
 70
8
 71
3
 72
8
 73
4
 74
0
 40
0
 40
0
 40
0
 40
0
 40
1
 40
1
 40
1
 40
1
 10
93.920110
 20
57.803004
 30
0.0
 10
93.920110
 20
68.163706
 30
0.0
 10
99.447479
 20
77.737390
 30
0.0
 10
108.420110
 20
82.917741
 30
0.0
  0
SPLINE
  5
1f3
100
AcDbEntity
  8
Layer_1
 62
7
100
AcDbSpline
 70
8
 71
3
 72
8
 73
4
 74
0
 40
0
 40
0
 40
0
 40
0
 40
1
 40
1
 40
1
 40
1
 10
108.420110
 20
82.917741
 30
0.0
 10
117.392741
 20
88.098092
 30
0.0
 10
128.447479
 20
88.098092
 30
0.0
 10
137.420110
 20
82.917741
 30
0.0
  0
SPLINE
  5
1f4
100
AcDbEntity
  8
Layer_1
 62
7
100
AcDbSpline
 70
8
 71
3
 72
8
 73
4
 74
0
 40
0
 40
0
 40
0
 40
0
 40
1
 40
1
 40
1
 40
1
 10
137.420110
 20
82.917741
 30
0.0
 10
146.392741
 20
77.737390
 30
0.0
 10
151.920110
 20
68.163706
 30
0.0
 10
151.920110
 20
57.803004
 30
0.0
  0
SPLINE
  5
1f5
100
AcDbEntity
  8
Layer_1
 62
7
100
AcDbSpline
 70
8
 71
3
 72
8
 73
4
 74
0
 40
0
 40
0
 40
0
 40
0
 40
1
 40
1
 40
1
 40
1
 10
151.920110
 20
57.803004
 30
0.0
 10
151.920110
 20
47.442302
 30
0.0
 10
146.392741
 20
37.868618
 30
0.0
 10
137.420110
 20
32.688267
 30
0.0
  0
SPLINE
  5
1f6
100
AcDbEntity
  8
Layer_1
 62
7
100
AcDbSpline
 70
8
 71
3
 72
8
 73
4
 74
0
 40
0
 40
0
 40
0
 40
0
 40
1
 40
1
 40
1
 40
1
 10
137.420110
 20
32.688267
 30
0.0
 10
128.447479
 20
27.507916
 30
0.0
 10
117.392741
 20
27.507916
 30
0.0
 10
108.420110
 20
32.688267
 30
0.0
  0
SPLINE
  5
1f7
100
AcDbEntity
  8
Layer_1
 62
7
100
AcDbSpline
 70
8
 71
3
 72
8
 73
4
 74
0
 40
0
 40
0
 40
0
 40
0
 40
1
 40
1
 40
1
 40
1
 10
108.420110
 20
32.688267
 30
0.0
 10
99.447479
 20
37.868618
 30
0.0
 10
93.920110
 20
47.442302
 30
0.0
 10
93.920110
 20
57.803004
 30
0.0
  0
LINE
  5
1f8
100
AcDbEntity
  8
Layer_1
 62
7
100
AcDbLine
 10
93.920110
 20
57.803004
 30
0.0
 11
93.920110
 21
57.803004
 31
0.0
  0
SPLINE
  5
1f9
100
AcDbEntity
  8
Layer_1
 62
7
100
AcDbSpline
 70
8
 71
3
 72
8
 73
4
 74
0
 40
0
 40
0
 40
0
 40
0
 40
1
 40
1
 40
1
 40
1
 10
105.346476
 20
85.801614
 30
0.0
 10
105.346476
 20
86.579592
 30
0.0
 10
105.977152
 20
87.210268
 30
0.0
 10
106.755130
 20
87.210268
 30
0.0
  0
SPLINE
  5
1fa
100
AcDbEntity
  8
Layer_1
 62
7
100
AcDbSpline
 70
8
 71
3
 72
8
 73
4
 74
0
 40
0
 40
0
 40
0
 40
0
 40
1
 40
1
 40
1
 40
1
 10
106.755130
 20
87.210268
 30
0.0
 10
107.533108
 20
87.210268
 30
0.0
 10
108.163784
 20
86.579592
 30
0.0
 10
108.163784
 20
85.801614
 30
0.0
  0
SPLINE
  5
1fb
100
AcDbEntity
  8
Layer_1
 62
7
100
AcDbSpline
 70
8
 71
3
 72
8
 73
4
 74
0
 40
0
 40
0
 40
0
 40
0
 40
1
 40
1
 40
1
 40
1
 10
108.163784
 20
85.801614
 30
0.0
 10
108.163784
 20
85.023636
 30
0.0
 10
107.533108
 20
84.392960
 30
0.0
 10
106.755130
 20
84.392960
 30
0.0
  0
SPLINE
  5
1fc
100
AcDbEntity
  8
Layer_1
 62
7
100
AcDbSpline
 70
8
 71
3
 72
8
 73
4
 74
0
 40
0
 40
0
 40
0
 40
0
 40
1
 40
1
 40
1
 40
1
 10
106.755130
 20
84.392960
 30
0.0
 10
105.977152
 20
84.392960
 30
0.0
 10
105.346476
 20
85.023636
 30
0.0
 10
105.346476
 20
85.801614
 30
0.0
  0
LINE
  5
1fd
100
AcDbEntity
  8
Layer_1
 62
7
100
AcDbLine
 10
105.346476
 20
85.801614
 30
0.0
 11
105.346476
 21
85.801614
 31
0.0
  0
SPLINE
  5
1fe
100
AcDbEntity
  8
Layer_1
 62
7
100
AcDbSpline
 70
8
 71
3
 72
8
 73
4
 74
0
 40
0
 40
0
 40
0
 40
0
 40
1
 40
1
 40
1
 40
1
 10
105.346476
 20
29.804404
 30
0.0
 10
105.346476
 20
30.582382
 30
0.0
 10
105.977152
 20
31.213058
 30
0.0
 10
106.755130
 20
31.213058
 30
0.0
  0
SPLINE
  5
1ff
100
AcDbEntity
  8
Layer_1
 62
7
100
AcDbSpline
 70
8
 71
3
 72
8
 73
4
 74
0
 40
0
 40
0
 40
0
 40
0
 40
1
 40
1
 40
1
 40
1
 10
106.755130
 20
31.213058
 30
0.0
 10
107.533108
 20
31.213058
 30
0.0
 10
108.163784
 20
30.582382
 30
0.0
 10
108.163784
 20
29.804404
 30
0.0
  0
SPLINE
  5
200
100
AcDbEntity
  8
Layer_1
 62
7
100
AcDbSpline
 70
8
 71
3
 72
8
 73
4
 74
0
 40
0
 40
0
 40
0
 40
0
 40
1
 40
1
 40
1
 40
1
 10
108.163784
 20
29.804404
 30
0.0
 10
108.163784
 20
29.026426
 30
0.0
 10
107.533108
 20
28.395750
 30
0.0
 10
106.755130
 20
28.395750
 30
0.0
  0
SPLINE
  5
201
100
AcDbEntity
  8
Layer_1
 62
7
100
AcDbSpline
 70
8
 71
3
 72
8
 73
4
 74
0
 40
0
 40
0
 40
0
 40
0
 40
1
 40
1
 40
1
 40
1
 10
106.755130
 20
28.395750
 30
0.0
 10
105.977152
 20
28.395750
 30
0.0
 10
105.346476
 20
29.026426
 30
0.0
 10
105.346476
 20
29.804404
 30
0.0
  0
LINE
  5
202
100
AcDbEntity
  8
Layer_1
 62
7
100
AcDbLine
 10
105.346476
 20
29.804404
 30
0.0
 11
105.346476
 21
29.804404
 31
0.0
  0
SPLINE
  5
203
100
AcDbEntity
  8
Layer_1
 62
7
100
AcDbSpline
 70
8
 71
3
 72
8
 73
4
 74
0
 40
0
 40
0
 40
0
 40
0
 40
1
 40
1
 40
1
 40
1
 10
137.676466
 20
29.804404
 30
0.0
 10
137.676466
 20
30.307668
 30
0.0
 10
137.944954
 20
30.772702
 30
0.0
 10
138.380793
 20
31.024334
 30
0.0
  0
SPLINE
  5
204
100
AcDbEntity
  8
Layer_1
 62
7
100
AcDbSpline
 70
8
 71
3
 72
8
 73
4
 74
0
 40
0
 40
0
 40
0
 40
0
 40
1
 40
1
 40
1
 40
1
 10
138.380793
 20
31.024334
 30
0.0
 10
138.816632
 20
31.275966
 30
0.0
 10
139.353608
 20
31.275966
 30
0.0
 10
139.789447
 20
31.024334
 30
0.0
  0
SPLINE
  5
205
100
AcDbEntity
  8
Layer_1
 62
7
100
AcDbSpline
 70
8
 71
3
 72
8
 73
4
 74
0
 40
0
 40
0
 40
0
 40
0
 40
1
 40
1
 40
1
 40
1
 10
139.789447
 20
31.024334
 30
0.0
 10
140.225286
 20
30.772702
 30
0.0
 10
140.493774
 20
30.307668
 30
0.0
 10
140.493774
 20
29.804404
 30
0.0
  0
SPLINE
  5
206
100
AcDbEntity
  8
Layer_1
 62
7
100
AcDbSpline
 70
8
 71
3
 72
8
 73
4
 74
0
 40
0
 40
0
 40
0
 40
0
 40
1
 40
1
 40
1
 40
1
 10
140.493774
 20
29.804404
 30
0.0
 10
140.493774
 20
29.301140
 30
0.0
 10
140.225286
 20
28.836106
 30
0.0
 10
139.789447
 20
28.584474
 30
0.0
  0
SPLINE
  5
207
100
AcDbEntity
  8
Layer_1
 62
7
100
AcDbSpline
 70
8
 71
3
 72
8
 73
4
 74
0
 40
0
 40
0
 40
0
 40
0
 40
1
 40
1
 40
1
 40
1
 10
139.789447
 20
28.584474
 30
0.0
 10
139.353608
 20
28.332842
 30
0.0
 10
138.816632
 20
28.332842
 30
0.0
 10
138.380793
 20
28.584474
 30
0.0
  0
SPLINE
  5
208
100
AcDbEntity
  8
Layer_1
 62
7
100
AcDbSpline
 70
8
 71
3
 72
8
 73
4
 74
0
 40
0
 40
0
 40
0
 40
0
 40
1
 40
1
 40
1
 40
1
 10
138.380793
 20
28.584474
 30
0.0
 10
137.944954
 20
28.836106
 30
0.0
 10
137.676466
 20
29.301140
 30
0.0
 10
137.676466
 20
29.804404
 30
0.0
  0
LINE
  5
209
100
AcDbEntity
  8
Layer_1
 62
7
100
AcDbLine
 10
137.676466
 20
29.804404
 30
0.0
 11
137.676466
 21
29.804404
 31
0.0
  0
SPLINE
  5
20a
100
AcDbEntity
  8
Layer_1
 62
7
100
AcDbSpline
 70
8
 71
3
 72
8
 73
4
 74
0
 40
0
 40
0
 40
0
 40
0
 40
1
 40
1
 40
1
 40
1
 10
137.676466
 20
85.801614
 30
0.0
 10
137.676466
 20
86.304878
 30
0.0
 10
137.944954
 20
86.769912
 30
0.0
 10
138.380793
 20
87.021544
 30
0.0
  0
SPLINE
  5
20b
100
AcDbEntity
  8
Layer_1
 62
7
100
AcDbSpline
 70
8
 71
3
 72
8
 73
4
 74
0
 40
0
 40
0
 40
0
 40
0
 40
1
 40
1
 40
1
 40
1
 10
138.380793
 20
87.021544
 30
0.0
 10
138.816632
 20
87.273176
 30
0.0
 10
139.353608
 20
87.273176
 30
0.0
 10
139.789447
 20
87.021544
 30
0.0
  0
SPLINE
  5
20c
100
AcDbEntity
  8
Layer_1
 62
7
100
AcDbSpline
 70
8
 71
3
 72
8
 73
4
 74
0
 40
0
 40
0
 40
0
 40
0
 40
1
 40
1
 40
1
 40
1
 10
139.789447
 20
87.021544
 30
0.0
 10
140.225286
 20
86.769912
 30
0.0
 10
140.493774
 20
86.304878
 30
0.0
 10
140.493774
 20
85.801614
 30
0.0
  0
SPLINE
  5
20d
100
AcDbEntity
  8
Layer_1
 62
7
100
AcDbSpline
 70
8
 71
3
 72
8
 73
4
 74
0
 40
0
 40
0
 40
0
 40
0
 40
1
 40
1
 40
1
 40
1
 10
140.493774
 20
85.801614
 30
0.0
 10
140.493774
 20
85.298350
 30
0.0
 10
140.225286
 20
84.833316
 30
0.0
 10
139.789447
 20
84.581684
 30
0.0
  0
SPLINE
  5
20e
100
AcDbEntity
  8
Layer_1
 62
7
100
AcDbSpline
 70
8
 71
3
 72
8
 73
4
 74
0
 40
0
 40
0
 40
0
 40
0
 40
1
 40
1
 40
1
 40
1
 10
139.789447
 20
84.581684
 30
0.0
 10
139.353608
 20
84.330052
 30
0.0
 10
138.816632
 20
84.330052
 30
0.0
 10
138.380793
 20
84.581684
 30
0.0
  0
SPLINE
  5
20f
100
AcDbEntity
  8
Layer_1
 62
7
100
AcDbSpline
 70
8
 71
3
 72
8
 73
4
 74
0
 40
0
 40
0
 40
0
 40
0
 40
1
 40
1
 40
1
 40
1
 10
138.380793
 20
84.581684
 30
0.0
 10
137.944954
 20
84.833316
 30
0.0
 10
137.676466
 20
85.298350
 30
0.0
 10
137.676466
 20
85.801614
 30
0.0
  0
LINE
  5
210
100
AcDbEntity
  8
Layer_1
 62
7
100
AcDbLine
 10
137.676466
 20
85.801614
 30
0.0
 11
137.676466
 21
85.801614
 31
0.0
  0
SPLINE
  5
211
100
AcDbEntity
  8
Layer_1
 62
7
100
AcDbSpline
 70
8
 71
3
 72
8
 73
4
 74
0
 40
0
 40
0
 40
0
 40
0
 40
1
 40
1
 40
1
 40
1
 10
153.841476
 20
57.803004
 30
0.0
 10
153.841476
 20
58.306268
 30
0.0
 10
154.109964
 20
58.771302
 30
0.0
 10
154.545803
 20
59.022934
 30
0.0
  0
SPLINE
  5
212
100
AcDbEntity
  8
Layer_1
 62
7
100
AcDbSpline
 70
8
 71
3
 72
8
 73
4
 74
0
 40
0
 40
0
 40
0
 40
0
 40
1
 40
1
 40
1
 40
1
 10
154.545803
 20
59.022934
 30
0.0
 10
154.981642
 20
59.274566
 30
0.0
 10
155.518618
 20
59.274566
 30
0.0
 10
155.954457
 20
59.022934
 30
0.0
  0
SPLINE
  5
213
100
AcDbEntity
  8
Layer_1
 62
7
100
AcDbSpline
 70
8
 71
3
 72
8
 73
4
 74
0
 40
0
 40
0
 40
0
 40
0
 40
1
 40
1
 40
1
 40
1
 10
155.954457
 20
59.022934
 30
0.0
 10
156.390296
 20
58.771302
 30
0.0
 10
156.658784
 20
58.306268
 30
0.0
 10
156.658784
 20
57.803004
 30
0.0
  0
SPLINE
  5
214
100
AcDbEntity
  8
Layer_1
 62
7
100
AcDbSpline
 70
8
 71
3
 72
8
 73
4
 74
0
 40
0
 40
0
 40
0
 40
0
 40
1
 40
1
 40
1
 40
1
 10
156.658784
 20
57.803004
 30
0.0
 10
156.658784
 20
57.299740
 30
0.0
 10
156.390296
 20
56.834706
 30
0.0
 10
155.954457
 20
56.583074
 30
0.0
  0
SPLINE
  5
215
100
AcDbEntity
  8
Layer_1
 62
7
100
AcDbSpline
 70
8
 71
3
 72
8
 73
4
 74
0
 40
0
 40
0
 40
0
 40
0
 40
1
 40
1
 40
1
 40
1
 10
155.954457
 20
56.583074
 30
0.0
 10
155.518618
 20
56.331442
 30
0.0
 10
154.981642
 20
56.331442
 30
0.0
 10
154.545803
 20
56.583074
 30
0.0
  0
SPLINE
  5
216
100
AcDbEntity
  8
Layer_1
 62
7
100
AcDbSpline
 70
8
 71
3
 72
8
 73
4
 74
0
 40
0
 40
0
 40
0
 40
0
 40
1
 40
1
 40
1
 40
1
 10
154.545803
 20
56.583074
 30
0.0
 10
154.109964
 20
56.834706
 30
0.0
 10
153.841476
 20
57.299740
 30
0.0
 10
153.841476
 20
57.803004
 30
0.0
  0
LINE
  5
217
100
AcDbEntity
  8
Layer_1
 62
7
100
AcDbLine
 10
153.841476
 20
57.803004
 30
0.0
 11
153.841476
 21
57.803004
 31
0.0
  0
SPLINE
  5
218
100
AcDbEntity
  8
Layer_1
 62
7
100
AcDbSpline
 70
8
 71
3
 72
8
 73
4
 74
0
 40
0
 40
0
 40
0
 40
0
 40
1
 40
1
 40
1
 40
1
 10
89.181466
 20
57.803004
 30
0.0
 10
89.181466
 20
58.306268
 30
0.0
 10
89.449954
 20
58.771302
 30
0.0
 10
89.885793
 20
59.022934
 30
0.0
  0
SPLINE
  5
219
100
AcDbEntity
  8
Layer_1
 62
7
100
AcDbSpline
 70
8
 71
3
 72
8
 73
4
 74
0
 40
0
 40
0
 40
0
 40
0
 40
1
 40
1
 40
1
 40
1
 10
89.885793
 20
59.022934
 30
0.0
 10
90.321632
 20
59.274566
 30
0.0
 10
90.858608
 20
59.274566
 30
0.0
 10
91.294447
 20
59.022934
 30
0.0
  0
SPLINE
  5
21a
100
AcDbEntity
  8
Layer_1
 62
7
100
AcDbSpline
 70
8
 71
3
 72
8
 73
4
 74
0
 40
0
 40
0
 40
0
 40
0
 40
1
 40
1
 40
1
 40
1
 10
91.294447
 20
59.022934
 30
0.0
 10
91.730286
 20
58.771302
 30
0.0
 10
91.998774
 20
58.306268
 30
0.0
 10
91.998774
 20
57.803004
 30
0.0
  0
SPLINE
  5
21b
100
AcDbEntity
  8
Layer_1
 62
7
100
AcDbSpline
 70
8
 71
3
 72
8
 73
4
 74
0
 40
0
 40
0
 40
0
 40
0
 40
1
 40
1
 40
1
 40
1
 10
91.998774
 20
57.803004
 30
0.0
 10
91.998774
 20
57.299740
 30
0.0
 10
91.730286
 20
56.834706
 30
0.0
 10
91.294447
 20
56.583074
 30
0.0
  0
SPLINE
  5
21c
100
AcDbEntity
  8
Layer_1
 62
7
100
AcDbSpline
 70
8
 71
3
 72
8
 73
4
 74
0
 40
0
 40
0
 40
0
 40
0
 40
1
 40
1
 40
1
 40
1
 10
91.294447
 20
56.583074
 30
0.0
 10
90.858608
 20
56.331442
 30
0.0
 10
90.321632
 20
56.331442
 30
0.0
 10
89.885793
 20
56.583074
 30
0.0
  0
SPLINE
  5
21d
100
AcDbEntity
  8
Layer_1
 62
7
100
AcDbSpline
 70
8
 71
3
 72
8
 73
4
 74
0
 40
0
 40
0
 40
0
 40
0
 40
1
 40
1
 40
1
 40
1
 10
89.885793
 20
56.583074
 30
0.0
 10
89.449954
 20
56.834706
 30
0.0
 10
89.181466
 20
57.299740
 30
0.0
 10
89.181466
 20
57.803004
 30
0.0
  0
LINE
  5
21e
100
AcDbEntity
  8
Layer_1
 62
7
100
AcDbLine
 10
89.181466
 20
57.803004
 30
0.0
 11
89.181466
 21
57.803004
 31
0.0
  0
LINE
  5
21f
100
AcDbEntity
  8
Layer_1
 62
3
100
AcDbLine
 10
127.460378
 20
73.158195
 30
0.0
 11
127.460378
 21
73.158195
 31
0.0
  0
SPLINE
  5
220
100
AcDbEntity
  8
Layer_1
 62
3
100
AcDbSpline
 70
8
 71
3
 72
8
 73
4
 74
0
 40
0
 40
0
 40
0
 40
0
 40
1
 40
1
 40
1
 40
1
 10
136.346406
 20
66.525605
 30
0.0
 10
134.341893
 20
69.614809
 30
0.0
 10
131.268010
 20
72.032200
 30
0.0
 10
127.460378
 20
73.158195
 30
0.0
  0
LINE
  5
221
100
AcDbEntity
  8
Layer_1
 62
3
100
AcDbLine
 10
133.477184
 20
56.821838
 30
0.0
 11
136.346406
 21
66.525605
 31
0.0
  0
LINE
  5
222
100
AcDbEntity
  8
Layer_1
 62
3
100
AcDbLine
 10
129.876006
 20
63.934321
 30
0.0
 11
133.477184
 21
56.821838
 31
0.0
  0
SPLINE
  5
223
100
AcDbEntity
  8
Layer_1
 62
3
100
AcDbSpline
 70
8
 71
3
 72
8
 73
4
 74
0
 40
0
 40
0
 40
0
 40
0
 40
1
 40
1
 40
1
 40
1
 10
111.849827
 20
69.374837
 30
0.0
 10
117.866240
 20
67.587198
 30
0.0
 10
123.857128
 20
65.713999
 30
0.0
 10
129.876006
 20
63.934321
 30
0.0
  0
SPLINE
  5
224
100
AcDbEntity
  8
Layer_1
 62
3
100
AcDbSpline
 70
8
 71
3
 72
8
 73
4
 74
0
 40
0
 40
0
 40
0
 40
0
 40
1
 40
1
 40
1
 40
1
 10
127.460378
 20
73.158195
 30
0.0
 10
121.758936
 20
74.843993
 30
0.0
 10
115.862971
 20
73.206299
 30
0.0
 10
111.849827
 20
69.374837
 30
0.0
  0
LINE
  5
225
100
AcDbEntity
  8
Layer_1
 62
3
100
AcDbLine
 10
109.734191
 20
66.892737
 30
0.0
 11
109.734396
 21
66.892737
 31
0.0
  0
LINE
  5
226
100
AcDbEntity
  8
Layer_1
 62
3
100
AcDbLine
 10
109.667804
 20
66.668428
 30
0.0
 11
109.734054
 21
66.892737
 31
0.0
  0
LINE
  5
227
100
AcDbEntity
  8
Layer_1
 62
3
100
AcDbLine
 10
109.861589
 20
66.469900
 30
0.0
 11
109.667804
 21
66.668428
 31
0.0
  0
LINE
  5
228
100
AcDbEntity
  8
Layer_1
 62
3
100
AcDbLine
 10
115.571112
 20
59.965908
 30
0.0
 11
109.861589
 21
66.469900
 31
0.0
  0
LINE
  5
229
100
AcDbEntity
  8
Layer_1
 62
3
100
AcDbLine
 10
107.228911
 20
57.566098
 30
0.0
 11
115.571112
 21
59.965908
 31
0.0
  0
LINE
  5
22a
100
AcDbEntity
  8
Layer_1
 62
3
100
AcDbLine
 10
106.958262
 20
57.504744
 30
0.0
 11
107.228911
 21
57.566029
 31
0.0
  0
LINE
  5
22b
100
AcDbEntity
  8
Layer_1
 62
3
100
AcDbLine
 10
106.911390
 20
57.345538
 30
0.0
 11
106.958296
 21
57.504744
 31
0.0
  0
SPLINE
  5
22c
100
AcDbEntity
  8
Layer_1
 62
3
100
AcDbSpline
 70
8
 71
3
 72
8
 73
4
 74
0
 40
0
 40
0
 40
0
 40
0
 40
1
 40
1
 40
1
 40
1
 10
107.564972
 20
62.343224
 30
0.0
 10
107.072188
 20
60.676649
 30
0.0
 10
106.864536
 20
58.993470
 30
0.0
 10
106.911390
 20
57.345538
 30
0.0
  0
SPLINE
  5
22d
100
AcDbEntity
  8
Layer_1
 62
3
100
AcDbSpline
 70
8
 71
3
 72
8
 73
4
 74
0
 40
0
 40
0
 40
0
 40
0
 40
1
 40
1
 40
1
 40
1
 10
109.734345
 20
66.892737
 30
0.0
 10
108.798747
 20
65.535466
 30
0.0
 10
108.057722
 20
64.009832
 30
0.0
 10
107.564972
 20
62.343224
 30
0.0
  0
LINE
  5
22e
100
AcDbEntity
  8
Layer_1
 62
3
100
AcDbLine
 10
107.337085
 20
54.111799
 30
0.0
 11
107.337085
 21
54.111799
 31
0.0
  0
LINE
  5
22f
100
AcDbEntity
  8
Layer_1
 62
3
100
AcDbLine
 10
119.413855
 20
50.540956
 30
0.0
 11
107.337085
 21
54.111799
 31
0.0
  0
LINE
  5
230
100
AcDbEntity
  8
Layer_1
 62
3
100
AcDbLine
 10
120.160049
 20
50.320310
 30
0.0
 11
119.413855
 21
50.540956
 31
0.0
  0
LINE
  5
231
100
AcDbEntity
  8
Layer_1
 62
3
100
AcDbLine
 10
120.735569
 20
50.150149
 30
0.0
 11
120.160049
 21
50.320310
 31
0.0
  0
LINE
  5
232
100
AcDbEntity
  8
Layer_1
 62
3
100
AcDbLine
 10
121.178006
 20
50.019326
 30
0.0
 11
120.735569
 21
50.150114
 31
0.0
  0
LINE
  5
233
100
AcDbEntity
  8
Layer_1
 62
3
100
AcDbLine
 10
130.185155
 20
54.907553
 30
0.0
 11
121.178006
 21
50.019326
 31
0.0
  0
LINE
  5
234
100
AcDbEntity
  8
Layer_1
 62
3
100
AcDbLine
 10
131.907092
 20
51.511339
 30
0.0
 11
130.185155
 21
54.907553
 31
0.0
  0
LINE
  5
235
100
AcDbEntity
  8
Layer_1
 62
3
100
AcDbLine
 10
129.444079
 20
43.181447
 30
0.0
 11
131.907092
 21
51.511339
 31
0.0
  0
SPLINE
  5
236
100
AcDbEntity
  8
Layer_1
 62
3
100
AcDbSpline
 70
8
 71
3
 72
8
 73
4
 74
0
 40
0
 40
0
 40
0
 40
0
 40
1
 40
1
 40
1
 40
1
 10
118.379909
 20
42.447852
 30
0.0
 10
122.187575
 20
41.322012
 30
0.0
 10
126.081760
 20
41.679385
 30
0.0
 10
129.444079
 20
43.181447
 30
0.0
  0
SPLINE
  5
237
100
AcDbEntity
  8
Layer_1
 62
3
100
AcDbSpline
 70
8
 71
3
 72
8
 73
4
 74
0
 40
0
 40
0
 40
0
 40
0
 40
1
 40
1
 40
1
 40
1
 10
107.337085
 20
54.111799
 30
0.0
 10
108.621053
 20
48.714132
 30
0.0
 10
112.678552
 20
44.133651
 30
0.0
 10
118.379909
 20
42.447852
 30
0.0
  0
LINE
  5
238
100
AcDbEntity
  8
Layer_1
 62
3
100
AcDbLine
 10
134.434061
 20
46.672996
 30
0.0
 11
134.434061
 21
46.672996
 31
0.0
  0
LINE
  5
239
100
AcDbEntity
  8
Layer_1
 62
3
100
AcDbLine
 10
138.635100
 20
60.881973
 30
0.0
 11
134.434061
 21
46.672996
 31
0.0
  0
SPLINE
  5
23a
100
AcDbEntity
  8
Layer_1
 62
3
100
AcDbSpline
 70
8
 71
3
 72
8
 73
4
 74
0
 40
0
 40
0
 40
0
 40
0
 40
1
 40
1
 40
1
 40
1
 10
138.275407
 20
53.262874
 30
0.0
 10
139.033202
 20
55.826238
 30
0.0
 10
139.118572
 20
58.428872
 30
0.0
 10
138.635100
 20
60.881973
 30
0.0
  0
SPLINE
  5
23b
100
AcDbEntity
  8
Layer_1
 62
3
100
AcDbSpline
 70
8
 71
3
 72
8
 73
4
 74
0
 40
0
 40
0
 40
0
 40
0
 40
1
 40
1
 40
1
 40
1
 10
134.434061
 20
46.672996
 30
0.0
 10
136.173538
 20
48.468801
 30
0.0
 10
137.517275
 20
50.699374
 30
0.0
 10
138.275407
 20
53.262874
 30
0.0
  0
LINE
  5
23c
100
AcDbEntity
  8
Layer_1
 62
3
100
AcDbLine
 10
126.856561
 20
61.232585
 30
0.0
 11
126.856663
 21
61.232585
 31
0.0
  0
LINE
  5
23d
100
AcDbEntity
  8
Layer_1
 62
3
100
AcDbLine
 10
116.249824
 20
64.368849
 30
0.0
 11
126.856561
 21
61.232585
 31
0.0
  0
LINE
  5
23e
100
AcDbEntity
  8
Layer_1
 62
3
100
AcDbLine
 10
121.973401
 20
58.083054
 30
0.0
 11
116.249824
 21
64.368849
 31
0.0
  0
LINE
  5
23f
100
AcDbEntity
  8
Layer_1
 62
3
100
AcDbLine
 10
113.719602
 20
55.879135
 30
0.0
 11
121.973401
 21
58.083054
 31
0.0
  0
LINE
  5
240
100
AcDbEntity
  8
Layer_1
 62
3
100
AcDbLine
 10
120.407469
 20
53.901682
 30
0.0
 11
113.719602
 21
55.879135
 31
0.0
  0
LINE
  5
241
100
AcDbEntity
  8
Layer_1
 62
3
100
AcDbLine
 10
120.435013
 20
53.994535
 30
0.0
 11
120.407451
 21
53.901751
 31
0.0
  0
LINE
  5
242
100
AcDbEntity
  8
Layer_1
 62
3
100
AcDbLine
 10
128.334998
 20
58.483670
 30
0.0
 11
120.435013
 21
53.994535
 31
0.0
  0
SPLINE
  5
243
100
AcDbEntity
  8
Layer_1
 62
3
100
AcDbSpline
 70
8
 71
3
 72
8
 73
4
 74
0
 40
0
 40
0
 40
0
 40
0
 40
1
 40
1
 40
1
 40
1
 10
126.856663
 20
61.232585
 30
0.0
 10
127.357476
 20
60.302653
 30
0.0
 10
127.872737
 20
59.438629
 30
0.0
 10
128.334998
 20
58.483670
 30
0.0
  0
LINE
  5
244
100
AcDbEntity
  8
Layer_1
 62
3
100
AcDbLine
 10
99.163780
 20
62.524016
 30
0.0
 11
99.163780
 21
62.524016
 31
0.0
  0
SPLINE
  5
245
100
AcDbEntity
  8
Layer_1
 62
3
100
AcDbSpline
 70
8
 71
3
 72
8
 73
4
 74
0
 40
0
 40
0
 40
0
 40
0
 40
1
 40
1
 40
1
 40
1
 10
100.697340
 20
63.395042
 30
0.0
 10
100.310693
 20
62.926806
 30
0.0
 10
99.762290
 20
62.616235
 30
0.0
 10
99.163780
 20
62.524016
 30
0.0
  0
LINE
  5
246
100
AcDbEntity
  8
Layer_1
 62
3
100
AcDbLine
 10
104.823880
 20
62.174894
 30
0.0
 11
100.697340
 21
63.395042
 31
0.0
  0
SPLINE
  5
247
100
AcDbEntity
  8
Layer_1
 62
3
100
AcDbSpline
 70
8
 71
3
 72
8
 73
4
 74
0
 40
0
 40
0
 40
0
 40
0
 40
1
 40
1
 40
1
 40
1
 10
116.728365
 20
40.275158
 30
0.0
 10
107.651302
 20
43.331939
 30
0.0
 10
102.453001
 20
52.894921
 30
0.0
 10
104.823880
 20
62.174894
 30
0.0
  0
LINE
  5
248
100
AcDbEntity
  8
Layer_1
 62
3
100
AcDbLine
 10
115.527390
 20
36.213516
 30
0.0
 11
116.728365
 21
40.275158
 31
0.0
  0
SPLINE
  5
249
100
AcDbEntity
  8
Layer_1
 62
3
100
AcDbSpline
 70
8
 71
3
 72
8
 73
4
 74
0
 40
0
 40
0
 40
0
 40
0
 40
1
 40
1
 40
1
 40
1
 10
113.880537
 20
35.360208
 30
0.0
 10
114.296663
 20
35.845066
 30
0.0
 10
114.889078
 20
36.153360
 30
0.0
 10
115.527390
 20
36.213516
 30
0.0
  0
SPLINE
  5
24a
100
AcDbEntity
  8
Layer_1
 62
3
100
AcDbSpline
 70
8
 71
3
 72
8
 73
4
 74
0
 40
0
 40
0
 40
0
 40
0
 40
1
 40
1
 40
1
 40
1
 10
99.163780
 20
62.524016
 30
0.0
 10
96.775166
 20
51.109559
 30
0.0
 10
103.020440
 20
39.591430
 30
0.0
 10
113.880537
 20
35.360208
 30
0.0
  0
LINE
  5
24b
100
AcDbEntity
  8
Layer_1
 62
3
100
AcDbLine
 10
95.760632
 20
64.854734
 30
0.0
 11
95.760632
 21
64.854734
 31
0.0
  0
LINE
  5
24c
100
AcDbEntity
  8
Layer_1
 62
3
100
AcDbLine
 10
96.331119
 20
64.685942
 30
0.0
 11
95.760632
 21
64.854734
 31
0.0
  0
SPLINE
  5
24d
100
AcDbEntity
  8
Layer_1
 62
3
100
AcDbSpline
 70
8
 71
3
 72
8
 73
4
 74
0
 40
0
 40
0
 40
0
 40
0
 40
1
 40
1
 40
1
 40
1
 10
97.227001
 20
63.050490
 30
0.0
 10
96.727729
 20
63.457200
 30
0.0
 10
96.405192
 20
64.046655
 30
0.0
 10
96.331119
 20
64.685942
 30
0.0
  0
SPLINE
  5
24e
100
AcDbEntity
  8
Layer_1
 62
3
100
AcDbSpline
 70
8
 71
3
 72
8
 73
4
 74
0
 40
0
 40
0
 40
0
 40
0
 40
1
 40
1
 40
1
 40
1
 10
113.305565
 20
33.433907
 30
0.0
 10
101.403391
 20
37.983967
 30
0.0
 10
94.558802
 20
50.588169
 30
0.0
 10
97.227001
 20
63.050490
 30
0.0
  0
SPLINE
  5
24f
100
AcDbEntity
  8
Layer_1
 62
3
100
AcDbSpline
 70
8
 71
3
 72
8
 73
4
 74
0
 40
0
 40
0
 40
0
 40
0
 40
1
 40
1
 40
1
 40
1
 10
114.225208
 20
31.809428
 30
0.0
 10
113.718969
 20
32.209856
 30
0.0
 10
113.388318
 20
32.795646
 30
0.0
 10
113.305565
 20
33.433907
 30
0.0
  0
LINE
  5
250
100
AcDbEntity
  8
Layer_1
 62
3
100
AcDbLine
 10
114.048524
 20
31.211842
 30
0.0
 11
114.225208
 21
31.809428
 31
0.0
  0
SPLINE
  5
251
100
AcDbEntity
  8
Layer_1
 62
3
100
AcDbSpline
 70
8
 71
3
 72
8
 73
4
 74
0
 40
0
 40
0
 40
0
 40
0
 40
1
 40
1
 40
1
 40
1
 10
95.760632
 20
64.854649
 30
0.0
 10
91.916554
 20
50.570537
 30
0.0
 10
99.970952
 20
35.753925
 30
0.0
 10
114.048524
 20
31.211842
 30
0.0
  0
LINE
  5
252
100
AcDbEntity
  8
Layer_1
 62
3
100
AcDbLine
 10
145.408818
 20
48.807720
 30
0.0
 11
145.408818
 21
48.807720
 31
0.0
  0
SPLINE
  5
253
100
AcDbEntity
  8
Layer_1
 62
3
100
AcDbSpline
 70
8
 71
3
 72
8
 73
4
 74
0
 40
0
 40
0
 40
0
 40
0
 40
1
 40
1
 40
1
 40
1
 10
144.519999
 20
50.437523
 30
0.0
 10
144.593781
 20
49.801180
 30
0.0
 10
144.913656
 20
49.214328
 30
0.0
 10
145.408818
 20
48.807720
 30
0.0
  0
LINE
  5
254
100
AcDbEntity
  8
Layer_1
 62
3
100
AcDbLine
 10
140.484052
 20
51.630863
 30
0.0
 11
144.519999
 21
50.437523
 31
0.0
  0
SPLINE
  5
255
100
AcDbEntity
  8
Layer_1
 62
3
100
AcDbSpline
 70
8
 71
3
 72
8
 73
4
 74
0
 40
0
 40
0
 40
0
 40
0
 40
1
 40
1
 40
1
 40
1
 10
118.584359
 20
39.726430
 30
0.0
 10
127.864195
 20
37.355448
 30
0.0
 10
137.427126
 20
42.553766
 30
0.0
 10
140.484052
 20
51.630863
 30
0.0
  0
LINE
  5
256
100
AcDbEntity
  8
Layer_1
 62
3
100
AcDbLine
 10
117.372000
 20
35.626116
 30
0.0
 11
118.584359
 21
39.726430
 31
0.0
  0
SPLINE
  5
257
100
AcDbEntity
  8
Layer_1
 62
3
100
AcDbSpline
 70
8
 71
3
 72
8
 73
4
 74
0
 40
0
 40
0
 40
0
 40
0
 40
1
 40
1
 40
1
 40
1
 10
118.211870
 20
34.070917
 30
0.0
 10
118.132609
 20
34.673861
 30
0.0
 10
117.832413
 20
35.229660
 30
0.0
 10
117.372000
 20
35.626116
 30
0.0
  0
SPLINE
  5
258
100
AcDbEntity
  8
Layer_1
 62
3
100
AcDbSpline
 70
8
 71
3
 72
8
 73
4
 74
0
 40
0
 40
0
 40
0
 40
0
 40
1
 40
1
 40
1
 40
1
 10
145.408818
 20
48.807720
 30
0.0
 10
141.182807
 20
37.924822
 30
0.0
 10
129.642607
 20
31.667187
 30
0.0
 10
118.211870
 20
34.070917
 30
0.0
  0
LINE
  5
259
100
AcDbEntity
  8
Layer_1
 62
3
100
AcDbLine
 10
149.547334
 20
48.951074
 30
0.0
 11
149.547334
 21
48.951074
 31
0.0
  0
LINE
  5
25a
100
AcDbEntity
  8
Layer_1
 62
3
100
AcDbLine
 10
148.886215
 20
49.146537
 30
0.0
 11
149.547334
 21
48.951074
 31
0.0
  0
SPLINE
  5
25b
100
AcDbEntity
  8
Layer_1
 62
3
100
AcDbSpline
 70
8
 71
3
 72
8
 73
4
 74
0
 40
0
 40
0
 40
0
 40
0
 40
1
 40
1
 40
1
 40
1
 10
147.351448
 20
48.275306
 30
0.0
 10
147.950435
 20
48.367235
 30
0.0
 10
148.499178
 20
48.677994
 30
0.0
 10
148.886215
 20
49.146537
 30
0.0
  0
SPLINE
  5
25c
100
AcDbEntity
  8
Layer_1
 62
3
100
AcDbSpline
 70
8
 71
3
 72
8
 73
4
 74
0
 40
0
 40
0
 40
0
 40
0
 40
1
 40
1
 40
1
 40
1
 10
117.640373
 20
32.144427
 30
0.0
 10
130.148538
 20
29.431239
 30
0.0
 10
142.815072
 20
36.309844
 30
0.0
 10
147.351448
 20
48.275306
 30
0.0
  0
SPLINE
  5
25d
100
AcDbEntity
  8
Layer_1
 62
3
100
AcDbSpline
 70
8
 71
3
 72
8
 73
4
 74
0
 40
0
 40
0
 40
0
 40
0
 40
1
 40
1
 40
1
 40
1
 10
116.092655
 20
31.299320
 30
0.0
 10
116.693340
 20
31.381490
 30
0.0
 10
117.246468
 20
31.683519
 30
0.0
 10
117.640373
 20
32.144427
 30
0.0
  0
LINE
  5
25e
100
AcDbEntity
  8
Layer_1
 62
3
100
AcDbLine
 10
115.904519
 20
30.663182
 30
0.0
 11
116.092655
 21
31.299320
 31
0.0
  0
SPLINE
  5
25f
100
AcDbEntity
  8
Layer_1
 62
3
100
AcDbSpline
 70
8
 71
3
 72
8
 73
4
 74
0
 40
0
 40
0
 40
0
 40
0
 40
1
 40
1
 40
1
 40
1
 10
149.547334
 20
48.951074
 30
0.0
 10
145.005353
 20
34.873296
 30
0.0
 10
130.188545
 20
26.819241
 30
0.0
 10
115.904519
 20
30.663182
 30
0.0
  0
LINE
  5
260
100
AcDbEntity
  8
Layer_1
 62
3
100
AcDbLine
 10
100.437561
 20
66.813356
 30
0.0
 11
100.437561
 21
66.813356
 31
0.0
  0
SPLINE
  5
261
100
AcDbEntity
  8
Layer_1
 62
3
100
AcDbSpline
 70
8
 71
3
 72
8
 73
4
 74
0
 40
0
 40
0
 40
0
 40
0
 40
1
 40
1
 40
1
 40
1
 10
101.253088
 20
65.188398
 30
0.0
 10
101.197109
 20
65.814145
 30
0.0
 10
100.903109
 20
66.396512
 30
0.0
 10
100.437561
 20
66.813356
 30
0.0
  0
LINE
  5
262
100
AcDbEntity
  8
Layer_1
 62
3
100
AcDbLine
 10
105.356243
 20
63.975149
 30
0.0
 11
101.253088
 21
65.188398
 31
0.0
  0
SPLINE
  5
263
100
AcDbEntity
  8
Layer_1
 62
3
100
AcDbSpline
 70
8
 71
3
 72
8
 73
4
 74
0
 40
0
 40
0
 40
0
 40
0
 40
1
 40
1
 40
1
 40
1
 10
127.255978
 20
75.879634
 30
0.0
 10
117.976160
 20
78.250616
 30
0.0
 10
108.413212
 20
73.052297
 30
0.0
 10
105.356243
 20
63.975149
 30
0.0
  0
LINE
  5
264
100
AcDbEntity
  8
Layer_1
 62
3
100
AcDbLine
 10
128.473764
 20
79.998299
 30
0.0
 11
127.255978
 21
75.879634
 31
0.0
  0
SPLINE
  5
265
100
AcDbEntity
  8
Layer_1
 62
3
100
AcDbSpline
 70
8
 71
3
 72
8
 73
4
 74
0
 40
0
 40
0
 40
0
 40
0
 40
1
 40
1
 40
1
 40
1
 10
127.564940
 20
81.547900
 30
0.0
 10
127.663031
 20
80.938913
 30
0.0
 10
127.987434
 20
80.383012
 30
0.0
 10
128.473764
 20
79.998299
 30
0.0
  0
SPLINE
  5
266
100
AcDbEntity
  8
Layer_1
 62
3
100
AcDbSpline
 70
8
 71
3
 72
8
 73
4
 74
0
 40
0
 40
0
 40
0
 40
0
 40
1
 40
1
 40
1
 40
1
 10
100.437561
 20
66.813356
 30
0.0
 10
104.660480
 20
77.666639
 30
0.0
 10
116.160395
 20
83.914037
 30
0.0
 10
127.564940
 20
81.547900
 30
0.0
  0
LINE
  5
267
100
AcDbEntity
  8
Layer_1
 62
3
100
AcDbLine
 10
96.293012
 20
66.654990
 30
0.0
 11
96.293012
 21
66.654990
 31
0.0
  0
LINE
  5
268
100
AcDbEntity
  8
Layer_1
 62
3
100
AcDbLine
 10
96.840115
 20
66.493216
 30
0.0
 11
96.293012
 21
66.654990
 31
0.0
  0
SPLINE
  5
269
100
AcDbEntity
  8
Layer_1
 62
3
100
AcDbSpline
 70
8
 71
3
 72
8
 73
4
 74
0
 40
0
 40
0
 40
0
 40
0
 40
1
 40
1
 40
1
 40
1
 10
98.527403
 20
67.429140
 30
0.0
 10
97.863824
 20
67.358267
 30
0.0
 10
97.252115
 20
67.019587
 30
0.0
 10
96.840115
 20
66.493216
 30
0.0
  0
SPLINE
  5
26a
100
AcDbEntity
  8
Layer_1
 62
3
100
AcDbSpline
 70
8
 71
3
 72
8
 73
4
 74
0
 40
0
 40
0
 40
0
 40
0
 40
1
 40
1
 40
1
 40
1
 10
128.078027
 20
83.487366
 30
0.0
 10
115.643918
 20
86.122218
 30
0.0
 10
103.081076
 20
79.294696
 30
0.0
 10
98.527403
 20
67.429140
 30
0.0
  0
SPLINE
  5
26b
100
AcDbEntity
  8
Layer_1
 62
3
100
AcDbSpline
 70
8
 71
3
 72
8
 73
4
 74
0
 40
0
 40
0
 40
0
 40
0
 40
1
 40
1
 40
1
 40
1
 10
129.775946
 20
84.402319
 30
0.0
 10
129.110963
 20
84.339492
 30
0.0
 10
128.495984
 20
84.007900
 30
0.0
 10
128.078027
 20
83.487366
 30
0.0
  0
LINE
  5
26c
100
AcDbEntity
  8
Layer_1
 62
3
100
AcDbLine
 10
129.935768
 20
84.942847
 30
0.0
 11
129.775877
 21
84.402319
 31
0.0
  0
SPLINE
  5
26d
100
AcDbEntity
  8
Layer_1
 62
3
100
AcDbSpline
 70
8
 71
3
 72
8
 73
4
 74
0
 40
0
 40
0
 40
0
 40
0
 40
1
 40
1
 40
1
 40
1
 10
96.293012
 20
66.654973
 30
0.0
 10
100.834993
 20
80.732733
 30
0.0
 10
115.651759
 20
88.786754
 30
0.0
 10
129.935768
 20
84.942847
 30
0.0
  0
LINE
  5
26e
100
AcDbEntity
  8
Layer_1
 62
3
100
AcDbLine
 10
146.695690
 20
53.178410
 30
0.0
 11
146.695690
 21
53.178410
 31
0.0
  0
SPLINE
  5
26f
100
AcDbEntity
  8
Layer_1
 62
3
100
AcDbSpline
 70
8
 71
3
 72
8
 73
4
 74
0
 40
0
 40
0
 40
0
 40
0
 40
1
 40
1
 40
1
 40
1
 10
145.028931
 20
52.244712
 30
0.0
 10
145.436598
 20
52.765674
 30
0.0
 10
146.039839
 20
53.102847
 30
0.0
 10
146.695690
 20
53.178410
 30
0.0
  0
LINE
  5
270
100
AcDbEntity
  8
Layer_1
 62
3
100
AcDbLine
 10
141.016367
 20
53.431136
 30
0.0
 11
145.028931
 21
52.244712
 31
0.0
  0
SPLINE
  5
271
100
AcDbEntity
  8
Layer_1
 62
3
100
AcDbSpline
 70
8
 71
3
 72
8
 73
4
 74
0
 40
0
 40
0
 40
0
 40
0
 40
1
 40
1
 40
1
 40
1
 10
129.111922
 20
75.330871
 30
0.0
 10
138.188929
 20
72.274039
 30
0.0
 10
143.387246
 20
62.711108
 30
0.0
 10
141.016367
 20
53.431136
 30
0.0
  0
LINE
  5
272
100
AcDbEntity
  8
Layer_1
 62
3
100
AcDbLine
 10
130.341108
 20
79.488139
 30
0.0
 11
129.111922
 21
75.330871
 31
0.0
  0
SPLINE
  5
273
100
AcDbEntity
  8
Layer_1
 62
3
100
AcDbSpline
 70
8
 71
3
 72
8
 73
4
 74
0
 40
0
 40
0
 40
0
 40
0
 40
1
 40
1
 40
1
 40
1
 10
131.850411
 20
80.289166
 30
0.0
 10
131.459228
 20
79.852857
 30
0.0
 10
130.922465
 20
79.567708
 30
0.0
 10
130.341108
 20
79.488139
 30
0.0
  0
SPLINE
  5
274
100
AcDbEntity
  8
Layer_1
 62
3
100
AcDbSpline
 70
8
 71
3
 72
8
 73
4
 74
0
 40
0
 40
0
 40
0
 40
0
 40
1
 40
1
 40
1
 40
1
 10
146.695690
 20
53.178410
 30
0.0
 10
149.036904
 20
64.599629
 30
0.0
 10
142.747577
 20
76.104953
 30
0.0
 10
131.850411
 20
80.289166
 30
0.0
  0
LINE
  5
275
100
AcDbEntity
  8
Layer_1
 62
3
100
AcDbLine
 10
150.079601
 20
50.751295
 30
0.0
 11
150.079601
 21
50.751295
 31
0.0
  0
LINE
  5
276
100
AcDbEntity
  8
Layer_1
 62
3
100
AcDbLine
 10
149.441866
 20
50.939860
 30
0.0
 11
150.079601
 21
50.751295
 31
0.0
  0
SPLINE
  5
277
100
AcDbEntity
  8
Layer_1
 62
3
100
AcDbSpline
 70
8
 71
3
 72
8
 73
4
 74
0
 40
0
 40
0
 40
0
 40
0
 40
1
 40
1
 40
1
 40
1
 10
148.616820
 20
52.573240
 30
0.0
 10
149.087826
 20
52.155968
 30
0.0
 10
149.385533
 20
51.569920
 30
0.0
 10
149.441866
 20
50.939860
 30
0.0
  0
SPLINE
  5
278
100
AcDbEntity
  8
Layer_1
 62
3
100
AcDbSpline
 70
8
 71
3
 72
8
 73
4
 74
0
 40
0
 40
0
 40
0
 40
0
 40
1
 40
1
 40
1
 40
1
 10
132.467667
 20
82.197972
 30
0.0
 10
144.405400
 20
77.671998
 30
0.0
 10
151.279703
 20
65.053433
 30
0.0
 10
148.616820
 20
52.573240
 30
0.0
  0
SPLINE
  5
279
100
AcDbEntity
  8
Layer_1
 62
3
100
AcDbSpline
 70
8
 71
3
 72
8
 73
4
 74
0
 40
0
 40
0
 40
0
 40
0
 40
1
 40
1
 40
1
 40
1
 10
131.620505
 20
83.814936
 30
0.0
 10
132.096769
 20
83.404887
 30
0.0
 10
132.401571
 20
82.824506
 30
0.0
 10
132.467667
 20
82.197972
 30
0.0
  0
LINE
  5
27a
100
AcDbEntity
  8
Layer_1
 62
3
100
AcDbLine
 10
131.791711
 20
84.394102
 30
0.0
 11
131.620505
 21
83.814936
 31
0.0
  0
SPLINE
  5
27b
100
AcDbEntity
  8
Layer_1
 62
3
100
AcDbSpline
 70
8
 71
3
 72
8
 73
4
 74
0
 40
0
 40
0
 40
0
 40
0
 40
1
 40
1
 40
1
 40
1
 10
150.079601
 20
50.751295
 30
0.0
 10
153.923695
 20
65.035407
 30
0.0
 10
145.869292
 20
79.852035
 30
0.0
 10
131.791711
 20
84.394102
 30
0.0
  0
LINE
  5
27c
100
AcDbEntity
  8
Layer_1
 62
3
100
AcDbLine
 10
147.274291
 20
51.723750
 30
0.0
 11
147.274291
 21
51.723750
 31
0.0
  0
LINE
  5
27d
100
AcDbEntity
  8
Layer_1
 62
3
100
AcDbLine
 10
147.634563
 20
51.344584
 30
0.0
 11
147.274291
 21
51.723750
 31
0.0
  0
LINE
  5
27e
100
AcDbEntity
  8
Layer_1
 62
3
100
AcDbLine
 10
147.994737
 20
50.965333
 30
0.0
 11
147.634563
 21
51.344584
 31
0.0
  0
LINE
  5
27f
100
AcDbEntity
  8
Layer_1
 62
3
100
AcDbLine
 10
147.846416
 20
50.463784
 30
0.0
 11
147.994734
 21
50.965333
 31
0.0
  0
LINE
  5
280
100
AcDbEntity
  8
Layer_1
 62
3
100
AcDbLine
 10
147.698143
 20
49.962252
 30
0.0
 11
147.846409
 21
50.463784
 31
0.0
  0
LINE
  5
281
100
AcDbEntity
  8
Layer_1
 62
3
100
AcDbLine
 10
147.189645
 20
49.839818
 30
0.0
 11
147.698143
 21
49.962218
 31
0.0
  0
LINE
  5
282
100
AcDbEntity
  8
Layer_1
 62
3
100
AcDbLine
 10
146.681100
 20
49.717537
 30
0.0
 11
147.189645
 21
49.839766
 31
0.0
  0
LINE
  5
283
100
AcDbEntity
  8
Layer_1
 62
3
100
AcDbLine
 10
146.320780
 20
50.096652
 30
0.0
 11
146.681100
 21
49.717486
 31
0.0
  0
LINE
  5
284
100
AcDbEntity
  8
Layer_1
 62
3
100
AcDbLine
 10
145.960604
 20
50.475904
 30
0.0
 11
146.320780
 21
50.096652
 31
0.0
  0
LINE
  5
285
100
AcDbEntity
  8
Layer_1
 62
3
100
AcDbLine
 10
146.108925
 20
50.977504
 30
0.0
 11
145.960607
 21
50.475904
 31
0.0
  0
LINE
  5
286
100
AcDbEntity
  8
Layer_1
 62
3
100
AcDbLine
 10
146.257199
 20
51.479036
 30
0.0
 11
146.108932
 21
50.977504
 31
0.0
  0
LINE
  5
287
100
AcDbEntity
  8
Layer_1
 62
3
100
AcDbLine
 10
146.765696
 20
51.601470
 30
0.0
 11
146.257199
 21
51.479070
 31
0.0
  0
LINE
  5
288
100
AcDbEntity
  8
Layer_1
 62
3
100
AcDbLine
 10
147.274291
 20
51.723699
 30
0.0
 11
146.765696
 21
51.601470
 31
0.0
  0
LINE
  5
289
100
AcDbEntity
  8
Layer_1
 62
3
100
AcDbLine
 10
147.426671
 20
52.239063
 30
0.0
 11
147.426671
 21
52.239063
 31
0.0
  0
SPLINE
  5
28a
100
AcDbEntity
  8
Layer_1
 62
3
100
AcDbSpline
 70
8
 71
3
 72
8
 73
4
 74
0
 40
0
 40
0
 40
0
 40
0
 40
1
 40
1
 40
1
 40
1
 10
148.496134
 20
50.271641
 30
0.0
 10
148.744077
 20
51.110175
 30
0.0
 10
148.265195
 20
51.991113
 30
0.0
 10
147.426671
 20
52.239063
 30
0.0
  0
SPLINE
  5
28b
100
AcDbEntity
  8
Layer_1
 62
3
100
AcDbSpline
 70
8
 71
3
 72
8
 73
4
 74
0
 40
0
 40
0
 40
0
 40
0
 40
1
 40
1
 40
1
 40
1
 10
146.528719
 20
49.202174
 30
0.0
 10
147.367245
 20
48.954241
 30
0.0
 10
148.248189
 20
49.433073
 30
0.0
 10
148.496134
 20
50.271641
 30
0.0
  0
SPLINE
  5
28c
100
AcDbEntity
  8
Layer_1
 62
3
100
AcDbSpline
 70
8
 71
3
 72
8
 73
4
 74
0
 40
0
 40
0
 40
0
 40
0
 40
1
 40
1
 40
1
 40
1
 10
145.459209
 20
51.169595
 30
0.0
 10
145.211314
 20
50.331027
 30
0.0
 10
145.690146
 20
49.450123
 30
0.0
 10
146.528719
 20
49.202174
 30
0.0
  0
SPLINE
  5
28d
100
AcDbEntity
  8
Layer_1
 62
3
100
AcDbSpline
 70
8
 71
3
 72
8
 73
4
 74
0
 40
0
 40
0
 40
0
 40
0
 40
1
 40
1
 40
1
 40
1
 10
147.426671
 20
52.239063
 30
0.0
 10
146.588096
 20
52.486995
 30
0.0
 10
145.707152
 20
52.008112
 30
0.0
 10
145.459209
 20
51.169595
 30
0.0
  0
LINE
  5
28e
100
AcDbEntity
  8
Layer_1
 62
3
100
AcDbLine
 10
99.085461
 20
65.972203
 30
0.0
 11
99.085461
 21
65.972203
 31
0.0
  0
LINE
  5
28f
100
AcDbEntity
  8
Layer_1
 62
3
100
AcDbLine
 10
99.445779
 20
65.593037
 30
0.0
 11
99.085461
 21
65.972203
 31
0.0
  0
LINE
  5
290
100
AcDbEntity
  8
Layer_1
 62
3
100
AcDbLine
 10
99.805909
 20
65.213786
 30
0.0
 11
99.445779
 21
65.593037
 31
0.0
  0
LINE
  5
291
100
AcDbEntity
  8
Layer_1
 62
3
100
AcDbLine
 10
99.657642
 20
64.712237
 30
0.0
 11
99.805892
 21
65.213786
 31
0.0
  0
LINE
  5
292
100
AcDbEntity
  8
Layer_1
 62
3
100
AcDbLine
 10
99.509324
 20
64.210654
 30
0.0
 11
99.657574
 21
64.712237
 31
0.0
  0
LINE
  5
293
100
AcDbEntity
  8
Layer_1
 62
3
100
AcDbLine
 10
99.000877
 20
64.088236
 30
0.0
 11
99.509324
 21
64.210636
 31
0.0
  0
LINE
  5
294
100
AcDbEntity
  8
Layer_1
 62
3
100
AcDbLine
 10
98.492275
 20
63.965991
 30
0.0
 11
99.000877
 21
64.088219
 31
0.0
  0
LINE
  5
295
100
AcDbEntity
  8
Layer_1
 62
3
100
AcDbLine
 10
98.131957
 20
64.345157
 30
0.0
 11
98.492275
 21
63.965991
 31
0.0
  0
LINE
  5
296
100
AcDbEntity
  8
Layer_1
 62
3
100
AcDbLine
 10
97.771827
 20
64.724425
 30
0.0
 11
98.131957
 21
64.345157
 31
0.0
  0
LINE
  5
297
100
AcDbEntity
  8
Layer_1
 62
3
100
AcDbLine
 10
97.920093
 20
65.225957
 30
0.0
 11
97.771844
 21
64.724425
 31
0.0
  0
LINE
  5
298
100
AcDbEntity
  8
Layer_1
 62
3
100
AcDbLine
 10
98.068428
 20
65.727506
 30
0.0
 11
97.920179
 21
65.225957
 31
0.0
  0
LINE
  5
299
100
AcDbEntity
  8
Layer_1
 62
3
100
AcDbLine
 10
98.576928
 20
65.849923
 30
0.0
 11
98.068428
 21
65.727523
 31
0.0
  0
LINE
  5
29a
100
AcDbEntity
  8
Layer_1
 62
3
100
AcDbLine
 10
99.085461
 20
65.972203
 30
0.0
 11
98.576928
 21
65.849974
 31
0.0
  0
LINE
  5
29b
100
AcDbEntity
  8
Layer_1
 62
3
100
AcDbLine
 10
99.237853
 20
66.487567
 30
0.0
 11
99.237853
 21
66.487567
 31
0.0
  0
SPLINE
  5
29c
100
AcDbEntity
  8
Layer_1
 62
3
100
AcDbSpline
 70
8
 71
3
 72
8
 73
4
 74
0
 40
0
 40
0
 40
0
 40
0
 40
1
 40
1
 40
1
 40
1
 10
100.307304
 20
64.520094
 30
0.0
 10
100.555254
 20
65.358680
 30
0.0
 10
100.076370
 20
66.239617
 30
0.0
 10
99.237853
 20
66.487567
 30
0.0
  0
SPLINE
  5
29d
100
AcDbEntity
  8
Layer_1
 62
3
100
AcDbSpline
 70
8
 71
3
 72
8
 73
4
 74
0
 40
0
 40
0
 40
0
 40
0
 40
1
 40
1
 40
1
 40
1
 10
98.339900
 20
63.450644
 30
0.0
 10
99.178468
 20
63.202694
 30
0.0
 10
100.059371
 20
63.681577
 30
0.0
 10
100.307304
 20
64.520094
 30
0.0
  0
SPLINE
  5
29e
100
AcDbEntity
  8
Layer_1
 62
3
100
AcDbSpline
 70
8
 71
3
 72
8
 73
4
 74
0
 40
0
 40
0
 40
0
 40
0
 40
1
 40
1
 40
1
 40
1
 10
97.270432
 20
65.418048
 30
0.0
 10
97.022482
 20
64.579531
 30
0.0
 10
97.501366
 20
63.698577
 30
0.0
 10
98.339900
 20
63.450644
 30
0.0
  0
SPLINE
  5
29f
100
AcDbEntity
  8
Layer_1
 62
3
100
AcDbSpline
 70
8
 71
3
 72
8
 73
4
 74
0
 40
0
 40
0
 40
0
 40
0
 40
1
 40
1
 40
1
 40
1
 10
99.237853
 20
66.487567
 30
0.0
 10
98.399319
 20
66.735465
 30
0.0
 10
97.518382
 20
66.256633
 30
0.0
 10
97.270432
 20
65.418048
 30
0.0
  0
LINE
  5
2a0
100
AcDbEntity
  8
Layer_1
 62
3
100
AcDbLine
 10
129.004432
 20
82.235856
 30
0.0
 11
129.004432
 21
82.235856
 31
0.0
  0
LINE
  5
2a1
100
AcDbEntity
  8
Layer_1
 62
3
100
AcDbLine
 10
129.383598
 20
82.596174
 30
0.0
 11
129.004432
 21
82.235856
 31
0.0
  0
LINE
  5
2a2
100
AcDbEntity
  8
Layer_1
 62
3
100
AcDbLine
 10
129.762850
 20
82.956304
 30
0.0
 11
129.383598
 21
82.596174
 31
0.0
  0
LINE
  5
2a3
100
AcDbEntity
  8
Layer_1
 62
3
100
AcDbLine
 10
130.264399
 20
82.807986
 30
0.0
 11
129.762850
 21
82.956236
 31
0.0
  0
LINE
  5
2a4
100
AcDbEntity
  8
Layer_1
 62
3
100
AcDbLine
 10
130.765930
 20
82.659703
 30
0.0
 11
130.264399
 21
82.807952
 31
0.0
  0
LINE
  5
2a5
100
AcDbEntity
  8
Layer_1
 62
3
100
AcDbLine
 10
130.888365
 20
82.151203
 30
0.0
 11
130.765965
 21
82.659703
 31
0.0
  0
LINE
  5
2a6
100
AcDbEntity
  8
Layer_1
 62
3
100
AcDbLine
 10
131.010645
 20
81.642670
 30
0.0
 11
130.888416
 21
82.151203
 31
0.0
  0
LINE
  5
2a7
100
AcDbEntity
  8
Layer_1
 62
3
100
AcDbLine
 10
130.631479
 20
81.282352
 30
0.0
 11
131.010645
 21
81.642670
 31
0.0
  0
LINE
  5
2a8
100
AcDbEntity
  8
Layer_1
 62
3
100
AcDbLine
 10
130.252210
 20
80.922222
 30
0.0
 11
130.631479
 21
81.282352
 31
0.0
  0
LINE
  5
2a9
100
AcDbEntity
  8
Layer_1
 62
3
100
AcDbLine
 10
129.750627
 20
81.070489
 30
0.0
 11
130.252210
 21
80.922239
 31
0.0
  0
LINE
  5
2aa
100
AcDbEntity
  8
Layer_1
 62
3
100
AcDbLine
 10
129.249095
 20
81.218807
 30
0.0
 11
129.750627
 21
81.070557
 31
0.0
  0
LINE
  5
2ab
100
AcDbEntity
  8
Layer_1
 62
3
100
AcDbLine
 10
129.126661
 20
81.727254
 30
0.0
 11
129.249061
 21
81.218807
 31
0.0
  0
LINE
  5
2ac
100
AcDbEntity
  8
Layer_1
 62
3
100
AcDbLine
 10
129.004432
 20
82.235856
 30
0.0
 11
129.126661
 21
81.727254
 31
0.0
  0
LINE
  5
2ad
100
AcDbEntity
  8
Layer_1
 62
3
100
AcDbLine
 10
128.489068
 20
82.388231
 30
0.0
 11
128.489068
 21
82.388231
 31
0.0
  0
SPLINE
  5
2ae
100
AcDbEntity
  8
Layer_1
 62
3
100
AcDbSpline
 70
8
 71
3
 72
8
 73
4
 74
0
 40
0
 40
0
 40
0
 40
0
 40
1
 40
1
 40
1
 40
1
 10
130.456490
 20
83.457699
 30
0.0
 10
129.617956
 20
83.705649
 30
0.0
 10
128.737018
 20
83.226765
 30
0.0
 10
128.489068
 20
82.388231
 30
0.0
  0
SPLINE
  5
2af
100
AcDbEntity
  8
Layer_1
 62
3
100
AcDbSpline
 70
8
 71
3
 72
8
 73
4
 74
0
 40
0
 40
0
 40
0
 40
0
 40
1
 40
1
 40
1
 40
1
 10
131.525940
 20
81.490278
 30
0.0
 10
131.773890
 20
82.328812
 30
0.0
 10
131.295058
 20
83.209749
 30
0.0
 10
130.456490
 20
83.457699
 30
0.0
  0
SPLINE
  5
2b0
100
AcDbEntity
  8
Layer_1
 62
3
100
AcDbSpline
 70
8
 71
3
 72
8
 73
4
 74
0
 40
0
 40
0
 40
0
 40
0
 40
1
 40
1
 40
1
 40
1
 10
129.558536
 20
80.420827
 30
0.0
 10
130.397104
 20
80.172877
 30
0.0
 10
131.278007
 20
80.651710
 30
0.0
 10
131.525940
 20
81.490278
 30
0.0
  0
SPLINE
  5
2b1
100
AcDbEntity
  8
Layer_1
 62
3
100
AcDbSpline
 70
8
 71
3
 72
8
 73
4
 74
0
 40
0
 40
0
 40
0
 40
0
 40
1
 40
1
 40
1
 40
1
 10
128.489068
 20
82.388231
 30
0.0
 10
128.241136
 20
81.549663
 30
0.0
 10
128.720002
 20
80.668760
 30
0.0
 10
129.558536
 20
80.420827
 30
0.0
  0
LINE
  5
2b2
100
AcDbEntity
  8
Layer_1
 62
3
100
AcDbLine
 10
114.755928
 20
34.047019
 30
0.0
 11
114.755928
 21
34.047019
 31
0.0
  0
LINE
  5
2b3
100
AcDbEntity
  8
Layer_1
 62
3
100
AcDbLine
 10
115.135094
 20
34.407355
 30
0.0
 11
114.755928
 21
34.047019
 31
0.0
  0
LINE
  5
2b4
100
AcDbEntity
  8
Layer_1
 62
3
100
AcDbLine
 10
115.514345
 20
34.767519
 30
0.0
 11
115.135094
 21
34.407355
 31
0.0
  0
LINE
  5
2b5
100
AcDbEntity
  8
Layer_1
 62
3
100
AcDbLine
 10
116.015894
 20
34.619201
 30
0.0
 11
115.514345
 21
34.767450
 31
0.0
  0
LINE
  5
2b6
100
AcDbEntity
  8
Layer_1
 62
3
100
AcDbLine
 10
116.517477
 20
34.470883
 30
0.0
 11
116.015894
 21
34.619132
 31
0.0
  0
LINE
  5
2b7
100
AcDbEntity
  8
Layer_1
 62
3
100
AcDbLine
 10
116.639860
 20
33.962435
 30
0.0
 11
116.517460
 21
34.470883
 31
0.0
  0
LINE
  5
2b8
100
AcDbEntity
  8
Layer_1
 62
3
100
AcDbLine
 10
116.762140
 20
33.453833
 30
0.0
 11
116.639912
 21
33.962435
 31
0.0
  0
LINE
  5
2b9
100
AcDbEntity
  8
Layer_1
 62
3
100
AcDbLine
 10
116.382974
 20
33.093566
 30
0.0
 11
116.762140
 21
33.453833
 31
0.0
  0
LINE
  5
2ba
100
AcDbEntity
  8
Layer_1
 62
3
100
AcDbLine
 10
116.003706
 20
32.733385
 30
0.0
 11
116.382974
 21
33.093566
 31
0.0
  0
LINE
  5
2bb
100
AcDbEntity
  8
Layer_1
 62
3
100
AcDbLine
 10
115.502174
 20
32.881703
 30
0.0
 11
116.003706
 21
32.733454
 31
0.0
  0
LINE
  5
2bc
100
AcDbEntity
  8
Layer_1
 62
3
100
AcDbLine
 10
115.000591
 20
33.029987
 30
0.0
 11
115.502174
 21
32.881737
 31
0.0
  0
LINE
  5
2bd
100
AcDbEntity
  8
Layer_1
 62
3
100
AcDbLine
 10
114.878157
 20
33.538486
 30
0.0
 11
115.000557
 21
33.029987
 31
0.0
  0
LINE
  5
2be
100
AcDbEntity
  8
Layer_1
 62
3
100
AcDbLine
 10
114.755928
 20
34.047019
 30
0.0
 11
114.878157
 21
33.538486
 31
0.0
  0
LINE
  5
2bf
100
AcDbEntity
  8
Layer_1
 62
3
100
AcDbLine
 10
114.240564
 20
34.199412
 30
0.0
 11
114.240564
 21
34.199412
 31
0.0
  0
SPLINE
  5
2c0
100
AcDbEntity
  8
Layer_1
 62
3
100
AcDbSpline
 70
8
 71
3
 72
8
 73
4
 74
0
 40
0
 40
0
 40
0
 40
0
 40
1
 40
1
 40
1
 40
1
 10
116.207985
 20
35.268862
 30
0.0
 10
115.369451
 20
35.516812
 30
0.0
 10
114.488514
 20
35.037980
 30
0.0
 10
114.240564
 20
34.199412
 30
0.0
  0
SPLINE
  5
2c1
100
AcDbEntity
  8
Layer_1
 62
3
100
AcDbSpline
 70
8
 71
3
 72
8
 73
4
 74
0
 40
0
 40
0
 40
0
 40
0
 40
1
 40
1
 40
1
 40
1
 10
117.277487
 20
33.301458
 30
0.0
 10
117.525437
 20
34.140026
 30
0.0
 10
117.046554
 20
35.020981
 30
0.0
 10
116.207985
 20
35.268862
 30
0.0
  0
SPLINE
  5
2c2
100
AcDbEntity
  8
Layer_1
 62
3
100
AcDbSpline
 70
8
 71
3
 72
8
 73
4
 74
0
 40
0
 40
0
 40
0
 40
0
 40
1
 40
1
 40
1
 40
1
 10
115.310083
 20
32.231990
 30
0.0
 10
116.148600
 20
31.984058
 30
0.0
 10
117.029554
 20
32.462941
 30
0.0
 10
117.277487
 20
33.301458
 30
0.0
  0
SPLINE
  5
2c3
100
AcDbEntity
  8
Layer_1
 62
3
100
AcDbSpline
 70
8
 71
3
 72
8
 73
4
 74
0
 40
0
 40
0
 40
0
 40
0
 40
1
 40
1
 40
1
 40
1
 10
114.240564
 20
34.199412
 30
0.0
 10
113.992631
 20
33.360878
 30
0.0
 10
114.471515
 20
32.479940
 30
0.0
 10
115.310083
 20
32.231990
 30
0.0
  0
SPLINE
  5
2c4
100
AcDbEntity
  8
Layer_1
 62
1
100
AcDbSpline
 70
8
 71
3
 72
8
 73
4
 74
0
 40
0
 40
0
 40
0
 40
0
 40
1
 40
1
 40
1
 40
1
 10
127.871168
 20
81.957244
 30
0.0
 10
127.871168
 20
81.186936
 30
0.0
 10
128.282122
 20
80.475141
 30
0.0
 10
128.949229
 20
80.089987
 30
0.0
  0
SPLINE
  5
2c5
100
AcDbEntity
  8
Layer_1
 62
1
100
AcDbSpline
 70
8
 71
3
 72
8
 73
4
 74
0
 40
0
 40
0
 40
0
 40
0
 40
1
 40
1
 40
1
 40
1
 10
128.949229
 20
80.089987
 30
0.0
 10
129.616335
 20
79.704833
 30
0.0
 10
130.438245
 20
79.704833
 30
0.0
 10
131.105351
 20
80.089987
 30
0.0
  0
SPLINE
  5
2c6
100
AcDbEntity
  8
Layer_1
 62
1
100
AcDbSpline
 70
8
 71
3
 72
8
 73
4
 74
0
 40
0
 40
0
 40
0
 40
0
 40
1
 40
1
 40
1
 40
1
 10
131.105351
 20
80.089987
 30
0.0
 10
131.772458
 20
80.475141
 30
0.0
 10
132.183412
 20
81.186936
 30
0.0
 10
132.183412
 20
81.957244
 30
0.0
  0
SPLINE
  5
2c7
100
AcDbEntity
  8
Layer_1
 62
1
100
AcDbSpline
 70
8
 71
3
 72
8
 73
4
 74
0
 40
0
 40
0
 40
0
 40
0
 40
1
 40
1
 40
1
 40
1
 10
132.183412
 20
81.957244
 30
0.0
 10
132.183412
 20
82.727552
 30
0.0
 10
131.772458
 20
83.439347
 30
0.0
 10
131.105351
 20
83.824501
 30
0.0
  0
SPLINE
  5
2c8
100
AcDbEntity
  8
Layer_1
 62
1
100
AcDbSpline
 70
8
 71
3
 72
8
 73
4
 74
0
 40
0
 40
0
 40
0
 40
0
 40
1
 40
1
 40
1
 40
1
 10
131.105351
 20
83.824501
 30
0.0
 10
130.438245
 20
84.209655
 30
0.0
 10
129.616335
 20
84.209655
 30
0.0
 10
128.949229
 20
83.824501
 30
0.0
  0
SPLINE
  5
2c9
100
AcDbEntity
  8
Layer_1
 62
1
100
AcDbSpline
 70
8
 71
3
 72
8
 73
4
 74
0
 40
0
 40
0
 40
0
 40
0
 40
1
 40
1
 40
1
 40
1
 10
128.949229
 20
83.824501
 30
0.0
 10
128.282122
 20
83.439347
 30
0.0
 10
127.871168
 20
82.727552
 30
0.0
 10
127.871168
 20
81.957244
 30
0.0
  0
LINE
  5
2ca
100
AcDbEntity
  8
Layer_1
 62
1
100
AcDbLine
 10
127.871168
 20
81.957244
 30
0.0
 11
127.871168
 21
81.957244
 31
0.0
  0
SPLINE
  5
2cb
100
AcDbEntity
  8
Layer_1
 62
7
100
AcDbSpline
 70
8
 71
3
 72
8
 73
4
 74
0
 40
0
 40
0
 40
0
 40
0
 40
1
 40
1
 40
1
 40
1
 10
168.479330
 20
97.094924
 30
0.0
 10
167.943432
 20
96.166721
 30
0.0
 10
167.943432
 20
95.023127
 30
0.0
 10
168.479330
 20
94.094924
 30
0.0
  0
LINE
  5
2cc
100
AcDbEntity
  8
Layer_1
 62
7
100
AcDbLine
 10
168.479330
 20
94.094924
 30
0.0
 11
185.747280
 21
64.185954
 31
0.0
  0
SPLINE
  5
2cd
100
AcDbEntity
  8
Layer_1
 62
7
100
AcDbSpline
 70
8
 71
3
 72
8
 73
4
 74
0
 40
0
 40
0
 40
0
 40
0
 40
1
 40
1
 40
1
 40
1
 10
185.747280
 20
64.185954
 30
0.0
 10
186.283179
 20
63.257750
 30
0.0
 10
187.273562
 20
62.685953
 30
0.0
 10
188.345360
 20
62.685954
 30
0.0
  0
LINE
  5
2ce
100
AcDbEntity
  8
Layer_1
 62
7
100
AcDbLine
 10
188.345360
 20
62.685954
 30
0.0
 11
222.881260
 21
62.685954
 31
0.0
  0
SPLINE
  5
2cf
100
AcDbEntity
  8
Layer_1
 62
7
100
AcDbSpline
 70
8
 71
3
 72
8
 73
4
 74
0
 40
0
 40
0
 40
0
 40
0
 40
1
 40
1
 40
1
 40
1
 10
222.881260
 20
62.685954
 30
0.0
 10
223.953055
 20
62.685956
 30
0.0
 10
224.943433
 20
63.257753
 30
0.0
 10
225.479330
 20
64.185954
 30
0.0
  0
SPLINE
  5
2d0
100
AcDbEntity
  8
Layer_1
 62
7
100
AcDbSpline
 70
8
 71
3
 72
8
 73
4
 74
0
 40
0
 40
0
 40
0
 40
0
 40
1
 40
1
 40
1
 40
1
 10
225.479330
 20
64.185954
 30
0.0
 10
225.479330
 20
64.185954
 30
0.0
 10
242.747280
 20
94.094924
 30
0.0
 10
242.747280
 20
94.094924
 30
0.0
  0
SPLINE
  5
2d1
100
AcDbEntity
  8
Layer_1
 62
7
100
AcDbSpline
 70
8
 71
3
 72
8
 73
4
 74
0
 40
0
 40
0
 40
0
 40
0
 40
1
 40
1
 40
1
 40
1
 10
242.747280
 20
94.094924
 30
0.0
 10
243.283178
 20
95.023127
 30
0.0
 10
243.283178
 20
96.166721
 30
0.0
 10
242.747280
 20
97.094924
 30
0.0
  0
SPLINE
  5
2d2
100
AcDbEntity
  8
Layer_1
 62
7
100
AcDbSpline
 70
8
 71
3
 72
8
 73
4
 74
0
 40
0
 40
0
 40
0
 40
0
 40
1
 40
1
 40
1
 40
1
 10
242.747280
 20
97.094924
 30
0.0
 10
242.747280
 20
97.094924
 30
0.0
 10
225.479330
 20
127.003884
 30
0.0
 10
225.479330
 20
127.003884
 30
0.0
  0
SPLINE
  5
2d3
100
AcDbEntity
  8
Layer_1
 62
7
100
AcDbSpline
 70
8
 71
3
 72
8
 73
4
 74
0
 40
0
 40
0
 40
0
 40
0
 40
1
 40
1
 40
1
 40
1
 10
225.479330
 20
127.003884
 30
0.0
 10
224.943433
 20
127.932085
 30
0.0
 10
223.953055
 20
128.503882
 30
0.0
 10
222.881260
 20
128.503884
 30
0.0
  0
LINE
  5
2d4
100
AcDbEntity
  8
Layer_1
 62
7
100
AcDbLine
 10
222.881260
 20
128.503884
 30
0.0
 11
188.345360
 21
128.503884
 31
0.0
  0
SPLINE
  5
2d5
100
AcDbEntity
  8
Layer_1
 62
7
100
AcDbSpline
 70
8
 71
3
 72
8
 73
4
 74
0
 40
0
 40
0
 40
0
 40
0
 40
1
 40
1
 40
1
 40
1
 10
188.345360
 20
128.503884
 30
0.0
 10
187.273562
 20
128.503885
 30
0.0
 10
186.283179
 20
127.932088
 30
0.0
 10
185.747280
 20
127.003884
 30
0.0
  0
LINE
  5
2d6
100
AcDbEntity
  8
Layer_1
 62
7
100
AcDbLine
 10
185.747280
 20
127.003884
 30
0.0
 11
168.479330
 21
97.094924
 31
0.0
  0
SPLINE
  5
2d7
100
AcDbEntity
  8
Layer_1
 62
7
100
AcDbSpline
 70
8
 71
3
 72
8
 73
4
 74
0
 40
0
 40
0
 40
0
 40
0
 40
1
 40
1
 40
1
 40
1
 10
177.613320
 20
95.594924
 30
0.0
 10
177.613320
 20
105.598361
 30
0.0
 10
182.950090
 20
114.841917
 30
0.0
 10
191.613320
 20
119.843635
 30
0.0
  0
SPLINE
  5
2d8
100
AcDbEntity
  8
Layer_1
 62
7
100
AcDbSpline
 70
8
 71
3
 72
8
 73
4
 74
0
 40
0
 40
0
 40
0
 40
0
 40
1
 40
1
 40
1
 40
1
 10
191.613320
 20
119.843635
 30
0.0
 10
200.276550
 20
124.845354
 30
0.0
 10
210.950090
 20
124.845354
 30
0.0
 10
219.613320
 20
119.843635
 30
0.0
  0
SPLINE
  5
2d9
100
AcDbEntity
  8
Layer_1
 62
7
100
AcDbSpline
 70
8
 71
3
 72
8
 73
4
 74
0
 40
0
 40
0
 40
0
 40
0
 40
1
 40
1
 40
1
 40
1
 10
219.613320
 20
119.843635
 30
0.0
 10
228.276550
 20
114.841917
 30
0.0
 10
233.613320
 20
105.598361
 30
0.0
 10
233.613320
 20
95.594924
 30
0.0
  0
SPLINE
  5
2da
100
AcDbEntity
  8
Layer_1
 62
7
100
AcDbSpline
 70
8
 71
3
 72
8
 73
4
 74
0
 40
0
 40
0
 40
0
 40
0
 40
1
 40
1
 40
1
 40
1
 10
233.613320
 20
95.594924
 30
0.0
 10
233.613320
 20
85.591487
 30
0.0
 10
228.276550
 20
76.347931
 30
0.0
 10
219.613320
 20
71.346213
 30
0.0
  0
SPLINE
  5
2db
100
AcDbEntity
  8
Layer_1
 62
7
100
AcDbSpline
 70
8
 71
3
 72
8
 73
4
 74
0
 40
0
 40
0
 40
0
 40
0
 40
1
 40
1
 40
1
 40
1
 10
219.613320
 20
71.346213
 30
0.0
 10
210.950090
 20
66.344494
 30
0.0
 10
200.276550
 20
66.344494
 30
0.0
 10
191.613320
 20
71.346213
 30
0.0
  0
SPLINE
  5
2dc
100
AcDbEntity
  8
Layer_1
 62
7
100
AcDbSpline
 70
8
 71
3
 72
8
 73
4
 74
0
 40
0
 40
0
 40
0
 40
0
 40
1
 40
1
 40
1
 40
1
 10
191.613320
 20
71.346213
 30
0.0
 10
182.950090
 20
76.347931
 30
0.0
 10
177.613320
 20
85.591487
 30
0.0
 10
177.613320
 20
95.594924
 30
0.0
  0
LINE
  5
2dd
100
AcDbEntity
  8
Layer_1
 62
7
100
AcDbLine
 10
177.613320
 20
95.594924
 30
0.0
 11
177.613320
 21
95.594924
 31
0.0
  0
SPLINE
  5
2de
100
AcDbEntity
  8
Layer_1
 62
7
100
AcDbSpline
 70
8
 71
3
 72
8
 73
4
 74
0
 40
0
 40
0
 40
0
 40
0
 40
1
 40
1
 40
1
 40
1
 10
236.534646
 20
95.594924
 30
0.0
 10
236.534646
 20
96.372902
 30
0.0
 10
237.165322
 20
97.003578
 30
0.0
 10
237.943300
 20
97.003578
 30
0.0
  0
SPLINE
  5
2df
100
AcDbEntity
  8
Layer_1
 62
7
100
AcDbSpline
 70
8
 71
3
 72
8
 73
4
 74
0
 40
0
 40
0
 40
0
 40
0
 40
1
 40
1
 40
1
 40
1
 10
237.943300
 20
97.003578
 30
0.0
 10
238.721278
 20
97.003578
 30
0.0
 10
239.351954
 20
96.372902
 30
0.0
 10
239.351954
 20
95.594924
 30
0.0
  0
SPLINE
  5
2e0
100
AcDbEntity
  8
Layer_1
 62
7
100
AcDbSpline
 70
8
 71
3
 72
8
 73
4
 74
0
 40
0
 40
0
 40
0
 40
0
 40
1
 40
1
 40
1
 40
1
 10
239.351954
 20
95.594924
 30
0.0
 10
239.351954
 20
95.091660
 30
0.0
 10
239.083466
 20
94.626626
 30
0.0
 10
238.647627
 20
94.374994
 30
0.0
  0
SPLINE
  5
2e1
100
AcDbEntity
  8
Layer_1
 62
7
100
AcDbSpline
 70
8
 71
3
 72
8
 73
4
 74
0
 40
0
 40
0
 40
0
 40
0
 40
1
 40
1
 40
1
 40
1
 10
238.647627
 20
94.374994
 30
0.0
 10
238.211788
 20
94.123362
 30
0.0
 10
237.674812
 20
94.123362
 30
0.0
 10
237.238973
 20
94.374994
 30
0.0
  0
SPLINE
  5
2e2
100
AcDbEntity
  8
Layer_1
 62
7
100
AcDbSpline
 70
8
 71
3
 72
8
 73
4
 74
0
 40
0
 40
0
 40
0
 40
0
 40
1
 40
1
 40
1
 40
1
 10
237.238973
 20
94.374994
 30
0.0
 10
236.803134
 20
94.626626
 30
0.0
 10
236.534646
 20
95.091660
 30
0.0
 10
236.534646
 20
95.594924
 30
0.0
  0
LINE
  5
2e3
100
AcDbEntity
  8
Layer_1
 62
7
100
AcDbLine
 10
236.534646
 20
95.594924
 30
0.0
 11
236.534646
 21
95.594924
 31
0.0
  0
SPLINE
  5
2e4
100
AcDbEntity
  8
Layer_1
 62
7
100
AcDbSpline
 70
8
 71
3
 72
8
 73
4
 74
0
 40
0
 40
0
 40
0
 40
0
 40
1
 40
1
 40
1
 40
1
 10
171.874646
 20
95.594924
 30
0.0
 10
171.874646
 20
96.098188
 30
0.0
 10
172.143134
 20
96.563222
 30
0.0
 10
172.578973
 20
96.814854
 30
0.0
  0
SPLINE
  5
2e5
100
AcDbEntity
  8
Layer_1
 62
7
100
AcDbSpline
 70
8
 71
3
 72
8
 73
4
 74
0
 40
0
 40
0
 40
0
 40
0
 40
1
 40
1
 40
1
 40
1
 10
172.578973
 20
96.814854
 30
0.0
 10
173.014812
 20
97.066486
 30
0.0
 10
173.551788
 20
97.066486
 30
0.0
 10
173.987627
 20
96.814854
 30
0.0
  0
SPLINE
  5
2e6
100
AcDbEntity
  8
Layer_1
 62
7
100
AcDbSpline
 70
8
 71
3
 72
8
 73
4
 74
0
 40
0
 40
0
 40
0
 40
0
 40
1
 40
1
 40
1
 40
1
 10
173.987627
 20
96.814854
 30
0.0
 10
174.423466
 20
96.563222
 30
0.0
 10
174.691954
 20
96.098188
 30
0.0
 10
174.691954
 20
95.594924
 30
0.0
  0
SPLINE
  5
2e7
100
AcDbEntity
  8
Layer_1
 62
7
100
AcDbSpline
 70
8
 71
3
 72
8
 73
4
 74
0
 40
0
 40
0
 40
0
 40
0
 40
1
 40
1
 40
1
 40
1
 10
174.691954
 20
95.594924
 30
0.0
 10
174.691954
 20
95.091660
 30
0.0
 10
174.423466
 20
94.626626
 30
0.0
 10
173.987627
 20
94.374994
 30
0.0
  0
SPLINE
  5
2e8
100
AcDbEntity
  8
Layer_1
 62
7
100
AcDbSpline
 70
8
 71
3
 72
8
 73
4
 74
0
 40
0
 40
0
 40
0
 40
0
 40
1
 40
1
 40
1
 40
1
 10
173.987627
 20
94.374994
 30
0.0
 10
173.551788
 20
94.123362
 30
0.0
 10
173.014812
 20
94.123362
 30
0.0
 10
172.578973
 20
94.374994
 30
0.0
  0
SPLINE
  5
2e9
100
AcDbEntity
  8
Layer_1
 62
7
100
AcDbSpline
 70
8
 71
3
 72
8
 73
4
 74
0
 40
0
 40
0
 40
0
 40
0
 40
1
 40
1
 40
1
 40
1
 10
172.578973
 20
94.374994
 30
0.0
 10
172.143134
 20
94.626626
 30
0.0
 10
171.874646
 20
95.091660
 30
0.0
 10
171.874646
 20
95.594924
 30
0.0
  0
LINE
  5
2ea
100
AcDbEntity
  8
Layer_1
 62
7
100
AcDbLine
 10
171.874646
 20
95.594924
 30
0.0
 11
171.874646
 21
95.594924
 31
0.0
  0
SPLINE
  5
2eb
100
AcDbEntity
  8
Layer_1
 62
7
100
AcDbSpline
 70
8
 71
3
 72
8
 73
4
 74
0
 40
0
 40
0
 40
0
 40
0
 40
1
 40
1
 40
1
 40
1
 10
220.369676
 20
123.593524
 30
0.0
 10
220.369676
 20
124.371502
 30
0.0
 10
221.000352
 20
125.002178
 30
0.0
 10
221.778330
 20
125.002178
 30
0.0
  0
SPLINE
  5
2ec
100
AcDbEntity
  8
Layer_1
 62
7
100
AcDbSpline
 70
8
 71
3
 72
8
 73
4
 74
0
 40
0
 40
0
 40
0
 40
0
 40
1
 40
1
 40
1
 40
1
 10
221.778330
 20
125.002178
 30
0.0
 10
222.556308
 20
125.002178
 30
0.0
 10
223.186984
 20
124.371502
 30
0.0
 10
223.186984
 20
123.593524
 30
0.0
  0
SPLINE
  5
2ed
100
AcDbEntity
  8
Layer_1
 62
7
100
AcDbSpline
 70
8
 71
3
 72
8
 73
4
 74
0
 40
0
 40
0
 40
0
 40
0
 40
1
 40
1
 40
1
 40
1
 10
223.186984
 20
123.593524
 30
0.0
 10
223.186984
 20
122.815546
 30
0.0
 10
222.556308
 20
122.184870
 30
0.0
 10
221.778330
 20
122.184870
 30
0.0
  0
SPLINE
  5
2ee
100
AcDbEntity
  8
Layer_1
 62
7
100
AcDbSpline
 70
8
 71
3
 72
8
 73
4
 74
0
 40
0
 40
0
 40
0
 40
0
 40
1
 40
1
 40
1
 40
1
 10
221.778330
 20
122.184870
 30
0.0
 10
221.000352
 20
122.184870
 30
0.0
 10
220.369676
 20
122.815546
 30
0.0
 10
220.369676
 20
123.593524
 30
0.0
  0
LINE
  5
2ef
100
AcDbEntity
  8
Layer_1
 62
7
100
AcDbLine
 10
220.369676
 20
123.593524
 30
0.0
 11
220.369676
 21
123.593524
 31
0.0
  0
SPLINE
  5
2f0
100
AcDbEntity
  8
Layer_1
 62
7
100
AcDbSpline
 70
8
 71
3
 72
8
 73
4
 74
0
 40
0
 40
0
 40
0
 40
0
 40
1
 40
1
 40
1
 40
1
 10
188.039656
 20
67.596324
 30
0.0
 10
188.039656
 20
68.099588
 30
0.0
 10
188.308144
 20
68.564622
 30
0.0
 10
188.743983
 20
68.816254
 30
0.0
  0
SPLINE
  5
2f1
100
AcDbEntity
  8
Layer_1
 62
7
100
AcDbSpline
 70
8
 71
3
 72
8
 73
4
 74
0
 40
0
 40
0
 40
0
 40
0
 40
1
 40
1
 40
1
 40
1
 10
188.743983
 20
68.816254
 30
0.0
 10
189.179822
 20
69.067886
 30
0.0
 10
189.716798
 20
69.067886
 30
0.0
 10
190.152637
 20
68.816254
 30
0.0
  0
SPLINE
  5
2f2
100
AcDbEntity
  8
Layer_1
 62
7
100
AcDbSpline
 70
8
 71
3
 72
8
 73
4
 74
0
 40
0
 40
0
 40
0
 40
0
 40
1
 40
1
 40
1
 40
1
 10
190.152637
 20
68.816254
 30
0.0
 10
190.588476
 20
68.564622
 30
0.0
 10
190.856964
 20
68.099588
 30
0.0
 10
190.856964
 20
67.596324
 30
0.0
  0
SPLINE
  5
2f3
100
AcDbEntity
  8
Layer_1
 62
7
100
AcDbSpline
 70
8
 71
3
 72
8
 73
4
 74
0
 40
0
 40
0
 40
0
 40
0
 40
1
 40
1
 40
1
 40
1
 10
190.856964
 20
67.596324
 30
0.0
 10
190.856964
 20
67.093060
 30
0.0
 10
190.588476
 20
66.628026
 30
0.0
 10
190.152637
 20
66.376394
 30
0.0
  0
SPLINE
  5
2f4
100
AcDbEntity
  8
Layer_1
 62
7
100
AcDbSpline
 70
8
 71
3
 72
8
 73
4
 74
0
 40
0
 40
0
 40
0
 40
0
 40
1
 40
1
 40
1
 40
1
 10
190.152637
 20
66.376394
 30
0.0
 10
189.716798
 20
66.124762
 30
0.0
 10
189.179822
 20
66.124762
 30
0.0
 10
188.743983
 20
66.376394
 30
0.0
  0
SPLINE
  5
2f5
100
AcDbEntity
  8
Layer_1
 62
7
100
AcDbSpline
 70
8
 71
3
 72
8
 73
4
 74
0
 40
0
 40
0
 40
0
 40
0
 40
1
 40
1
 40
1
 40
1
 10
188.743983
 20
66.376394
 30
0.0
 10
188.308144
 20
66.628026
 30
0.0
 10
188.039656
 20
67.093060
 30
0.0
 10
188.039656
 20
67.596324
 30
0.0
  0
LINE
  5
2f6
100
AcDbEntity
  8
Layer_1
 62
7
100
AcDbLine
 10
188.039656
 20
67.596324
 30
0.0
 11
188.039656
 21
67.596324
 31
0.0
  0
SPLINE
  5
2f7
100
AcDbEntity
  8
Layer_1
 62
7
100
AcDbSpline
 70
8
 71
3
 72
8
 73
4
 74
0
 40
0
 40
0
 40
0
 40
0
 40
1
 40
1
 40
1
 40
1
 10
188.039656
 20
123.593524
 30
0.0
 10
188.039656
 20
124.096788
 30
0.0
 10
188.308144
 20
124.561822
 30
0.0
 10
188.743983
 20
124.813454
 30
0.0
  0
SPLINE
  5
2f8
100
AcDbEntity
  8
Layer_1
 62
7
100
AcDbSpline
 70
8
 71
3
 72
8
 73
4
 74
0
 40
0
 40
0
 40
0
 40
0
 40
1
 40
1
 40
1
 40
1
 10
188.743983
 20
124.813454
 30
0.0
 10
189.179822
 20
125.065086
 30
0.0
 10
189.716798
 20
125.065086
 30
0.0
 10
190.152637
 20
124.813454
 30
0.0
  0
SPLINE
  5
2f9
100
AcDbEntity
  8
Layer_1
 62
7
100
AcDbSpline
 70
8
 71
3
 72
8
 73
4
 74
0
 40
0
 40
0
 40
0
 40
0
 40
1
 40
1
 40
1
 40
1
 10
190.152637
 20
124.813454
 30
0.0
 10
190.588476
 20
124.561822
 30
0.0
 10
190.856964
 20
124.096788
 30
0.0
 10
190.856964
 20
123.593524
 30
0.0
  0
SPLINE
  5
2fa
100
AcDbEntity
  8
Layer_1
 62
7
100
AcDbSpline
 70
8
 71
3
 72
8
 73
4
 74
0
 40
0
 40
0
 40
0
 40
0
 40
1
 40
1
 40
1
 40
1
 10
190.856964
 20
123.593524
 30
0.0
 10
190.856964
 20
123.090260
 30
0.0
 10
190.588476
 20
122.625226
 30
0.0
 10
190.152637
 20
122.373594
 30
0.0
  0
SPLINE
  5
2fb
100
AcDbEntity
  8
Layer_1
 62
7
100
AcDbSpline
 70
8
 71
3
 72
8
 73
4
 74
0
 40
0
 40
0
 40
0
 40
0
 40
1
 40
1
 40
1
 40
1
 10
190.152637
 20
122.373594
 30
0.0
 10
189.716798
 20
122.121962
 30
0.0
 10
189.179822
 20
122.121962
 30
0.0
 10
188.743983
 20
122.373594
 30
0.0
  0
SPLINE
  5
2fc
100
AcDbEntity
  8
Layer_1
 62
7
100
AcDbSpline
 70
8
 71
3
 72
8
 73
4
 74
0
 40
0
 40
0
 40
0
 40
0
 40
1
 40
1
 40
1
 40
1
 10
188.743983
 20
122.373594
 30
0.0
 10
188.308144
 20
122.625226
 30
0.0
 10
188.039656
 20
123.090260
 30
0.0
 10
188.039656
 20
123.593524
 30
0.0
  0
LINE
  5
2fd
100
AcDbEntity
  8
Layer_1
 62
7
100
AcDbLine
 10
188.039656
 20
123.593524
 30
0.0
 11
188.039656
 21
123.593524
 31
0.0
  0
SPLINE
  5
2fe
100
AcDbEntity
  8
Layer_1
 62
7
100
AcDbSpline
 70
8
 71
3
 72
8
 73
4
 74
0
 40
0
 40
0
 40
0
 40
0
 40
1
 40
1
 40
1
 40
1
 10
220.369676
 20
67.596324
 30
0.0
 10
220.369676
 20
68.374302
 30
0.0
 10
221.000352
 20
69.004978
 30
0.0
 10
221.778330
 20
69.004978
 30
0.0
  0
SPLINE
  5
2ff
100
AcDbEntity
  8
Layer_1
 62
7
100
AcDbSpline
 70
8
 71
3
 72
8
 73
4
 74
0
 40
0
 40
0
 40
0
 40
0
 40
1
 40
1
 40
1
 40
1
 10
221.778330
 20
69.004978
 30
0.0
 10
222.556308
 20
69.004978
 30
0.0
 10
223.186984
 20
68.374302
 30
0.0
 10
223.186984
 20
67.596324
 30
0.0
  0
SPLINE
  5
300
100
AcDbEntity
  8
Layer_1
 62
7
100
AcDbSpline
 70
8
 71
3
 72
8
 73
4
 74
0
 40
0
 40
0
 40
0
 40
0
 40
1
 40
1
 40
1
 40
1
 10
223.186984
 20
67.596324
 30
0.0
 10
223.186984
 20
66.818346
 30
0.0
 10
222.556308
 20
66.187670
 30
0.0
 10
221.778330
 20
66.187670
 30
0.0
  0
SPLINE
  5
301
100
AcDbEntity
  8
Layer_1
 62
7
100
AcDbSpline
 70
8
 71
3
 72
8
 73
4
 74
0
 40
0
 40
0
 40
0
 40
0
 40
1
 40
1
 40
1
 40
1
 10
221.778330
 20
66.187670
 30
0.0
 10
221.000352
 20
66.187670
 30
0.0
 10
220.369676
 20
66.818346
 30
0.0
 10
220.369676
 20
67.596324
 30
0.0
  0
LINE
  5
302
100
AcDbEntity
  8
Layer_1
 62
7
100
AcDbLine
 10
220.369676
 20
67.596324
 30
0.0
 11
220.369676
 21
67.596324
 31
0.0
  0
LINE
  5
303
100
AcDbEntity
  8
Layer_1
 62
3
100
AcDbLine
 10
209.900150
 20
110.093049
 30
0.0
 11
209.900150
 21
110.093049
 31
0.0
  0
SPLINE
  5
304
100
AcDbEntity
  8
Layer_1
 62
3
100
AcDbSpline
 70
8
 71
3
 72
8
 73
4
 74
0
 40
0
 40
0
 40
0
 40
0
 40
1
 40
1
 40
1
 40
1
 10
218.290199
 20
103.830661
 30
0.0
 10
216.397569
 20
106.747440
 30
0.0
 10
213.495257
 20
109.029903
 30
0.0
 10
209.900150
 20
110.093049
 30
0.0
  0
LINE
  5
305
100
AcDbEntity
  8
Layer_1
 62
3
100
AcDbLine
 10
215.581125
 20
94.668515
 30
0.0
 11
218.290199
 21
103.830661
 31
0.0
  0
LINE
  5
306
100
AcDbEntity
  8
Layer_1
 62
3
100
AcDbLine
 10
212.180948
 20
101.384011
 30
0.0
 11
215.581125
 21
94.668515
 31
0.0
  0
SPLINE
  5
307
100
AcDbEntity
  8
Layer_1
 62
3
100
AcDbSpline
 70
8
 71
3
 72
8
 73
4
 74
0
 40
0
 40
0
 40
0
 40
0
 40
1
 40
1
 40
1
 40
1
 10
195.160911
 20
106.520861
 30
0.0
 10
200.841514
 20
104.833001
 30
0.0
 10
206.498017
 20
103.064355
 30
0.0
 10
212.180948
 20
101.384011
 30
0.0
  0
SPLINE
  5
308
100
AcDbEntity
  8
Layer_1
 62
3
100
AcDbSpline
 70
8
 71
3
 72
8
 73
4
 74
0
 40
0
 40
0
 40
0
 40
0
 40
1
 40
1
 40
1
 40
1
 10
209.900150
 20
110.093049
 30
0.0
 10
204.516937
 20
111.684754
 30
0.0
 10
198.950059
 20
110.138468
 30
0.0
 10
195.160911
 20
106.520861
 30
0.0
  0
LINE
  5
309
100
AcDbEntity
  8
Layer_1
 62
3
100
AcDbLine
 10
193.163360
 20
104.177301
 30
0.0
 11
193.163554
 21
104.177301
 31
0.0
  0
LINE
  5
30a
100
AcDbEntity
  8
Layer_1
 62
3
100
AcDbLine
 10
193.100678
 20
103.965512
 30
0.0
 11
193.163230
 21
104.177301
 31
0.0
  0
LINE
  5
30b
100
AcDbEntity
  8
Layer_1
 62
3
100
AcDbLine
 10
193.283648
 20
103.778065
 30
0.0
 11
193.100678
 21
103.965512
 31
0.0
  0
LINE
  5
30c
100
AcDbEntity
  8
Layer_1
 62
3
100
AcDbLine
 10
198.674490
 20
97.637097
 30
0.0
 11
193.283648
 21
103.778065
 31
0.0
  0
LINE
  5
30d
100
AcDbEntity
  8
Layer_1
 62
3
100
AcDbLine
 10
190.797914
 20
95.371234
 30
0.0
 11
198.674490
 21
97.637097
 31
0.0
  0
LINE
  5
30e
100
AcDbEntity
  8
Layer_1
 62
3
100
AcDbLine
 10
190.542371
 20
95.313304
 30
0.0
 11
190.797914
 21
95.371169
 31
0.0
  0
LINE
  5
30f
100
AcDbEntity
  8
Layer_1
 62
3
100
AcDbLine
 10
190.498116
 20
95.162985
 30
0.0
 11
190.542403
 21
95.313304
 31
0.0
  0
SPLINE
  5
310
100
AcDbEntity
  8
Layer_1
 62
3
100
AcDbSpline
 70
8
 71
3
 72
8
 73
4
 74
0
 40
0
 40
0
 40
0
 40
0
 40
1
 40
1
 40
1
 40
1
 10
191.115217
 20
99.881722
 30
0.0
 10
190.649938
 20
98.308168
 30
0.0
 10
190.453877
 20
96.718936
 30
0.0
 10
190.498116
 20
95.162985
 30
0.0
  0
SPLINE
  5
311
100
AcDbEntity
  8
Layer_1
 62
3
100
AcDbSpline
 70
8
 71
3
 72
8
 73
4
 74
0
 40
0
 40
0
 40
0
 40
0
 40
1
 40
1
 40
1
 40
1
 10
193.163505
 20
104.177301
 30
0.0
 10
192.280128
 20
102.895787
 30
0.0
 10
191.580464
 20
101.455307
 30
0.0
 10
191.115217
 20
99.881722
 30
0.0
  0
LINE
  5
312
100
AcDbEntity
  8
Layer_1
 62
3
100
AcDbLine
 10
190.900050
 20
92.109739
 30
0.0
 11
190.900050
 21
92.109739
 31
0.0
  0
LINE
  5
313
100
AcDbEntity
  8
Layer_1
 62
3
100
AcDbLine
 10
202.302748
 20
88.738204
 30
0.0
 11
190.900050
 21
92.109739
 31
0.0
  0
LINE
  5
314
100
AcDbEntity
  8
Layer_1
 62
3
100
AcDbLine
 10
203.007293
 20
88.529874
 30
0.0
 11
202.302748
 21
88.738204
 31
0.0
  0
LINE
  5
315
100
AcDbEntity
  8
Layer_1
 62
3
100
AcDbLine
 10
203.550690
 20
88.369210
 30
0.0
 11
203.007293
 21
88.529874
 31
0.0
  0
LINE
  5
316
100
AcDbEntity
  8
Layer_1
 62
3
100
AcDbLine
 10
203.968432
 20
88.245690
 30
0.0
 11
203.550690
 21
88.369178
 31
0.0
  0
LINE
  5
317
100
AcDbEntity
  8
Layer_1
 62
3
100
AcDbLine
 10
212.472842
 20
92.861077
 30
0.0
 11
203.968432
 21
88.245690
 31
0.0
  0
LINE
  5
318
100
AcDbEntity
  8
Layer_1
 62
3
100
AcDbLine
 10
214.098668
 20
89.654425
 30
0.0
 11
212.472842
 21
92.861077
 31
0.0
  0
LINE
  5
319
100
AcDbEntity
  8
Layer_1
 62
3
100
AcDbLine
 10
211.773130
 20
81.789471
 30
0.0
 11
214.098668
 21
89.654425
 31
0.0
  0
SPLINE
  5
31a
100
AcDbEntity
  8
Layer_1
 62
3
100
AcDbSpline
 70
8
 71
3
 72
8
 73
4
 74
0
 40
0
 40
0
 40
0
 40
0
 40
1
 40
1
 40
1
 40
1
 10
201.326512
 20
81.096821
 30
0.0
 10
204.921652
 20
80.033821
 30
0.0
 10
208.598481
 20
80.371247
 30
0.0
 10
211.773130
 20
81.789471
 30
0.0
  0
SPLINE
  5
31b
100
AcDbEntity
  8
Layer_1
 62
3
100
AcDbSpline
 70
8
 71
3
 72
8
 73
4
 74
0
 40
0
 40
0
 40
0
 40
0
 40
1
 40
1
 40
1
 40
1
 10
190.900050
 20
92.109739
 30
0.0
 10
192.112352
 20
87.013345
 30
0.0
 10
195.943380
 20
82.688526
 30
0.0
 10
201.326512
 20
81.096821
 30
0.0
  0
LINE
  5
31c
100
AcDbEntity
  8
Layer_1
 62
3
100
AcDbLine
 10
216.484593
 20
85.086137
 30
0.0
 11
216.484593
 21
85.086137
 31
0.0
  0
LINE
  5
31d
100
AcDbEntity
  8
Layer_1
 62
3
100
AcDbLine
 10
220.451149
 20
98.502032
 30
0.0
 11
216.484593
 21
85.086137
 31
0.0
  0
SPLINE
  5
31e
100
AcDbEntity
  8
Layer_1
 62
3
100
AcDbSpline
 70
8
 71
3
 72
8
 73
4
 74
0
 40
0
 40
0
 40
0
 40
0
 40
1
 40
1
 40
1
 40
1
 10
220.111532
 20
91.308197
 30
0.0
 10
220.827030
 20
93.728485
 30
0.0
 10
220.907635
 20
96.185852
 30
0.0
 10
220.451149
 20
98.502032
 30
0.0
  0
SPLINE
  5
31f
100
AcDbEntity
  8
Layer_1
 62
3
100
AcDbSpline
 70
8
 71
3
 72
8
 73
4
 74
0
 40
0
 40
0
 40
0
 40
0
 40
1
 40
1
 40
1
 40
1
 10
216.484593
 20
85.086137
 30
0.0
 10
218.126979
 20
86.781708
 30
0.0
 10
219.395716
 20
88.887780
 30
0.0
 10
220.111532
 20
91.308197
 30
0.0
  0
LINE
  5
320
100
AcDbEntity
  8
Layer_1
 62
3
100
AcDbLine
 10
209.330035
 20
98.833074
 30
0.0
 11
209.330132
 21
98.833074
 31
0.0
  0
LINE
  5
321
100
AcDbEntity
  8
Layer_1
 62
3
100
AcDbLine
 10
199.315319
 20
101.794286
 30
0.0
 11
209.330035
 21
98.833074
 31
0.0
  0
LINE
  5
322
100
AcDbEntity
  8
Layer_1
 62
3
100
AcDbLine
 10
204.719431
 20
95.859336
 30
0.0
 11
199.315319
 21
101.794286
 31
0.0
  0
LINE
  5
323
100
AcDbEntity
  8
Layer_1
 62
3
100
AcDbLine
 10
196.926323
 20
93.778430
 30
0.0
 11
204.719431
 21
95.859336
 31
0.0
  0
LINE
  5
324
100
AcDbEntity
  8
Layer_1
 62
3
100
AcDbLine
 10
203.240903
 20
91.911350
 30
0.0
 11
196.926323
 21
93.778430
 31
0.0
  0
LINE
  5
325
100
AcDbEntity
  8
Layer_1
 62
3
100
AcDbLine
 10
203.266910
 20
91.999020
 30
0.0
 11
203.240886
 21
91.911414
 31
0.0
  0
LINE
  5
326
100
AcDbEntity
  8
Layer_1
 62
3
100
AcDbLine
 10
210.725953
 20
96.237591
 30
0.0
 11
203.266910
 21
91.999020
 31
0.0
  0
SPLINE
  5
327
100
AcDbEntity
  8
Layer_1
 62
3
100
AcDbSpline
 70
8
 71
3
 72
8
 73
4
 74
0
 40
0
 40
0
 40
0
 40
0
 40
1
 40
1
 40
1
 40
1
 10
209.330132
 20
98.833074
 30
0.0
 10
209.802992
 20
97.955047
 30
0.0
 10
210.289493
 20
97.139249
 30
0.0
 10
210.725953
 20
96.237591
 30
0.0
  0
LINE
  5
328
100
AcDbEntity
  8
Layer_1
 62
3
100
AcDbLine
 10
183.182943
 20
100.052423
 30
0.0
 11
183.182943
 21
100.052423
 31
0.0
  0
SPLINE
  5
329
100
AcDbEntity
  8
Layer_1
 62
3
100
AcDbSpline
 70
8
 71
3
 72
8
 73
4
 74
0
 40
0
 40
0
 40
0
 40
0
 40
1
 40
1
 40
1
 40
1
 10
184.630906
 20
100.874832
 30
0.0
 10
184.265840
 20
100.432731
 30
0.0
 10
183.748047
 20
100.139495
 30
0.0
 10
183.182943
 20
100.052423
 30
0.0
  0
LINE
  5
32a
100
AcDbEntity
  8
Layer_1
 62
3
100
AcDbLine
 10
188.527121
 20
99.722787
 30
0.0
 11
184.630906
 21
100.874832
 31
0.0
  0
SPLINE
  5
32b
100
AcDbEntity
  8
Layer_1
 62
3
100
AcDbSpline
 70
8
 71
3
 72
8
 73
4
 74
0
 40
0
 40
0
 40
0
 40
0
 40
1
 40
1
 40
1
 40
1
 10
199.767150
 20
79.045398
 30
0.0
 10
191.196729
 20
81.931563
 30
0.0
 10
186.288574
 20
90.960781
 30
0.0
 10
188.527121
 20
99.722787
 30
0.0
  0
LINE
  5
32c
100
AcDbEntity
  8
Layer_1
 62
3
100
AcDbLine
 10
198.633208
 20
75.210459
 30
0.0
 11
199.767150
 21
79.045398
 31
0.0
  0
SPLINE
  5
32d
100
AcDbEntity
  8
Layer_1
 62
3
100
AcDbSpline
 70
8
 71
3
 72
8
 73
4
 74
0
 40
0
 40
0
 40
0
 40
0
 40
1
 40
1
 40
1
 40
1
 10
197.078275
 20
74.404779
 30
0.0
 10
197.471175
 20
74.862574
 30
0.0
 10
198.030525
 20
75.153660
 30
0.0
 10
198.633208
 20
75.210459
 30
0.0
  0
SPLINE
  5
32e
100
AcDbEntity
  8
Layer_1
 62
3
100
AcDbSpline
 70
8
 71
3
 72
8
 73
4
 74
0
 40
0
 40
0
 40
0
 40
0
 40
1
 40
1
 40
1
 40
1
 10
183.182943
 20
100.052423
 30
0.0
 10
180.927650
 20
89.275070
 30
0.0
 10
186.824341
 20
78.399833
 30
0.0
 10
197.078275
 20
74.404779
 30
0.0
  0
LINE
  5
32f
100
AcDbEntity
  8
Layer_1
 62
3
100
AcDbLine
 10
179.969744
 20
102.253051
 30
0.0
 11
179.969744
 21
102.253051
 31
0.0
  0
LINE
  5
330
100
AcDbEntity
  8
Layer_1
 62
3
100
AcDbLine
 10
180.508388
 20
102.093680
 30
0.0
 11
179.969744
 21
102.253051
 31
0.0
  0
SPLINE
  5
331
100
AcDbEntity
  8
Layer_1
 62
3
100
AcDbSpline
 70
8
 71
3
 72
8
 73
4
 74
0
 40
0
 40
0
 40
0
 40
0
 40
1
 40
1
 40
1
 40
1
 10
181.354266
 20
100.549512
 30
0.0
 10
180.882862
 20
100.933521
 30
0.0
 10
180.578327
 20
101.490075
 30
0.0
 10
180.508388
 20
102.093680
 30
0.0
  0
SPLINE
  5
332
100
AcDbEntity
  8
Layer_1
 62
3
100
AcDbSpline
 70
8
 71
3
 72
8
 73
4
 74
0
 40
0
 40
0
 40
0
 40
0
 40
1
 40
1
 40
1
 40
1
 10
196.535396
 20
72.585995
 30
0.0
 10
185.297549
 20
76.882091
 30
0.0
 10
178.834994
 20
88.782782
 30
0.0
 10
181.354266
 20
100.549512
 30
0.0
  0
SPLINE
  5
333
100
AcDbEntity
  8
Layer_1
 62
3
100
AcDbSpline
 70
8
 71
3
 72
8
 73
4
 74
0
 40
0
 40
0
 40
0
 40
0
 40
1
 40
1
 40
1
 40
1
 10
197.403709
 20
71.052187
 30
0.0
 10
196.925725
 20
71.430265
 30
0.0
 10
196.613530
 20
71.983359
 30
0.0
 10
196.535396
 20
72.585995
 30
0.0
  0
LINE
  5
334
100
AcDbEntity
  8
Layer_1
 62
3
100
AcDbLine
 10
197.236887
 20
70.487956
 30
0.0
 11
197.403709
 21
71.052187
 31
0.0
  0
SPLINE
  5
335
100
AcDbEntity
  8
Layer_1
 62
3
100
AcDbSpline
 70
8
 71
3
 72
8
 73
4
 74
0
 40
0
 40
0
 40
0
 40
0
 40
1
 40
1
 40
1
 40
1
 10
179.969744
 20
102.252970
 30
0.0
 10
176.340225
 20
88.766134
 30
0.0
 10
183.945062
 20
74.776520
 30
0.0
 10
197.236887
 20
70.487956
 30
0.0
  0
LINE
  5
336
100
AcDbEntity
  8
Layer_1
 62
3
100
AcDbLine
 10
226.846787
 20
87.101710
 30
0.0
 11
226.846787
 21
87.101710
 31
0.0
  0
SPLINE
  5
337
100
AcDbEntity
  8
Layer_1
 62
3
100
AcDbSpline
 70
8
 71
3
 72
8
 73
4
 74
0
 40
0
 40
0
 40
0
 40
0
 40
1
 40
1
 40
1
 40
1
 10
226.007578
 20
88.640545
 30
0.0
 10
226.077242
 20
88.039720
 30
0.0
 10
226.379263
 20
87.485623
 30
0.0
 10
226.846787
 20
87.101710
 30
0.0
  0
LINE
  5
338
100
AcDbEntity
  8
Layer_1
 62
3
100
AcDbLine
 10
222.196900
 20
89.767278
 30
0.0
 11
226.007578
 21
88.640545
 31
0.0
  0
SPLINE
  5
339
100
AcDbEntity
  8
Layer_1
 62
3
100
AcDbSpline
 70
8
 71
3
 72
8
 73
4
 74
0
 40
0
 40
0
 40
0
 40
0
 40
1
 40
1
 40
1
 40
1
 10
201.519551
 20
78.527297
 30
0.0
 10
210.281428
 20
76.288653
 30
0.0
 10
219.310598
 20
81.196824
 30
0.0
 10
222.196900
 20
89.767278
 30
0.0
  0
LINE
  5
33a
100
AcDbEntity
  8
Layer_1
 62
3
100
AcDbLine
 10
200.374861
 20
74.655845
 30
0.0
 11
201.519551
 21
78.527297
 31
0.0
  0
SPLINE
  5
33b
100
AcDbEntity
  8
Layer_1
 62
3
100
AcDbSpline
 70
8
 71
3
 72
8
 73
4
 74
0
 40
0
 40
0
 40
0
 40
0
 40
1
 40
1
 40
1
 40
1
 10
201.167852
 20
73.187450
 30
0.0
 10
201.093016
 20
73.756741
 30
0.0
 10
200.809575
 20
74.281517
 30
0.0
 10
200.374861
 20
74.655845
 30
0.0
  0
SPLINE
  5
33c
100
AcDbEntity
  8
Layer_1
 62
3
100
AcDbSpline
 70
8
 71
3
 72
8
 73
4
 74
0
 40
0
 40
0
 40
0
 40
0
 40
1
 40
1
 40
1
 40
1
 10
226.846787
 20
87.101710
 30
0.0
 10
222.856654
 20
76.826247
 30
0.0
 10
211.960576
 20
70.917886
 30
0.0
 10
201.167852
 20
73.187450
 30
0.0
  0
LINE
  5
33d
100
AcDbEntity
  8
Layer_1
 62
3
100
AcDbLine
 10
230.754310
 20
87.237062
 30
0.0
 11
230.754310
 21
87.237062
 31
0.0
  0
LINE
  5
33e
100
AcDbEntity
  8
Layer_1
 62
3
100
AcDbLine
 10
230.130091
 20
87.421616
 30
0.0
 11
230.754310
 21
87.237062
 31
0.0
  0
SPLINE
  5
33f
100
AcDbEntity
  8
Layer_1
 62
3
100
AcDbSpline
 70
8
 71
3
 72
8
 73
4
 74
0
 40
0
 40
0
 40
0
 40
0
 40
1
 40
1
 40
1
 40
1
 10
228.680988
 20
86.599013
 30
0.0
 10
229.246543
 20
86.685810
 30
0.0
 10
229.764657
 20
86.979224
 30
0.0
 10
230.130091
 20
87.421616
 30
0.0
  0
SPLINE
  5
340
100
AcDbEntity
  8
Layer_1
 62
3
100
AcDbSpline
 70
8
 71
3
 72
8
 73
4
 74
0
 40
0
 40
0
 40
0
 40
0
 40
1
 40
1
 40
1
 40
1
 10
200.628254
 20
71.368488
 30
0.0
 10
212.438269
 20
68.806738
 30
0.0
 10
224.397812
 20
75.301410
 30
0.0
 10
228.680988
 20
86.599013
 30
0.0
  0
SPLINE
  5
341
100
AcDbEntity
  8
Layer_1
 62
3
100
AcDbSpline
 70
8
 71
3
 72
8
 73
4
 74
0
 40
0
 40
0
 40
0
 40
0
 40
1
 40
1
 40
1
 40
1
 10
199.166923
 20
70.570551
 30
0.0
 10
199.734080
 20
70.648135
 30
0.0
 10
200.256335
 20
70.933306
 30
0.0
 10
200.628254
 20
71.368488
 30
0.0
  0
LINE
  5
342
100
AcDbEntity
  8
Layer_1
 62
3
100
AcDbLine
 10
198.989288
 20
69.969920
 30
0.0
 11
199.166923
 21
70.570551
 31
0.0
  0
SPLINE
  5
343
100
AcDbEntity
  8
Layer_1
 62
3
100
AcDbSpline
 70
8
 71
3
 72
8
 73
4
 74
0
 40
0
 40
0
 40
0
 40
0
 40
1
 40
1
 40
1
 40
1
 10
230.754310
 20
87.237062
 30
0.0
 10
226.465842
 20
73.945044
 30
0.0
 10
212.476043
 20
66.340530
 30
0.0
 10
198.989288
 20
69.969920
 30
0.0
  0
LINE
  5
344
100
AcDbEntity
  8
Layer_1
 62
3
100
AcDbLine
 10
184.385627
 20
104.102351
 30
0.0
 11
184.385627
 21
104.102351
 31
0.0
  0
SPLINE
  5
345
100
AcDbEntity
  8
Layer_1
 62
3
100
AcDbSpline
 70
8
 71
3
 72
8
 73
4
 74
0
 40
0
 40
0
 40
0
 40
0
 40
1
 40
1
 40
1
 40
1
 10
185.155634
 20
102.568091
 30
0.0
 10
185.102780
 20
103.158911
 30
0.0
 10
184.825190
 20
103.708773
 30
0.0
 10
184.385627
 20
104.102351
 30
0.0
  0
LINE
  5
346
100
AcDbEntity
  8
Layer_1
 62
3
100
AcDbLine
 10
189.029770
 20
101.422560
 30
0.0
 11
185.155634
 21
102.568091
 31
0.0
  0
SPLINE
  5
347
100
AcDbEntity
  8
Layer_1
 62
3
100
AcDbSpline
 70
8
 71
3
 72
8
 73
4
 74
0
 40
0
 40
0
 40
0
 40
0
 40
1
 40
1
 40
1
 40
1
 10
209.707159
 20
112.662589
 30
0.0
 10
200.945299
 20
114.901233
 30
0.0
 10
191.916113
 20
109.993062
 30
0.0
 10
189.029770
 20
101.422560
 30
0.0
  0
LINE
  5
348
100
AcDbEntity
  8
Layer_1
 62
3
100
AcDbLine
 10
210.856973
 20
116.551369
 30
0.0
 11
209.707159
 21
112.662589
 31
0.0
  0
SPLINE
  5
349
100
AcDbEntity
  8
Layer_1
 62
3
100
AcDbSpline
 70
8
 71
3
 72
8
 73
4
 74
0
 40
0
 40
0
 40
0
 40
0
 40
1
 40
1
 40
1
 40
1
 10
209.998876
 20
118.014478
 30
0.0
 10
210.091492
 20
117.439482
 30
0.0
 10
210.397788
 20
116.914608
 30
0.0
 10
210.856973
 20
116.551369
 30
0.0
  0
SPLINE
  5
34a
100
AcDbEntity
  8
Layer_1
 62
3
100
AcDbSpline
 70
8
 71
3
 72
8
 73
4
 74
0
 40
0
 40
0
 40
0
 40
0
 40
1
 40
1
 40
1
 40
1
 10
184.385627
 20
104.102351
 30
0.0
 10
188.372842
 20
114.349852
 30
0.0
 10
199.230882
 20
120.248548
 30
0.0
 10
209.998876
 20
118.014478
 30
0.0
  0
LINE
  5
34b
100
AcDbEntity
  8
Layer_1
 62
3
100
AcDbLine
 10
180.472409
 20
103.952824
 30
0.0
 11
180.472409
 21
103.952824
 31
0.0
  0
LINE
  5
34c
100
AcDbEntity
  8
Layer_1
 62
3
100
AcDbLine
 10
180.988974
 20
103.800080
 30
0.0
 11
180.472409
 21
103.952824
 31
0.0
  0
SPLINE
  5
34d
100
AcDbEntity
  8
Layer_1
 62
3
100
AcDbSpline
 70
8
 71
3
 72
8
 73
4
 74
0
 40
0
 40
0
 40
0
 40
0
 40
1
 40
1
 40
1
 40
1
 10
182.582085
 20
104.683764
 30
0.0
 10
181.955544
 20
104.616848
 30
0.0
 10
181.377978
 20
104.297072
 30
0.0
 10
180.988974
 20
103.800080
 30
0.0
  0
SPLINE
  5
34e
100
AcDbEntity
  8
Layer_1
 62
3
100
AcDbSpline
 70
8
 71
3
 72
8
 73
4
 74
0
 40
0
 40
0
 40
0
 40
0
 40
1
 40
1
 40
1
 40
1
 10
210.483324
 20
119.845692
 30
0.0
 10
198.743233
 20
122.333478
 30
0.0
 10
186.881592
 20
115.887038
 30
0.0
 10
182.582085
 20
104.683764
 30
0.0
  0
SPLINE
  5
34f
100
AcDbEntity
  8
Layer_1
 62
3
100
AcDbSpline
 70
8
 71
3
 72
8
 73
4
 74
0
 40
0
 40
0
 40
0
 40
0
 40
1
 40
1
 40
1
 40
1
 10
212.086473
 20
120.709576
 30
0.0
 10
211.458606
 20
120.650256
 30
0.0
 10
210.877953
 20
120.337171
 30
0.0
 10
210.483324
 20
119.845692
 30
0.0
  0
LINE
  5
350
100
AcDbEntity
  8
Layer_1
 62
3
100
AcDbLine
 10
212.237374
 20
121.219934
 30
0.0
 11
212.086408
 21
120.709576
 31
0.0
  0
SPLINE
  5
351
100
AcDbEntity
  8
Layer_1
 62
3
100
AcDbSpline
 70
8
 71
3
 72
8
 73
4
 74
0
 40
0
 40
0
 40
0
 40
0
 40
1
 40
1
 40
1
 40
1
 10
180.472409
 20
103.952808
 30
0.0
 10
184.760876
 20
117.244810
 30
0.0
 10
198.750635
 20
124.849292
 30
0.0
 10
212.237374
 20
121.219934
 30
0.0
  0
LINE
  5
352
100
AcDbEntity
  8
Layer_1
 62
3
100
AcDbLine
 10
228.061832
 20
91.228447
 30
0.0
 11
228.061832
 21
91.228447
 31
0.0
  0
SPLINE
  5
353
100
AcDbEntity
  8
Layer_1
 62
3
100
AcDbSpline
 70
8
 71
3
 72
8
 73
4
 74
0
 40
0
 40
0
 40
0
 40
0
 40
1
 40
1
 40
1
 40
1
 10
226.488104
 20
90.346864
 30
0.0
 10
226.873017
 20
90.838748
 30
0.0
 10
227.442587
 20
91.157102
 30
0.0
 10
228.061832
 20
91.228447
 30
0.0
  0
LINE
  5
354
100
AcDbEntity
  8
Layer_1
 62
3
100
AcDbLine
 10
222.699504
 20
91.467067
 30
0.0
 11
226.488104
 21
90.346864
 31
0.0
  0
SPLINE
  5
355
100
AcDbEntity
  8
Layer_1
 62
3
100
AcDbSpline
 70
8
 71
3
 72
8
 73
4
 74
0
 40
0
 40
0
 40
0
 40
0
 40
1
 40
1
 40
1
 40
1
 10
211.459512
 20
112.144456
 30
0.0
 10
220.029881
 20
109.258243
 30
0.0
 10
224.938051
 20
100.229073
 30
0.0
 10
222.699504
 20
91.467067
 30
0.0
  0
LINE
  5
356
100
AcDbEntity
  8
Layer_1
 62
3
100
AcDbLine
 10
212.620091
 20
116.069684
 30
0.0
 11
211.459512
 21
112.144456
 31
0.0
  0
SPLINE
  5
357
100
AcDbEntity
  8
Layer_1
 62
3
100
AcDbSpline
 70
8
 71
3
 72
8
 73
4
 74
0
 40
0
 40
0
 40
0
 40
0
 40
1
 40
1
 40
1
 40
1
 10
214.045151
 20
116.826001
 30
0.0
 10
213.675802
 20
116.414045
 30
0.0
 10
213.168999
 20
116.144811
 30
0.0
 10
212.620091
 20
116.069684
 30
0.0
  0
SPLINE
  5
358
100
AcDbEntity
  8
Layer_1
 62
3
100
AcDbSpline
 70
8
 71
3
 72
8
 73
4
 74
0
 40
0
 40
0
 40
0
 40
0
 40
1
 40
1
 40
1
 40
1
 10
228.061832
 20
91.228447
 30
0.0
 10
230.272370
 20
102.012184
 30
0.0
 10
224.334085
 20
112.875332
 30
0.0
 10
214.045151
 20
116.826001
 30
0.0
  0
LINE
  5
359
100
AcDbEntity
  8
Layer_1
 62
3
100
AcDbLine
 10
231.256868
 20
88.936803
 30
0.0
 11
231.256868
 21
88.936803
 31
0.0
  0
LINE
  5
35a
100
AcDbEntity
  8
Layer_1
 62
3
100
AcDbLine
 10
230.654729
 20
89.114843
 30
0.0
 11
231.256868
 21
88.936803
 31
0.0
  0
SPLINE
  5
35b
100
AcDbEntity
  8
Layer_1
 62
3
100
AcDbSpline
 70
8
 71
3
 72
8
 73
4
 74
0
 40
0
 40
0
 40
0
 40
0
 40
1
 40
1
 40
1
 40
1
 10
229.875733
 20
90.657055
 30
0.0
 10
230.320449
 20
90.263073
 30
0.0
 10
230.601540
 20
89.709736
 30
0.0
 10
230.654729
 20
89.114843
 30
0.0
  0
SPLINE
  5
35c
100
AcDbEntity
  8
Layer_1
 62
3
100
AcDbSpline
 70
8
 71
3
 72
8
 73
4
 74
0
 40
0
 40
0
 40
0
 40
0
 40
1
 40
1
 40
1
 40
1
 10
214.627954
 20
118.628266
 30
0.0
 10
225.899376
 20
114.354911
 30
0.0
 10
232.389985
 20
102.440659
 30
0.0
 10
229.875733
 20
90.657055
 30
0.0
  0
SPLINE
  5
35d
100
AcDbEntity
  8
Layer_1
 62
3
100
AcDbSpline
 70
8
 71
3
 72
8
 73
4
 74
0
 40
0
 40
0
 40
0
 40
0
 40
1
 40
1
 40
1
 40
1
 10
213.828077
 20
120.154978
 30
0.0
 10
214.277758
 20
119.767816
 30
0.0
 10
214.565547
 20
119.219829
 30
0.0
 10
214.627954
 20
118.628266
 30
0.0
  0
LINE
  5
35e
100
AcDbEntity
  8
Layer_1
 62
3
100
AcDbLine
 10
213.989727
 20
120.701817
 30
0.0
 11
213.828077
 21
120.154978
 31
0.0
  0
SPLINE
  5
35f
100
AcDbEntity
  8
Layer_1
 62
3
100
AcDbSpline
 70
8
 71
3
 72
8
 73
4
 74
0
 40
0
 40
0
 40
0
 40
0
 40
1
 40
1
 40
1
 40
1
 10
231.256868
 20
88.936803
 30
0.0
 10
234.886401
 20
102.423639
 30
0.0
 10
227.281559
 20
116.413269
 30
0.0
 10
213.989727
 20
120.701817
 30
0.0
  0
LINE
  5
360
100
AcDbEntity
  8
Layer_1
 62
3
100
AcDbLine
 10
228.608138
 20
89.854980
 30
0.0
 11
228.608138
 21
89.854980
 31
0.0
  0
LINE
  5
361
100
AcDbEntity
  8
Layer_1
 62
3
100
AcDbLine
 10
228.948301
 20
89.496977
 30
0.0
 11
228.608138
 21
89.854980
 31
0.0
  0
LINE
  5
362
100
AcDbEntity
  8
Layer_1
 62
3
100
AcDbLine
 10
229.288372
 20
89.138894
 30
0.0
 11
228.948301
 21
89.496977
 31
0.0
  0
LINE
  5
363
100
AcDbEntity
  8
Layer_1
 62
3
100
AcDbLine
 10
229.148329
 20
88.665339
 30
0.0
 11
229.288369
 21
89.138894
 31
0.0
  0
LINE
  5
364
100
AcDbEntity
  8
Layer_1
 62
3
100
AcDbLine
 10
229.008332
 20
88.191801
 30
0.0
 11
229.148323
 21
88.665339
 31
0.0
  0
LINE
  5
365
100
AcDbEntity
  8
Layer_1
 62
3
100
AcDbLine
 10
228.528217
 20
88.076200
 30
0.0
 11
229.008332
 21
88.191769
 31
0.0
  0
LINE
  5
366
100
AcDbEntity
  8
Layer_1
 62
3
100
AcDbLine
 10
228.048056
 20
87.960745
 30
0.0
 11
228.528217
 21
88.076152
 31
0.0
  0
LINE
  5
367
100
AcDbEntity
  8
Layer_1
 62
3
100
AcDbLine
 10
227.707848
 20
88.318700
 30
0.0
 11
228.048056
 21
87.960697
 31
0.0
  0
LINE
  5
368
100
AcDbEntity
  8
Layer_1
 62
3
100
AcDbLine
 10
227.367775
 20
88.676783
 30
0.0
 11
227.707848
 21
88.318700
 31
0.0
  0
LINE
  5
369
100
AcDbEntity
  8
Layer_1
 62
3
100
AcDbLine
 10
227.507818
 20
89.150386
 30
0.0
 11
227.367778
 21
88.676783
 31
0.0
  0
LINE
  5
36a
100
AcDbEntity
  8
Layer_1
 62
3
100
AcDbLine
 10
227.647815
 20
89.623925
 30
0.0
 11
227.507824
 21
89.150386
 31
0.0
  0
LINE
  5
36b
100
AcDbEntity
  8
Layer_1
 62
3
100
AcDbLine
 10
228.127931
 20
89.739525
 30
0.0
 11
227.647815
 21
89.623957
 31
0.0
  0
LINE
  5
36c
100
AcDbEntity
  8
Layer_1
 62
3
100
AcDbLine
 10
228.608138
 20
89.854932
 30
0.0
 11
228.127931
 21
89.739525
 31
0.0
  0
LINE
  5
36d
100
AcDbEntity
  8
Layer_1
 62
3
100
AcDbLine
 10
228.752013
 20
90.341530
 30
0.0
 11
228.752013
 21
90.341530
 31
0.0
  0
SPLINE
  5
36e
100
AcDbEntity
  8
Layer_1
 62
3
100
AcDbSpline
 70
8
 71
3
 72
8
 73
4
 74
0
 40
0
 40
0
 40
0
 40
0
 40
1
 40
1
 40
1
 40
1
 10
229.761783
 20
88.483922
 30
0.0
 10
229.995887
 20
89.275652
 30
0.0
 10
229.543734
 20
90.107420
 30
0.0
 10
228.752013
 20
90.341530
 30
0.0
  0
SPLINE
  5
36f
100
AcDbEntity
  8
Layer_1
 62
3
100
AcDbSpline
 70
8
 71
3
 72
8
 73
4
 74
0
 40
0
 40
0
 40
0
 40
0
 40
1
 40
1
 40
1
 40
1
 10
227.904181
 20
87.474147
 30
0.0
 10
228.695904
 20
87.240053
 30
0.0
 10
229.527677
 20
87.692159
 30
0.0
 10
229.761783
 20
88.483922
 30
0.0
  0
SPLINE
  5
370
100
AcDbEntity
  8
Layer_1
 62
3
100
AcDbSpline
 70
8
 71
3
 72
8
 73
4
 74
0
 40
0
 40
0
 40
0
 40
0
 40
1
 40
1
 40
1
 40
1
 10
226.894366
 20
89.331755
 30
0.0
 10
226.660307
 20
88.539992
 30
0.0
 10
227.112413
 20
87.708257
 30
0.0
 10
227.904181
 20
87.474147
 30
0.0
  0
SPLINE
  5
371
100
AcDbEntity
  8
Layer_1
 62
3
100
AcDbSpline
 70
8
 71
3
 72
8
 73
4
 74
0
 40
0
 40
0
 40
0
 40
0
 40
1
 40
1
 40
1
 40
1
 10
228.752013
 20
90.341530
 30
0.0
 10
227.960244
 20
90.575624
 30
0.0
 10
227.128470
 20
90.123470
 30
0.0
 10
226.894366
 20
89.331755
 30
0.0
  0
LINE
  5
372
100
AcDbEntity
  8
Layer_1
 62
3
100
AcDbLine
 10
183.108995
 20
103.308148
 30
0.0
 11
183.108995
 21
103.308148
 31
0.0
  0
LINE
  5
373
100
AcDbEntity
  8
Layer_1
 62
3
100
AcDbLine
 10
183.449202
 20
102.950145
 30
0.0
 11
183.108995
 21
103.308148
 31
0.0
  0
LINE
  5
374
100
AcDbEntity
  8
Layer_1
 62
3
100
AcDbLine
 10
183.789231
 20
102.592061
 30
0.0
 11
183.449202
 21
102.950145
 31
0.0
  0
LINE
  5
375
100
AcDbEntity
  8
Layer_1
 62
3
100
AcDbLine
 10
183.649240
 20
102.118507
 30
0.0
 11
183.789215
 21
102.592061
 31
0.0
  0
LINE
  5
376
100
AcDbEntity
  8
Layer_1
 62
3
100
AcDbLine
 10
183.509200
 20
101.644920
 30
0.0
 11
183.649175
 21
102.118507
 31
0.0
  0
LINE
  5
377
100
AcDbEntity
  8
Layer_1
 62
3
100
AcDbLine
 10
183.029132
 20
101.529335
 30
0.0
 11
183.509200
 21
101.644904
 31
0.0
  0
LINE
  5
378
100
AcDbEntity
  8
Layer_1
 62
3
100
AcDbLine
 10
182.548918
 20
101.413913
 30
0.0
 11
183.029132
 21
101.529319
 31
0.0
  0
LINE
  5
379
100
AcDbEntity
  8
Layer_1
 62
3
100
AcDbLine
 10
182.208711
 20
101.771915
 30
0.0
 11
182.548918
 21
101.413913
 31
0.0
  0
LINE
  5
37a
100
AcDbEntity
  8
Layer_1
 62
3
100
AcDbLine
 10
181.868682
 20
102.130015
 30
0.0
 11
182.208711
 21
101.771915
 31
0.0
  0
LINE
  5
37b
100
AcDbEntity
  8
Layer_1
 62
3
100
AcDbLine
 10
182.008673
 20
102.603554
 30
0.0
 11
181.868698
 21
102.130015
 31
0.0
  0
LINE
  5
37c
100
AcDbEntity
  8
Layer_1
 62
3
100
AcDbLine
 10
182.148729
 20
103.077108
 30
0.0
 11
182.008754
 21
102.603554
 31
0.0
  0
LINE
  5
37d
100
AcDbEntity
  8
Layer_1
 62
3
100
AcDbLine
 10
182.628846
 20
103.192693
 30
0.0
 11
182.148729
 21
103.077124
 31
0.0
  0
LINE
  5
37e
100
AcDbEntity
  8
Layer_1
 62
3
100
AcDbLine
 10
183.108995
 20
103.308148
 30
0.0
 11
182.628846
 21
103.192741
 31
0.0
  0
LINE
  5
37f
100
AcDbEntity
  8
Layer_1
 62
3
100
AcDbLine
 10
183.252881
 20
103.794746
 30
0.0
 11
183.252881
 21
103.794746
 31
0.0
  0
SPLINE
  5
380
100
AcDbEntity
  8
Layer_1
 62
3
100
AcDbSpline
 70
8
 71
3
 72
8
 73
4
 74
0
 40
0
 40
0
 40
0
 40
0
 40
1
 40
1
 40
1
 40
1
 10
184.262640
 20
101.937089
 30
0.0
 10
184.496750
 20
102.728868
 30
0.0
 10
184.044596
 20
103.560636
 30
0.0
 10
183.252881
 20
103.794746
 30
0.0
  0
SPLINE
  5
381
100
AcDbEntity
  8
Layer_1
 62
3
100
AcDbSpline
 70
8
 71
3
 72
8
 73
4
 74
0
 40
0
 40
0
 40
0
 40
0
 40
1
 40
1
 40
1
 40
1
 10
182.405048
 20
100.927330
 30
0.0
 10
183.196811
 20
100.693220
 30
0.0
 10
184.028546
 20
101.145374
 30
0.0
 10
184.262640
 20
101.937089
 30
0.0
  0
SPLINE
  5
382
100
AcDbEntity
  8
Layer_1
 62
3
100
AcDbSpline
 70
8
 71
3
 72
8
 73
4
 74
0
 40
0
 40
0
 40
0
 40
0
 40
1
 40
1
 40
1
 40
1
 10
181.395273
 20
102.784923
 30
0.0
 10
181.161163
 20
101.993208
 30
0.0
 10
181.613317
 20
101.161425
 30
0.0
 10
182.405048
 20
100.927330
 30
0.0
  0
SPLINE
  5
383
100
AcDbEntity
  8
Layer_1
 62
3
100
AcDbSpline
 70
8
 71
3
 72
8
 73
4
 74
0
 40
0
 40
0
 40
0
 40
0
 40
1
 40
1
 40
1
 40
1
 10
183.252881
 20
103.794746
 30
0.0
 10
182.461151
 20
104.028808
 30
0.0
 10
181.629383
 20
103.576702
 30
0.0
 10
181.395273
 20
102.784923
 30
0.0
  0
LINE
  5
384
100
AcDbEntity
  8
Layer_1
 62
3
100
AcDbLine
 10
211.358022
 20
118.664036
 30
0.0
 11
211.358022
 21
118.664036
 31
0.0
  0
LINE
  5
385
100
AcDbEntity
  8
Layer_1
 62
3
100
AcDbLine
 10
211.716024
 20
119.004242
 30
0.0
 11
211.358022
 21
118.664036
 31
0.0
  0
LINE
  5
386
100
AcDbEntity
  8
Layer_1
 62
3
100
AcDbLine
 10
212.074108
 20
119.344271
 30
0.0
 11
211.716024
 21
119.004242
 31
0.0
  0
LINE
  5
387
100
AcDbEntity
  8
Layer_1
 62
3
100
AcDbLine
 10
212.547663
 20
119.204232
 30
0.0
 11
212.074108
 21
119.344207
 31
0.0
  0
LINE
  5
388
100
AcDbEntity
  8
Layer_1
 62
3
100
AcDbLine
 10
213.021201
 20
119.064225
 30
0.0
 11
212.547663
 21
119.204199
 31
0.0
  0
LINE
  5
389
100
AcDbEntity
  8
Layer_1
 62
3
100
AcDbLine
 10
213.136802
 20
118.584108
 30
0.0
 11
213.021233
 21
119.064225
 31
0.0
  0
LINE
  5
38a
100
AcDbEntity
  8
Layer_1
 62
3
100
AcDbLine
 10
213.252257
 20
118.103958
 30
0.0
 11
213.136850
 21
118.584108
 31
0.0
  0
LINE
  5
38b
100
AcDbEntity
  8
Layer_1
 62
3
100
AcDbLine
 10
212.894254
 20
117.763752
 30
0.0
 11
213.252257
 21
118.103958
 31
0.0
  0
LINE
  5
38c
100
AcDbEntity
  8
Layer_1
 62
3
100
AcDbLine
 10
212.536154
 20
117.423723
 30
0.0
 11
212.894254
 21
117.763752
 31
0.0
  0
LINE
  5
38d
100
AcDbEntity
  8
Layer_1
 62
3
100
AcDbLine
 10
212.062567
 20
117.563714
 30
0.0
 11
212.536154
 21
117.423739
 31
0.0
  0
LINE
  5
38e
100
AcDbEntity
  8
Layer_1
 62
3
100
AcDbLine
 10
211.589029
 20
117.703753
 30
0.0
 11
212.062567
 21
117.563778
 31
0.0
  0
LINE
  5
38f
100
AcDbEntity
  8
Layer_1
 62
3
100
AcDbLine
 10
211.473428
 20
118.183822
 30
0.0
 11
211.588996
 21
117.703753
 31
0.0
  0
LINE
  5
390
100
AcDbEntity
  8
Layer_1
 62
3
100
AcDbLine
 10
211.358022
 20
118.664036
 30
0.0
 11
211.473428
 21
118.183822
 31
0.0
  0
LINE
  5
391
100
AcDbEntity
  8
Layer_1
 62
3
100
AcDbLine
 10
210.871423
 20
118.807906
 30
0.0
 11
210.871423
 21
118.807906
 31
0.0
  0
SPLINE
  5
392
100
AcDbEntity
  8
Layer_1
 62
3
100
AcDbSpline
 70
8
 71
3
 72
8
 73
4
 74
0
 40
0
 40
0
 40
0
 40
0
 40
1
 40
1
 40
1
 40
1
 10
212.729032
 20
119.817680
 30
0.0
 10
211.937301
 20
120.051791
 30
0.0
 10
211.105534
 20
119.599636
 30
0.0
 10
210.871423
 20
118.807906
 30
0.0
  0
SPLINE
  5
393
100
AcDbEntity
  8
Layer_1
 62
3
100
AcDbSpline
 70
8
 71
3
 72
8
 73
4
 74
0
 40
0
 40
0
 40
0
 40
0
 40
1
 40
1
 40
1
 40
1
 10
213.738790
 20
117.960072
 30
0.0
 10
213.972901
 20
118.751803
 30
0.0
 10
213.520795
 20
119.583570
 30
0.0
 10
212.729032
 20
119.817680
 30
0.0
  0
SPLINE
  5
394
100
AcDbEntity
  8
Layer_1
 62
3
100
AcDbSpline
 70
8
 71
3
 72
8
 73
4
 74
0
 40
0
 40
0
 40
0
 40
0
 40
1
 40
1
 40
1
 40
1
 10
211.881198
 20
116.950313
 30
0.0
 10
212.672961
 20
116.716203
 30
0.0
 10
213.504696
 20
117.168309
 30
0.0
 10
213.738790
 20
117.960072
 30
0.0
  0
SPLINE
  5
395
100
AcDbEntity
  8
Layer_1
 62
3
100
AcDbSpline
 70
8
 71
3
 72
8
 73
4
 74
0
 40
0
 40
0
 40
0
 40
0
 40
1
 40
1
 40
1
 40
1
 10
210.871423
 20
118.807906
 30
0.0
 10
210.637329
 20
118.016143
 30
0.0
 10
211.089467
 20
117.184408
 30
0.0
 10
211.881198
 20
116.950313
 30
0.0
  0
LINE
  5
396
100
AcDbEntity
  8
Layer_1
 62
3
100
AcDbLine
 10
197.904806
 20
73.164886
 30
0.0
 11
197.904806
 21
73.164886
 31
0.0
  0
LINE
  5
397
100
AcDbEntity
  8
Layer_1
 62
3
100
AcDbLine
 10
198.262809
 20
73.505109
 30
0.0
 11
197.904806
 21
73.164886
 31
0.0
  0
LINE
  5
398
100
AcDbEntity
  8
Layer_1
 62
3
100
AcDbLine
 10
198.620892
 20
73.845170
 30
0.0
 11
198.262809
 21
73.505109
 31
0.0
  0
LINE
  5
399
100
AcDbEntity
  8
Layer_1
 62
3
100
AcDbLine
 10
199.094447
 20
73.705131
 30
0.0
 11
198.620892
 21
73.845106
 31
0.0
  0
LINE
  5
39a
100
AcDbEntity
  8
Layer_1
 62
3
100
AcDbLine
 10
199.568034
 20
73.565091
 30
0.0
 11
199.094447
 21
73.705066
 31
0.0
  0
LINE
  5
39b
100
AcDbEntity
  8
Layer_1
 62
3
100
AcDbLine
 10
199.683586
 20
73.085023
 30
0.0
 11
199.568017
 21
73.565091
 31
0.0
  0
LINE
  5
39c
100
AcDbEntity
  8
Layer_1
 62
3
100
AcDbLine
 10
199.799041
 20
72.604809
 30
0.0
 11
199.683634
 21
73.085023
 31
0.0
  0
LINE
  5
39d
100
AcDbEntity
  8
Layer_1
 62
3
100
AcDbLine
 10
199.441038
 20
72.264651
 30
0.0
 11
199.799041
 21
72.604809
 31
0.0
  0
LINE
  5
39e
100
AcDbEntity
  8
Layer_1
 62
3
100
AcDbLine
 10
199.082938
 20
71.924573
 30
0.0
 11
199.441038
 21
72.264651
 31
0.0
  0
LINE
  5
39f
100
AcDbEntity
  8
Layer_1
 62
3
100
AcDbLine
 10
198.609400
 20
72.064613
 30
0.0
 11
199.082938
 21
71.924638
 31
0.0
  0
LINE
  5
3a0
100
AcDbEntity
  8
Layer_1
 62
3
100
AcDbLine
 10
198.135813
 20
72.204620
 30
0.0
 11
198.609400
 21
72.064645
 31
0.0
  0
LINE
  5
3a1
100
AcDbEntity
  8
Layer_1
 62
3
100
AcDbLine
 10
198.020212
 20
72.684737
 30
0.0
 11
198.135781
 21
72.204620
 31
0.0
  0
LINE
  5
3a2
100
AcDbEntity
  8
Layer_1
 62
3
100
AcDbLine
 10
197.904806
 20
73.164886
 30
0.0
 11
198.020212
 21
72.684737
 31
0.0
  0
LINE
  5
3a3
100
AcDbEntity
  8
Layer_1
 62
3
100
AcDbLine
 10
197.418207
 20
73.308773
 30
0.0
 11
197.418207
 21
73.308773
 31
0.0
  0
SPLINE
  5
3a4
100
AcDbEntity
  8
Layer_1
 62
3
100
AcDbSpline
 70
8
 71
3
 72
8
 73
4
 74
0
 40
0
 40
0
 40
0
 40
0
 40
1
 40
1
 40
1
 40
1
 10
199.275816
 20
74.318531
 30
0.0
 10
198.484085
 20
74.552641
 30
0.0
 10
197.652318
 20
74.100536
 30
0.0
 10
197.418207
 20
73.308773
 30
0.0
  0
SPLINE
  5
3a5
100
AcDbEntity
  8
Layer_1
 62
3
100
AcDbSpline
 70
8
 71
3
 72
8
 73
4
 74
0
 40
0
 40
0
 40
0
 40
0
 40
1
 40
1
 40
1
 40
1
 10
200.285623
 20
72.460939
 30
0.0
 10
200.519733
 20
73.252702
 30
0.0
 10
200.067579
 20
74.084485
 30
0.0
 10
199.275816
 20
74.318531
 30
0.0
  0
SPLINE
  5
3a6
100
AcDbEntity
  8
Layer_1
 62
3
100
AcDbSpline
 70
8
 71
3
 72
8
 73
4
 74
0
 40
0
 40
0
 40
0
 40
0
 40
1
 40
1
 40
1
 40
1
 10
198.428031
 20
71.451164
 30
0.0
 10
199.219745
 20
71.217070
 30
0.0
 10
200.051529
 20
71.669224
 30
0.0
 10
200.285623
 20
72.460939
 30
0.0
  0
SPLINE
  5
3a7
100
AcDbEntity
  8
Layer_1
 62
3
100
AcDbSpline
 70
8
 71
3
 72
8
 73
4
 74
0
 40
0
 40
0
 40
0
 40
0
 40
1
 40
1
 40
1
 40
1
 10
197.418207
 20
73.308773
 30
0.0
 10
197.184113
 20
72.517042
 30
0.0
 10
197.636267
 20
71.685274
 30
0.0
 10
198.428031
 20
71.451164
 30
0.0
  0
SPLINE
  5
3a8
100
AcDbEntity
  8
Layer_1
 62
1
100
AcDbSpline
 70
8
 71
3
 72
8
 73
4
 74
0
 40
0
 40
0
 40
0
 40
0
 40
1
 40
1
 40
1
 40
1
 10
210.287993
 20
118.400984
 30
0.0
 10
210.287993
 20
117.673671
 30
0.0
 10
210.676010
 20
117.001606
 30
0.0
 10
211.305881
 20
116.637949
 30
0.0
  0
SPLINE
  5
3a9
100
AcDbEntity
  8
Layer_1
 62
1
100
AcDbSpline
 70
8
 71
3
 72
8
 73
4
 74
0
 40
0
 40
0
 40
0
 40
0
 40
1
 40
1
 40
1
 40
1
 10
211.305881
 20
116.637949
 30
0.0
 10
211.935753
 20
116.274293
 30
0.0
 10
212.711787
 20
116.274293
 30
0.0
 10
213.341659
 20
116.637949
 30
0.0
  0
SPLINE
  5
3aa
100
AcDbEntity
  8
Layer_1
 62
1
100
AcDbSpline
 70
8
 71
3
 72
8
 73
4
 74
0
 40
0
 40
0
 40
0
 40
0
 40
1
 40
1
 40
1
 40
1
 10
213.341659
 20
116.637949
 30
0.0
 10
213.971530
 20
117.001606
 30
0.0
 10
214.359547
 20
117.673671
 30
0.0
 10
214.359547
 20
118.400984
 30
0.0
  0
SPLINE
  5
3ab
100
AcDbEntity
  8
Layer_1
 62
1
100
AcDbSpline
 70
8
 71
3
 72
8
 73
4
 74
0
 40
0
 40
0
 40
0
 40
0
 40
1
 40
1
 40
1
 40
1
 10
214.359547
 20
118.400984
 30
0.0
 10
214.359547
 20
119.128297
 30
0.0
 10
213.971530
 20
119.800362
 30
0.0
 10
213.341659
 20
120.164019
 30
0.0
  0
SPLINE
  5
3ac
100
AcDbEntity
  8
Layer_1
 62
1
100
AcDbSpline
 70
8
 71
3
 72
8
 73
4
 74
0
 40
0
 40
0
 40
0
 40
0
 40
1
 40
1
 40
1
 40
1
 10
213.341659
 20
120.164019
 30
0.0
 10
212.711787
 20
120.527675
 30
0.0
 10
211.935753
 20
120.527675
 30
0.0
 10
211.305881
 20
120.164019
 30
0.0
  0
SPLINE
  5
3ad
100
AcDbEntity
  8
Layer_1
 62
1
100
AcDbSpline
 70
8
 71
3
 72
8
 73
4
 74
0
 40
0
 40
0
 40
0
 40
0
 40
1
 40
1
 40
1
 40
1
 10
211.305881
 20
120.164019
 30
0.0
 10
210.676010
 20
119.800362
 30
0.0
 10
210.287993
 20
119.128297
 30
0.0
 10
210.287993
 20
118.400984
 30
0.0
  0
LINE
  5
3ae
100
AcDbEntity
  8
Layer_1
 62
1
100
AcDbLine
 10
210.287993
 20
118.400984
 30
0.0
 11
210.287993
 21
118.400984
 31
0.0
  0
ENDSEC
  0
SECTION
  2
OBJECTS
  0
DICTIONARY
  5
C
330
0
100
AcDbDictionary
  3
ACAD_GROUP
350
D
  3
ACAD_MLINESTYLE
350
17
  0
DICTIONARY
  5
D
330
C
100
AcDbDictionary
  0
DICTIONARY
  5
1A
330
C
100
AcDbDictionary
  0
DICTIONARY
  5
17
330
C
100
AcDbDictionary
  3
STANDARD
350
18
  0
DICTIONARY
  5
19
330
C
100
AcDbDictionary
  0
ENDSEC
  0
EOF
