<?xml version="1.0"?>
<svg xmlns="http://www.w3.org/2000/svg" xmlns:lc="http://www.librecad.org" xmlns:xlink="http://www.w3.org/1999/xlink" width="449.966679mm" height="154.82239485mm" viewBox="0 0 449.966679 154.82239485">
    <g lc:layername="0" lc:is_locked="false" lc:is_construction="false" fill="none" stroke="black" stroke-width="1"/>
    <g lc:layername="Body_Slices" lc:is_locked="false" lc:is_construction="false" fill="none" stroke="black" stroke-width="1">
        <g lc:blockname="MYLAYER">
            <g lc:layername="0" lc:is_locked="false" lc:is_construction="false" fill="none" stroke="black" stroke-width="1"/>
            <g lc:layername="Body_Slices" lc:is_locked="false" lc:is_construction="false" fill="none" stroke="black" stroke-width="1">
                <path d="M106.45299462,116.71727709 A4,4 0 0,0 109.91709623,114.71727709 L129.60769515,80.61215932 A4,4 0 0,0 129.60769515,76.61215932 L109.91709623,42.50704156 A4,4 0 0,0 106.45299462,40.50704156 L67.07179677,40.50704156 A4,4 0 0,0 63.60769515,42.50704156 L43.91709623,76.61215932 A4,4 0 0,0 43.91709623,80.61215932 L63.60769515,114.71727709 A4,4 0 0,0 67.07179677,116.71727709 L106.45299462,116.71727709 Z "/>
                <circle cx="102.92739569" cy="50.61355802" r="1.25"/>
                <circle cx="70.59739569" cy="106.61076063" r="1.25"/>
                <circle cx="54.43239569" cy="78.61215932" r="1.25"/>
                <circle cx="119.09239569" cy="78.61215932" r="1.25"/>
                <circle cx="70.59739569" cy="50.61355802" r="1.25"/>
                <circle cx="102.92739569" cy="106.61076063" r="1.25"/>
            </g>
        </g>
        <g lc:blockname="MYLAYER007">
            <g lc:layername="0" lc:is_locked="false" lc:is_construction="false" fill="none" stroke="black" stroke-width="1"/>
            <g lc:layername="Body_Slices" lc:is_locked="false" lc:is_construction="false" fill="none" stroke="black" stroke-width="1">
                <path d="M308.42116167,-1.09807621 A3,3 0 0,0 308.42116167,-4.09807621 L290.65321248,-34.87306696 A3,3 0 0,0 288.05513627,-36.37306696 L252.51923789,-36.37306696 A3,3 0 0,0 249.92116167,-34.87306696 L232.15321248,-4.09807621 A3,3 0 0,0 232.15321248,-1.09807621 L249.92116167,29.67691454 A3,3 0 0,0 252.51923789,31.17691454 L288.05513627,31.17691454 A3,3 0 0,0 290.65321248,29.67691454 L308.42116167,-1.09807621 Z "/>
                <circle cx="270.28718708" cy="-2.59807621" r="29"/>
                <circle cx="286.45218708" cy="-30.59667752" r="1.25"/>
                <circle cx="286.45218708" cy="25.40052509" r="1.25"/>
                <circle cx="254.12218708" cy="25.40052509" r="1.25"/>
                <circle cx="254.12218708" cy="-30.59667752" r="1.25"/>
                <circle cx="237.95718708" cy="-2.59807621" r="1.25"/>
                <circle cx="302.61718708" cy="-2.59807621" r="1.25"/>
            </g>
        </g>
        <g lc:blockname="MYLAYER006">
            <g lc:layername="0" lc:is_locked="false" lc:is_construction="false" fill="none" stroke="black" stroke-width="1"/>
            <g lc:layername="Body_Slices" lc:is_locked="false" lc:is_construction="false" fill="none" stroke="black" stroke-width="1">
                <path d="M215.65876598,-1.09807621 A3,3 0 0,0 215.65876598,-4.09807621 L198.39081679,-34.00704156 A3,3 0 0,0 195.79274058,-35.50704156 L161.25684219,-35.50704156 A3,3 0 0,0 158.65876598,-34.00704156 L141.39081679,-4.09807621 A3,3 0 0,0 141.39081679,-1.09807621 L158.65876598,28.81088913 A3,3 0 0,0 161.25684219,30.31088913 L195.79274058,30.31088913 A3,3 0 0,0 198.39081679,28.81088913 L215.65876598,-1.09807621 Z "/>
                <circle cx="146.19479139" cy="-2.59807621" r="1.25"/>
                <circle cx="210.85479139" cy="-2.59807621" r="1.25"/>
                <circle cx="162.35979139" cy="25.40052509" r="1.25"/>
                <circle cx="194.68979139" cy="-30.59667752" r="1.25"/>
                <circle cx="178.52479139" cy="-2.59807621" r="28"/>
                <circle cx="194.68979139" cy="25.40052509" r="1.25"/>
                <circle cx="162.35979139" cy="-30.59667752" r="1.25"/>
            </g>
        </g>
        <g lc:blockname="MYLAYER001">
            <g lc:layername="0" lc:is_locked="false" lc:is_construction="false" fill="none" stroke="black" stroke-width="1"/>
            <g lc:layername="Body_Slices" lc:is_locked="false" lc:is_construction="false" fill="none" stroke="black" stroke-width="1">
                <path d="M198.21539031,116.71727709 A4,4 0 0,0 201.67949192,114.71727709 L221.37009085,80.61215932 A4,4 0 0,0 221.37009085,76.61215932 L201.67949192,42.50704156 A4,4 0 0,0 198.21539031,40.50704156 L158.83419246,40.50704156 A4,4 0 0,0 155.37009085,42.50704156 L135.67949192,76.61215932 A4,4 0 0,0 135.67949192,80.61215932 L155.37009085,114.71727709 A4,4 0 0,0 158.83419246,116.71727709 L170.52479139,116.71727709 L170.52479139,109.71727709 L186.52479139,109.71727709 L186.52479139,116.71727709 L198.21539031,116.71727709 Z "/>
                <path d="M165.47479139,71.71727709 L165.47479139,75.31727709 L165.47479139,109.71727709 L168.47479139,109.71727709 L168.47479139,75.31727709 L168.47479139,71.71727709 L168.47479139,69.31727709 L165.47479139,69.31727709 L165.47479139,71.71727709 Z "/>
                <circle cx="194.68979139" cy="106.61076063" r="1.25"/>
                <circle cx="194.68979139" cy="50.61355802" r="1.25"/>
                <circle cx="210.85479139" cy="78.61215932" r="1.25"/>
                <circle cx="162.35979139" cy="106.61076063" r="1.25"/>
                <path d="M170.02479139,99.31727709 L187.02479139,99.31727709 L187.02479139,75.31727709 L170.02479139,75.31727709 L170.02479139,99.31727709 Z "/>
                <circle cx="146.19479139" cy="78.61215932" r="1.25"/>
                <circle cx="162.35979139" cy="50.61355802" r="1.25"/>
            </g>
        </g>
        <g lc:blockname="MYLAYER005">
            <g lc:layername="0" lc:is_locked="false" lc:is_construction="false" fill="none" stroke="black" stroke-width="1"/>
            <g lc:layername="Body_Slices" lc:is_locked="false" lc:is_construction="false" fill="none" stroke="black" stroke-width="1">
                <path d="M126.89637029,-1.09807621 A3,3 0 0,0 126.89637029,-4.09807621 L108.1284211,-36.60511777 A3,3 0 0,0 105.53034489,-38.10511777 L67.9944465,-38.10511777 A3,3 0 0,0 65.39637029,-36.60511777 L46.6284211,-4.09807621 A3,3 0 0,0 46.6284211,-1.09807621 L65.39637029,31.40896534 A3,3 0 0,0 67.9944465,32.90896534 L105.53034489,32.90896534 A3,3 0 0,0 108.1284211,31.40896534 L126.89637029,-1.09807621 Z "/>
                <circle cx="102.92739569" cy="-30.59667752" r="1.25"/>
                <circle cx="70.59739569" cy="25.40052509" r="1.25"/>
                <circle cx="102.92739569" cy="25.40052509" r="1.25"/>
                <circle cx="54.43239569" cy="-2.59807621" r="1.25"/>
                <circle cx="86.76239569" cy="-2.59807621" r="26.6"/>
                <circle cx="70.59739569" cy="-30.59667752" r="1.25"/>
                <circle cx="119.09239569" cy="-2.59807621" r="1.25"/>
            </g>
        </g>
        <g lc:blockname="MYLAYER009">
            <g lc:layername="0" lc:is_locked="false" lc:is_construction="false" fill="none" stroke="black" stroke-width="1"/>
            <g lc:layername="Body_Slices" lc:is_locked="false" lc:is_construction="false" fill="none" stroke="black" stroke-width="1">
                <path d="M489.94595306,-1.09807621 A3,3 0 0,0 489.94595306,-4.09807621 L473.17800387,-33.14101615 A3,3 0 0,0 470.57992766,-34.64101615 L437.04402927,-34.64101615 A3,3 0 0,0 434.44595306,-33.14101615 L417.67800387,-4.09807621 A3,3 0 0,0 417.67800387,-1.09807621 L434.44595306,27.94486373 A3,3 0 0,0 437.04402927,29.44486373 L470.57992766,29.44486373 A3,3 0 0,0 473.17800387,27.94486373 L489.94595306,-1.09807621 Z "/>
                <circle cx="421.48197846" cy="-2.59807621" r="1.25"/>
                <circle cx="486.14197846" cy="-2.59807621" r="1.25"/>
                <circle cx="437.64697846" cy="25.40052509" r="1.25"/>
                <circle cx="469.97697846" cy="-30.59667752" r="1.25"/>
                <circle cx="453.81197846" cy="-2.59807621" r="29"/>
                <circle cx="469.97697846" cy="25.40052509" r="1.25"/>
                <circle cx="437.64697846" cy="-30.59667752" r="1.25"/>
            </g>
        </g>
        <g lc:blockname="MYLAYER008">
            <g lc:layername="0" lc:is_locked="false" lc:is_construction="false" fill="none" stroke="black" stroke-width="1"/>
            <g lc:layername="Body_Slices" lc:is_locked="false" lc:is_construction="false" fill="none" stroke="black" stroke-width="1">
                <path d="M378.31753196,28.57883832 A3,3 0 0,0 380.91560818,27.07883832 L397.18355737,-1.09807621 A3,3 0 0,0 397.18355737,-4.09807621 L380.91560818,-32.27499075 A3,3 0 0,0 378.31753196,-33.77499075 L345.78163358,-33.77499075 A3,3 0 0,0 343.18355737,-32.27499075 L326.91560818,-4.09807621 A3,3 0 0,0 326.91560818,-1.09807621 L343.18355737,27.07883832 A3,3 0 0,0 345.78163358,28.57883832 L378.31753196,28.57883832 Z "/>
                <circle cx="378.21458277" cy="25.40052509" r="1.25"/>
                <circle cx="362.04958277" cy="-2.59807621" r="29"/>
                <circle cx="378.21458277" cy="-30.59667752" r="1.25"/>
                <circle cx="345.88458277" cy="-30.59667752" r="1.25"/>
                <circle cx="345.88458277" cy="25.40052509" r="1.25"/>
                <circle cx="329.71958277" cy="-2.59807621" r="1.25"/>
                <circle cx="394.37958277" cy="-2.59807621" r="1.25"/>
            </g>
        </g>
        <g lc:blockname="MYLAYER004">
            <g lc:layername="0" lc:is_locked="false" lc:is_construction="false" fill="none" stroke="black" stroke-width="1"/>
            <g lc:layername="Body_Slices" lc:is_locked="false" lc:is_construction="false" fill="none" stroke="black" stroke-width="1">
                <path d="M472.07992766,43.97114317 L435.54402927,43.97114317 A3,3 0 0,0 432.94595306,45.47114317 L414.67800387,77.11215932 A3,3 0 0,0 414.67800387,80.11215932 L432.94595306,111.75317547 A3,3 0 0,0 435.54402927,113.25317547 L472.07992766,113.25317547 A3,3 0 0,0 474.67800387,111.75317547 L492.94595306,80.11215932 A3,3 0 0,0 492.94595306,77.11215932 L474.67800387,45.47114317 A3,3 0 0,0 472.07992766,43.97114317 Z "/>
                <circle cx="437.64697846" cy="50.61355802" r="1.25"/>
                <circle cx="437.64697846" cy="106.61076063" r="1.25"/>
                <circle cx="421.48197846" cy="78.61215932" r="1.25"/>
                <circle cx="469.97697846" cy="50.61355802" r="1.25"/>
                <circle cx="453.81197846" cy="78.61215932" r="24.44"/>
                <circle cx="469.97697846" cy="106.61076063" r="1.25"/>
                <circle cx="486.14197846" cy="78.61215932" r="1.25"/>
            </g>
        </g>
        <g lc:blockname="MYLAYER003">
            <g lc:layername="0" lc:is_locked="false" lc:is_construction="false" fill="none" stroke="black" stroke-width="1"/>
            <g lc:layername="Body_Slices" lc:is_locked="false" lc:is_construction="false" fill="none" stroke="black" stroke-width="1">
                <path d="M354.04958277,109.71727709 L354.04958277,116.71727709 L342.35898385,116.71727709 A4,4 0 0,1 338.89488223,114.71727709 L319.20428331,80.61215932 A4,4 0 0,1 319.20428331,76.61215932 L338.89488223,42.50704156 A4,4 0 0,1 342.35898385,40.50704156 L381.74018169,40.50704156 A4,4 0 0,1 385.20428331,42.50704156 L404.89488223,76.61215932 A4,4 0 0,1 404.89488223,80.61215932 L385.20428331,114.71727709 A4,4 0 0,1 381.74018169,116.71727709 L370.04958277,116.71727709 L370.04958277,109.71727709 L354.04958277,109.71727709 Z "/>
                <circle cx="394.37958277" cy="78.61215932" r="1.25"/>
                <circle cx="345.88458277" cy="50.61355802" r="1.25"/>
                <circle cx="378.21458277" cy="106.61076063" r="1.25"/>
                <circle cx="378.21458277" cy="50.61355802" r="1.25"/>
                <circle cx="329.71958277" cy="78.61215932" r="1.25"/>
                <circle cx="345.88458277" cy="106.61076063" r="1.25"/>
                <circle cx="362.04958277" cy="78.61215932" r="22.22"/>
            </g>
        </g>
        <g lc:blockname="MYLAYER002">
            <g lc:layername="0" lc:is_locked="false" lc:is_construction="false" fill="none" stroke="black" stroke-width="1"/>
            <g lc:layername="Body_Slices" lc:is_locked="false" lc:is_construction="false" fill="none" stroke="black" stroke-width="1">
                <path d="M313.13248654,80.61215932 A4,4 0 0,0 313.13248654,76.61215932 L293.44188762,42.50704156 A4,4 0 0,0 289.977786,40.50704156 L250.59658816,40.50704156 A4,4 0 0,0 247.13248654,42.50704156 L227.44188762,76.61215932 A4,4 0 0,0 227.44188762,80.61215932 L247.13248654,114.71727709 A4,4 0 0,0 250.59658816,116.71727709 L262.28718708,116.71727709 L262.28718708,109.71727709 L257.23718708,109.71727709 L257.23718708,75.31727709 L257.23718708,69.31727709 L260.23718708,69.31727709 L270.28718708,69.31727709 L270.28718708,75.31727709 L283.33718708,75.31727709 L283.33718708,109.71727709 L278.28718708,109.71727709 L278.28718708,116.71727709 L289.977786,116.71727709 A4,4 0 0,0 293.44188762,114.71727709 L313.13248654,80.61215932 Z "/>
                <circle cx="254.12218708" cy="50.61355802" r="1.25"/>
                <circle cx="237.95718708" cy="78.61215932" r="1.25"/>
                <path d="M280.28718708,65.39215932 L280.28718708,56.39215932 L260.28718708,56.39215932 L260.28718708,65.39215932 L280.28718708,65.39215932 Z "/>
                <circle cx="254.12218708" cy="106.61076063" r="1.25"/>
                <circle cx="302.61718708" cy="78.61215932" r="1.25"/>
                <circle cx="286.45218708" cy="50.61355802" r="1.25"/>
                <circle cx="286.45218708" cy="106.61076063" r="1.25"/>
            </g>
        </g>
    </g>
</svg>
